<svg width="39" height="48" viewBox="0 0 39 48" version="1.1" xmlns="http://www.w3.org/2000/svg" xmlns:xlink="http://www.w3.org/1999/xlink">
<title>Group</title>
<desc>Created using Figma</desc>
<g id="Canvas" transform="translate(-44315 -688)">
<g id="Group">
<g id="Group">
<g id="Vector">
<use xlink:href="#path0_fill" transform="translate(44325.4 708)" fill="#00998F"/>
</g>
<g id="Vector">
<use xlink:href="#path1_fill" transform="translate(44325.4 701.6)" fill="#00998F"/>
</g>
<g id="Vector">
<use xlink:href="#path2_fill" transform="translate(44325.4 714.4)" fill="#00998F"/>
</g>
<g id="Vector">
<use xlink:href="#path3_fill" transform="translate(44325.4 720.8)" fill="#00998F"/>
</g>
<g id="Vector">
<use xlink:href="#path4_fill" transform="translate(44325.4 727.2)" fill="#00998F"/>
</g>
<g id="Vector">
<use xlink:href="#path5_fill" transform="translate(44315 688)" fill="#00998F"/>
</g>
</g>
</g>
</g>
<defs>
<path id="path0_fill" d="M 20.8 0L 0.8 0C 0.4 0 -3.8147e-07 0.399999 -3.8147e-07 0.799999C -3.8147e-07 1.2 0.4 1.6 0.8 1.6L 20.8 1.6C 21.2 1.6 21.6 1.2 21.6 0.799999C 21.6 0.399999 21.2 0 20.8 0Z"/>
<path id="path1_fill" d="M 0.8 1.6L 8.8 1.6C 9.2 1.6 9.6 1.2 9.6 0.8C 9.6 0.4 9.2 3.8147e-07 8.8 3.8147e-07L 0.8 3.8147e-07C 0.4 3.8147e-07 -3.8147e-07 0.4 -3.8147e-07 0.8C -3.8147e-07 1.2 0.4 1.6 0.8 1.6Z"/>
<path id="path2_fill" d="M 20.8 -3.8147e-07L 0.8 -3.8147e-07C 0.4 -3.8147e-07 -3.8147e-07 0.400001 -3.8147e-07 0.800001C -3.8147e-07 1.2 0.4 1.6 0.8 1.6L 20.8 1.6C 21.2 1.6 21.6 1.2 21.6 0.800001C 21.6 0.400001 21.2 -3.8147e-07 20.8 -3.8147e-07Z"/>
<path id="path3_fill" d="M 20.8 -7.62939e-07L 0.8 -7.62939e-07C 0.4 -7.62939e-07 -3.8147e-07 0.399998 -3.8147e-07 0.799998C -3.8147e-07 1.2 0.4 1.6 0.8 1.6L 20.8 1.6C 21.2 1.6 21.6 1.2 21.6 0.799998C 21.6 0.399998 21.2 -7.62939e-07 20.8 -7.62939e-07Z"/>
<path id="path4_fill" d="M 20.8 7.62939e-07L 0.8 7.62939e-07C 0.4 7.62939e-07 -3.8147e-07 0.4 -3.8147e-07 0.8C -3.8147e-07 1.2 0.4 1.6 0.8 1.6L 20.8 1.6C 21.2 1.6 21.6 1.2 21.6 0.8C 21.6 0.4 21.2 7.62939e-07 20.8 7.62939e-07Z"/>
<path id="path5_fill" d="M 34.4 11.7L 34.4 0L 0 0L 0 44L 4 44L 4 48L 38.4 48L 38.4 15.7L 34.4 11.7ZM 27.2 6.7L 35.7 15.2L 27.2 15.2L 27.2 6.7ZM 1.6 42.4L 1.6 1.6L 32.8 1.6L 32.8 10.1L 26.7 4L 4 4L 4 42.4L 1.6 42.4ZM 5.6 46.4L 5.6 5.6L 25.6 5.6L 25.6 16.8L 36.8 16.8L 36.8 46.4L 5.6 46.4Z"/>
</defs>
</svg>
