<svg width="15" height="15" viewBox="0 0 15 15" version="1.1" xmlns="http://www.w3.org/2000/svg" xmlns:xlink="http://www.w3.org/1999/xlink">
<title>icon-call</title>
<desc>Created using Figma</desc>
<g id="Canvas" transform="translate(-21368 11080)">
<g id="icon-call">
<g id="Vector">
<use xlink:href="#path0_fill" transform="translate(21368 -11080)" fill="#0baca2"/>
</g>
</g>
</g>
<defs>
<path id="path0_fill" d="M 14.1667 10.4167C 13.1292 10.4167 12.125 10.25 11.1917 9.94167C 10.9042 9.85 10.575 9.91667 10.3458 10.1458L 8.5125 11.9833C 6.15 10.7833 4.225 8.85417 3.02083 6.49583L 4.85417 4.65417C 5.08333 4.425 5.15 4.09583 5.05833 3.80833C 4.75 2.875 4.58333 1.87083 4.58333 0.833333C 4.58333 0.370833 4.2125 1.85037e-15 3.75 1.85037e-15L 0.833333 1.85037e-15C 0.375 1.85037e-15 1.4803e-15 0.370833 1.4803e-15 0.833333C 1.4803e-15 8.65833 6.34167 15 14.1667 15C 14.6292 15 15 14.6292 15 14.1667L 15 11.25C 15 10.7875 14.6292 10.4167 14.1667 10.4167ZM 7.5 1.85037e-15L 7.5 8.33333L 10 5.83333L 15 5.83333L 15 1.85037e-15L 7.5 1.85037e-15Z"/>
</defs>
</svg>
