<?xml version="1.0" encoding="UTF-8"?>
<!DOCTYPE svg PUBLIC "-//W3C//DTD SVG 1.1//EN" "http://www.w3.org/Graphics/SVG/1.1/DTD/svg11.dtd">
<!-- Creator: CorelDRAW 2018 -->
<svg xmlns="http://www.w3.org/2000/svg" xml:space="preserve" width="661px" height="479px" version="1.1" style="shape-rendering:geometricPrecision; text-rendering:geometricPrecision; image-rendering:optimizeQuality; fill-rule:evenodd; clip-rule:evenodd"
viewBox="0 0 661 479.261"
 xmlns:xlink="http://www.w3.org/1999/xlink">
 <defs>
  <style type="text/css">
   <![CDATA[
    .fil0 {fill:#00998F}
   ]]>
  </style>
 </defs>
 <g id="Слой_x0020_1">
  <metadata id="CorelCorpID_0Corel-Layer"/>
  <g id="_673598352">
   <path class="fil0" d="M182.985 138.988c0,32.56 13.974,56.932 36.23,77.761 15.031,14.068 44.403,24.296 65.761,24.296 4.248,0 6.062,-0.786 10.967,-1.097 22.268,-1.413 45.411,-13.83 60.277,-28.716 38.909,-38.96 40.975,-98.613 4.521,-140.009l-6.466 -6.533c-15.091,-12.545 -23.633,-19.576 -46.09,-24.905 -63.685,-15.11 -125.2,33.204 -125.2,99.203z"/>
   <path class="fil0" d="M388.967 74.994c0.221,2.656 1.302,6.174 2.164,8.906 1.426,4.522 1.266,4.032 6.368,2.788 43.566,-10.623 133.704,-18.2 156.14,29.617 13.927,29.684 -11.193,68.387 -23.675,85.686 -3.93,5.446 -8.93,10.701 -13.005,15.993 -2.387,3.098 -4.385,4.844 -7.262,7.737l-5.373 5.626c-25.366,25.521 -53.493,48.883 -84.678,67.309 -6.492,3.836 -12.165,7.871 -18.68,11.318 -5.558,-10.505 -18.457,-18.653 -34.536,-14.54 -16.783,4.293 -28.053,24.626 -19.459,42.538 -3.497,0.814 -4.975,2.133 -8.422,3.577 -25.9,10.852 -36.958,14.78 -63.69,23.302 -19.768,6.302 -63.047,16.117 -83.875,16.117 -0.269,-12.091 -5.814,-20.167 -11.542,-27.454 -12.938,-16.459 -43.208,-18.563 -59.704,-3.796 -5.64,5.049 -10.799,10.889 -12.747,19.251 -10.183,-0.847 -28.998,-20.557 -28.998,-38.997 0,-21.268 3.752,-33.589 14.417,-51.577l17.003 -24.994c14.636,-18.747 47.255,-50.482 66.572,-63.417 -1.439,-6.178 -2,-6.907 -2,-14.999 -3.294,0.88 -15.102,10.675 -18.586,13.411 -1.965,1.543 -2.501,2.297 -4.272,3.728l-13.384 11.613c-5.142,5.261 -18.101,15.935 -24.458,23.539 -17.722,21.201 -35.473,42.658 -44.186,69.804 -6.953,21.665 -7.61,43.835 5.897,62.888 8.076,11.392 13.9,14.793 25.005,20.991 7.358,4.106 3.255,6.464 6.837,16.161 12.872,34.84 57.476,38.438 76.762,9.462 3.363,-5.052 3.792,-7.717 6.384,-12.615 42.28,0 110.968,-22.087 148.71,-38.274l13.308 -5.817c3.427,-1.303 2.953,-1.096 6.157,0.823 19.634,11.757 46.807,1.626 46.807,-27.726 22.412,-11.859 45.775,-28.628 66.132,-43.859l30.009 -24.987 27.091 -27.904c20.047,-22.674 42.754,-58.636 42.754,-90.234 0,-51.209 -53.577,-69.995 -95.992,-69.995 -28.487,0 -42.048,0.286 -70.255,5.739 -5.096,0.985 -11.302,2.892 -15.738,3.261z"/>
   <path class="fil0" d="M390.967 61.995c4.052,-0.338 9.112,-2.069 12.987,-3.012l41.153 -7.843c50.491,-8.61 137.083,-8.621 174.591,27.104 5.687,5.417 8.639,7.241 14.254,15.743 4.147,6.281 7.333,11.506 9.77,19.228 14.449,45.774 -12.467,94.505 -38.907,129.631l-39.112 43.88c-2.904,2.904 -5.075,5.144 -7.98,8.019 -20.28,20.065 -61.463,49.599 -83.56,64.428 -51.486,34.552 -119.742,65.252 -179.311,83.667 -45.201,13.973 -93.535,23.097 -141.865,23.121 -11.842,0.006 -19.269,-0.318 -29.304,-1.693 -42.767,-5.86 -87.149,-17.921 -104.99,-59.996 -14.652,-34.553 0.232,-73.623 16.304,-103.297 7.569,-13.975 28.024,-42.424 38.238,-52.754 9.775,-9.887 23.71,-26.492 33.607,-34.388l37.008 -30.986c4.409,-3.527 22.988,-17.753 27.136,-18.861 -0.861,-3.222 -9.729,-9.391 -14.603,-6.715l-13.823 10.287c-9.676,7.253 -30.615,23.673 -40.331,32.663 -15.804,14.622 -21.756,21.308 -36.503,36.491 -27.652,28.47 -65.726,89.084 -65.726,128.258 0,25.325 0.711,38.392 15.391,60.602 8.189,12.391 19.277,21.625 31.786,29.209 71.978,43.64 191.779,20.531 268.045,-4.57 20.58,-6.773 46.786,-16.929 66.075,-25.917 3.461,-1.613 5.607,-2.262 9.009,-3.99 6.33,-3.217 11.964,-5.49 18.326,-8.672 12.054,-6.028 22.25,-11.732 33.998,-17.997l79.182 -51.808c10.625,-7.969 32.768,-25.957 42.391,-35.603 4.749,-4.76 8.874,-7.843 13.501,-12.496 4.866,-4.894 8.088,-9.117 12.997,-14.001 10.616,-10.565 25.904,-30.144 34.649,-43.344 27.455,-41.441 52.474,-99.776 21.014,-147.809 -59.041,-90.143 -246.562,-43.869 -250.483,-40.664 -1.679,1.373 -4.654,10.956 -4.914,14.085z"/>
   <path class="fil0" d="M396.967 101.991c0,5.341 1.009,8.747 2,12.999 19.479,0 39.887,-5.072 62.209,8.784 8.907,5.529 12.412,15.43 11.011,25.371 -0.736,5.219 -1.891,6.812 -2.226,10.842 -10.044,0 -15.999,7.856 -15.999,14.998 0,11.433 9.001,4.318 -15.259,28.738l-11.969 12.029c-2.223,2.202 -4.106,3.477 -6.539,5.459 -16.369,13.336 -20.288,15.155 -35.23,25.765 -2.715,1.928 -3.99,2.91 -7.181,4.818l-23.482 13.515c-23.639,11.687 -41.615,21.334 -67.192,29.801 -30.994,10.259 -102.443,29.677 -132.301,6.043 -21.423,-16.958 -1.568,-47.133 10.735,-63.615 3.947,-5.29 18.912,-21.524 23.44,-24.556 -1.422,-2.124 -6.225,-8.699 -7.999,-9.999 -6.014,4.027 -11.428,9.609 -15.85,15.147 -2.599,3.255 -4.707,4.709 -7.585,8.414l-10.25 13.749c-11.27,17.902 -21.752,39.007 -10.002,60.372 8.888,16.159 32.972,24.308 51.686,24.308 39.07,0 64.711,-3.595 100.147,-16.844 6.182,-2.311 11.681,-3.878 17.701,-6.296 32.67,-13.129 67.47,-30.506 96.131,-50.857 4.878,-3.465 9.491,-6.748 14.313,-10.685 11.549,-9.43 29.734,-23.616 38.686,-35.308 3.658,-4.777 8.014,-8.359 10.999,-13.999 7.234,0 9.251,0.175 13.441,-3.557 12.106,-10.782 0.675,-19.249 2.322,-25.528 1.233,-4.697 3.235,-10.359 3.235,-15.911 0,-15.985 -8.745,-27.976 -18.775,-34.22 -16.574,-10.319 -35.121,-10.777 -55.219,-10.777 -6.65,0 -8.655,1 -14.998,1z"/>
   <path class="fil0" d="M350.97 226.981c2.431,3.318 29.7,8.998 33.998,9.999 0,-5.986 -5.359,-26.955 -7,-33.997 -3.098,2.075 -18.043,21.607 -26.998,23.998z"/>
   <path class="fil0" d="M198.983 74.994c2.359,-8.833 22.083,-24.138 23.998,-26.998 -2.033,-0.976 -30.546,-6.999 -33.997,-6.999l6.636 26.361c1.08,3.892 0.879,5.816 3.363,7.636z"/>
   <path class="fil0" d="M351.97 47.996c1.684,2.514 3.955,3.516 6.269,5.73 5.175,4.952 16.14,15.316 17.729,21.268 3.103,-2.273 4.106,-10.404 5.599,-16.4 1.607,-6.456 2.939,-11.322 4.401,-17.597 -4.522,0 -27.943,5.588 -33.998,6.999z"/>
   <path class="fil0" d="M148.987 137.988l0 2c3.885,0.905 11.475,6.258 15.421,8.578 3.418,2.009 12.617,7.63 15.577,8.421 -3.041,-6.338 -3.968,-30.812 -1,-36.997 -5.84,1.559 -24.829,16.619 -29.998,17.998z"/>
   <path class="fil0" d="M286.976 248.979c-3.837,0 -15.713,-0.903 -17.999,-2 0.793,2.967 7.102,12.168 9,14.999 1.897,2.831 8.207,12.032 8.999,14.999l2 0c1.538,-5.762 15.737,-25.584 16.998,-30.998 -3.041,1.46 -14.392,3 -18.998,3z"/>
   <path class="fil0" d="M189.984 236.98l26.361 -6.636c3.893,-1.08 5.816,-0.879 7.636,-3.363 -8.832,-2.358 -24.138,-22.083 -26.998,-23.998l-6.999 33.997z"/>
   <path class="fil0" d="M397.967 135.989c0,7.534 -2,14.153 -2,20.998 4.886,-2.586 9.545,-5.411 14.566,-8.433 3.718,-2.237 11.825,-7.603 15.431,-8.566l-22.198 -15.799c-2.729,-1.859 -4.273,-3.377 -7.799,-4.199 1.017,2.12 2,12.536 2,15.999z"/>
   <path class="fil0" d="M268.977 29.997c6.234,-2.99 30.322,-2.203 36.997,1 -0.821,-3.526 -6.253,-11.958 -8.436,-15.562l-10.562 -15.435c-0.858,3.213 -2.569,4.8 -4.411,7.588l-13.588 22.409z"/>
  </g>
 </g>
</svg>
