<svg width="65" height="49" viewBox="0 0 65 49" version="1.1" xmlns="http://www.w3.org/2000/svg" xmlns:xlink="http://www.w3.org/1999/xlink">
<title>icon-deal</title>
<desc>Created using Figma</desc>
<g id="Canvas" transform="translate(-18243 7083)">
<g id="icon-deal">
<use xlink:href="#path0_fill" transform="translate(18243 -7083)"/>
</g>
</g>
<defs>
<path id="path0_fill" d="M 37.9167 43.5556C 42.5208 43.5556 46.0417 40.0167 46.0417 35.3889C 46.0417 30.7611 42.5208 27.2222 37.9167 27.2222C 33.3125 27.2222 29.7917 30.7611 29.7917 35.3889C 29.7917 40.0167 33.3125 43.5556 37.9167 43.5556ZM 37.9167 9.52778C 37.9167 8.71111 38.4583 8.16667 39.2708 8.16667L 44.6875 8.16667C 45.5 8.16667 46.0417 8.71111 46.0417 9.52778L 46.0417 12.25C 46.0417 13.0667 45.5 13.6111 44.6875 13.6111L 39.2708 13.6111C 38.4583 13.6111 37.9167 13.0667 37.9167 12.25L 37.9167 9.52778ZM 8.125 25.8611C 8.125 25.0444 8.66667 24.5 9.47917 24.5L 14.8958 24.5C 15.7083 24.5 16.25 25.0444 16.25 25.8611L 16.25 28.5833C 16.25 29.4 15.7083 29.9444 14.8958 29.9444L 9.47917 29.9444C 8.66667 29.9444 8.125 29.4 8.125 28.5833L 8.125 25.8611ZM 51.4583 43.5556C 56.0625 43.5556 59.5833 40.0167 59.5833 35.3889C 59.5833 30.7611 56.0625 27.2222 51.4583 27.2222C 50.6458 27.2222 49.8333 27.2222 49.0208 27.4944C 50.6458 29.6722 51.4583 32.3944 51.4583 35.3889C 51.4583 38.3833 50.6458 41.1056 49.0208 43.2833C 49.8333 43.5556 50.6458 43.5556 51.4583 43.5556ZM 27.0833 27.2222C 22.4792 27.2222 18.9583 23.6833 18.9583 19.0556C 18.9583 14.4278 22.4792 10.8889 27.0833 10.8889C 31.6875 10.8889 35.2083 14.4278 35.2083 19.0556C 35.2083 20.1444 34.9375 21.2333 34.6667 22.3222C 35.75 22.05 36.8333 21.7778 37.9167 21.7778C 40.3542 21.7778 42.7917 22.3222 44.6875 23.6833C 46.0417 22.8667 47.3958 22.3222 48.75 22.05L 48.75 5.44444L 5.41667 5.44444L 5.41667 32.6667L 24.6458 32.6667C 24.9167 30.7611 26 28.8556 27.0833 27.2222ZM 5.41667 38.1111C 2.4375 38.1111 0 35.6611 0 32.6667L 0 5.44444C 0 2.45 2.4375 0 5.41667 0L 48.75 0C 51.7292 0 54.1667 2.45 54.1667 5.44444L 54.1667 22.05C 60.3958 23.4111 65 28.8556 65 35.3889C 65 43.0111 59.0417 49 51.4583 49C 49.0208 49 46.5833 48.4556 44.6875 47.0944C 42.7917 48.4556 40.3542 49 37.9167 49C 31.4167 49 26 44.3722 24.6458 38.1111L 5.41667 38.1111Z"/>
</defs>
</svg>
