<svg width="55" height="60" viewBox="0 0 55 60" version="1.1" xmlns="http://www.w3.org/2000/svg" xmlns:xlink="http://www.w3.org/1999/xlink">
<title>Group</title>
<desc>Created using Figma</desc>
<g id="Canvas" transform="translate(-26612 10867)">
<g id="Group">
<g id="Group">
<g id="Vector">
<use xlink:href="#path0_fill" transform="translate(26612 -10867)"/>
</g>
</g>
</g>
</g>
<defs>
<path id="path0_fill" d="M 39.5476 48.5217L 35.3571 46.4348L 31.1667 48.5217C 30.119 49.0435 29.0714 48.2609 29.3333 47.2174L 30.119 42.5217L 26.7143 39.1304C 25.9286 38.3478 26.1905 37.0435 27.5 36.7826C 27.5 36.7826 32.2143 36 32.2143 36.2609L 34.3095 32.087C 34.8333 31.0435 36.1429 31.0435 36.6667 32.087L 38.7619 36.2609L 43.4762 37.0435C 44.7857 37.3043 45.0476 38.3478 44.2619 39.3913C 44.2619 39.3913 40.8571 42.7826 40.8571 42.5217L 41.6429 47.2174C 41.6429 48.2609 40.5952 49.0435 39.5476 48.5217ZM 49.7619 40.4348C 49.7619 32.6087 43.2143 26.087 35.3571 26.087C 27.5 26.087 20.9524 32.6087 20.9524 40.4348C 20.9524 48.2609 27.5 54.7826 35.3571 54.7826C 43.2143 54.7826 49.7619 48.2609 49.7619 40.4348ZM 5.2381 5.21739L 5.2381 46.9565C 5.2381 46.9565 10.4762 46.9565 16.7619 46.9565C 16.2381 44.8696 15.7143 42.7826 15.7143 40.4348C 15.7143 33.1304 19.6429 26.8696 25.6667 23.4783L 20.9524 23.4783C 19.381 23.4783 18.3333 22.4348 18.3333 20.8696L 18.3333 5.21739L 5.2381 5.21739ZM 36.6667 18.2609L 23.5714 5.21739L 23.5714 18.2609L 36.6667 18.2609ZM 41.9048 17.4783L 41.9048 21.913C 49.5 24.5217 55 31.8261 55 40.4348C 55 51.1304 46.0952 60 35.3571 60C 28.8095 60 23.3095 56.8696 19.6429 52.1739L 5.2381 52.1739C 2.35714 52.1739 0 49.8261 0 46.9565L 0 5.21739C 0 2.34783 2.35714 0 5.2381 0L 24.3571 0C 25.1429 0 26.1905 0.521739 26.7143 1.04348L 41.119 15.3913C 41.381 15.6522 41.9048 16.6957 41.9048 17.4783Z"/>
</defs>
</svg>
