<svg width="38" height="48" viewBox="0 0 38 48" version="1.1" xmlns="http://www.w3.org/2000/svg" xmlns:xlink="http://www.w3.org/1999/xlink">
<title>icon-document</title>
<desc>Created using Figma</desc>
<g id="Canvas" transform="translate(-17874 6966)">
<g id="icon-document">
<use xlink:href="#path0_fill" transform="translate(17874 -6966)" fill="#FFFFFF"/>
</g>
</g>
<defs>
<path id="path0_fill" d="M 7.125 28.8C 7.125 27.36 8.3125 26.4 9.5 26.4L 19 26.4C 20.425 26.4 21.375 27.36 21.375 28.8C 21.375 30.24 20.1875 31.2 19 31.2L 9.5 31.2C 8.075 31.2 7.125 30.24 7.125 28.8ZM 7.125 36C 7.125 34.56 8.075 33.6 9.5 33.6L 28.5 33.6C 29.6875 33.6 30.875 34.56 30.875 36C 30.875 37.44 29.925 38.4 28.5 38.4L 9.5 38.4C 8.075 38.4 7.125 37.44 7.125 36ZM 4.75 0L 22.0875 0C 22.8 0 23.75 0.48 24.225 0.96L 37.2875 14.16C 37.525 14.4 38 15.36 38 16.08L 38 43.2C 38 45.84 35.8625 48 33.25 48L 4.75 48C 2.1375 48 0 45.84 0 43.2L 0 4.8C 0 2.16 2.1375 0 4.75 0ZM 21.375 16.8L 33.25 16.8L 21.375 4.8L 21.375 16.8ZM 16.625 4.8L 4.75 4.8L 4.75 43.2L 33.25 43.2C 33.25 43.2 33.25 29.28 33.25 21.6L 19 21.6C 17.575 21.6 16.625 20.64 16.625 19.2L 16.625 4.8Z"/>
</defs>
</svg>
