<?xml version="1.0" encoding="UTF-8"?>
<!DOCTYPE svg PUBLIC "-//W3C//DTD SVG 1.1//EN" "http://www.w3.org/Graphics/SVG/1.1/DTD/svg11.dtd">
<!-- Creator: CorelDRAW 2018 -->
<svg xmlns="http://www.w3.org/2000/svg" xml:space="preserve" width="570px" height="728px" version="1.1" style="shape-rendering:geometricPrecision; text-rendering:geometricPrecision; image-rendering:optimizeQuality; fill-rule:evenodd; clip-rule:evenodd"
viewBox="0 0 570 728.192"
 xmlns:xlink="http://www.w3.org/1999/xlink">
 <defs>
  <style type="text/css">
   <![CDATA[
    .fil0 {fill:white}
   ]]>
  </style>
 </defs>
 <g id="Слой_x0020_1">
  <metadata id="CorelCorpID_0Corel-Layer"/>
  <g id="_665042328">
   <path class="fil0" d="M203.902 202.053l-121.546 0.573 120.76 -121.876 0.786 121.303zm18.828 -202.053l27.143 0c2.659,0.103 5.548,0.174 8.713,0.18 103.935,0.214 207.949,-0.18 311.414,-0.18l-0.517 651.171 -45.546 0 -0.044 -605.159 -274.494 0 2.001 203.253 -203.536 -0.199 -0.518 402.105 -46.012 0c-1.462,-97.748 -0.628,-195.635 -0.497,-293.419 0.03,-21.822 -3.179,-131.859 2.777,-143.601 2.86,-5.639 139.226,-140.055 155.987,-156.911 12.516,-12.587 27.363,-26.117 39.123,-38.957 10.737,-11.724 17.065,-16.528 24.006,-18.283z"/>
   <path class="fil0" d="M199.386 572.151l-107.028 0 192.715 156.041 0.865 0 193.522 -156.041 -107.028 0 -0.164 -108.239c-49.876,-2.428 -120.867,-0.816 -172.882,-0.79l0 109.029z"/>
  </g>
 </g>
</svg>
