<svg width="21" height="21" viewBox="0 0 21 21" version="1.1" xmlns="http://www.w3.org/2000/svg" xmlns:xlink="http://www.w3.org/1999/xlink">
<title>facebook</title>
<desc>Created using Figma</desc>
<g id="Canvas" transform="translate(-29831 5009)">
<g id="facebook">
<use xlink:href="#path0_fill" transform="translate(29832 -5008)" fill="#FFFFFF"/>
<mask id="mask0_outline_out">
<rect id="mask0_outline_inv" fill="white" x="-1" y="-1" width="21" height="21" transform="translate(29832 -5008)"/>
<use xlink:href="#path0_fill" fill="black" transform="translate(29832 -5008)"/>
</mask>
<g mask="url(#mask0_outline_out)">
<use xlink:href="#path1_stroke_2x" transform="translate(29832 -5008)" fill="#FFFFFF"/>
</g>
</g>
</g>
<defs>
<path id="path0_fill" d="M 17.4166 0L 1.58341 0C 0.712738 0 0 0.712738 0 1.58341L 0 17.4168C 0 18.287 0.712738 19 1.58341 19L 17.4166 19C 18.2873 19 19 18.287 19 17.4168L 19 1.58341C 19 0.712738 18.2873 0 17.4166 0ZM 17.4166 17.4168L 11.0834 17.4168L 11.0834 11.0832L 15.0416 11.0832L 15.0416 9.5L 11.0834 9.5L 11.0834 7.91659C 11.0834 6.60464 12.1472 5.54159 13.4584 5.54159L 15.0416 5.54159L 15.0416 3.95818L 13.4584 3.95818C 11.2727 3.95841 9.5 5.72993 9.5 7.91659L 9.5 9.5L 7.91659 9.5L 7.91659 11.0832L 9.5 11.0832L 9.5 17.4168L 1.58341 17.4168L 1.58341 1.58341L 17.4166 1.58341L 17.4166 17.4168Z"/>
<path id="path1_stroke_2x" d="M 17.4166 17.4168L 17.4166 17.5168L 17.5166 17.5168L 17.5166 17.4168L 17.4166 17.4168ZM 11.0834 17.4168L 10.9834 17.4168L 10.9834 17.5168L 11.0834 17.5168L 11.0834 17.4168ZM 11.0834 11.0832L 11.0834 10.9832L 10.9834 10.9832L 10.9834 11.0832L 11.0834 11.0832ZM 15.0416 11.0832L 15.0416 11.1832L 15.1416 11.1832L 15.1416 11.0832L 15.0416 11.0832ZM 15.0416 9.5L 15.1416 9.5L 15.1416 9.4L 15.0416 9.4L 15.0416 9.5ZM 11.0834 9.5L 10.9834 9.5L 10.9834 9.6L 11.0834 9.6L 11.0834 9.5ZM 15.0416 5.54159L 15.0416 5.64159L 15.1416 5.64159L 15.1416 5.54159L 15.0416 5.54159ZM 15.0416 3.95818L 15.1416 3.95818L 15.1416 3.85818L 15.0416 3.85818L 15.0416 3.95818ZM 13.4584 3.95818L 13.4584 3.85818L 13.4584 3.85818L 13.4584 3.95818ZM 9.5 9.5L 9.5 9.6L 9.6 9.6L 9.6 9.5L 9.5 9.5ZM 7.91659 9.5L 7.91659 9.4L 7.81659 9.4L 7.81659 9.5L 7.91659 9.5ZM 7.91659 11.0832L 7.81659 11.0832L 7.81659 11.1832L 7.91659 11.1832L 7.91659 11.0832ZM 9.5 11.0832L 9.6 11.0832L 9.6 10.9832L 9.5 10.9832L 9.5 11.0832ZM 9.5 17.4168L 9.5 17.5168L 9.6 17.5168L 9.6 17.4168L 9.5 17.4168ZM 1.58341 17.4168L 1.48341 17.4168L 1.48341 17.5168L 1.58341 17.5168L 1.58341 17.4168ZM 1.58341 1.58341L 1.58341 1.48341L 1.48341 1.48341L 1.48341 1.58341L 1.58341 1.58341ZM 17.4166 1.58341L 17.5166 1.58341L 17.5166 1.48341L 17.4166 1.48341L 17.4166 1.58341ZM 17.4166 -0.1L 1.58341 -0.1L 1.58341 0.1L 17.4166 0.1L 17.4166 -0.1ZM 1.58341 -0.1C 0.657509 -0.1 -0.1 0.657509 -0.1 1.58341L 0.1 1.58341C 0.1 0.767966 0.767966 0.1 1.58341 0.1L 1.58341 -0.1ZM -0.1 1.58341L -0.1 17.4168L 0.1 17.4168L 0.1 1.58341L -0.1 1.58341ZM -0.1 17.4168C -0.1 18.3423 0.657509 19.1 1.58341 19.1L 1.58341 18.9C 0.767966 18.9 0.1 18.2318 0.1 17.4168L -0.1 17.4168ZM 1.58341 19.1L 17.4166 19.1L 17.4166 18.9L 1.58341 18.9L 1.58341 19.1ZM 17.4166 19.1C 18.3425 19.1 19.1 18.3423 19.1 17.4168L 18.9 17.4168C 18.9 18.2318 18.232 18.9 17.4166 18.9L 17.4166 19.1ZM 19.1 17.4168L 19.1 1.58341L 18.9 1.58341L 18.9 17.4168L 19.1 17.4168ZM 19.1 1.58341C 19.1 0.657509 18.3425 -0.1 17.4166 -0.1L 17.4166 0.1C 18.232 0.1 18.9 0.767966 18.9 1.58341L 19.1 1.58341ZM 17.4166 17.3168L 11.0834 17.3168L 11.0834 17.5168L 17.4166 17.5168L 17.4166 17.3168ZM 11.1834 17.4168L 11.1834 11.0832L 10.9834 11.0832L 10.9834 17.4168L 11.1834 17.4168ZM 11.0834 11.1832L 15.0416 11.1832L 15.0416 10.9832L 11.0834 10.9832L 11.0834 11.1832ZM 15.1416 11.0832L 15.1416 9.5L 14.9416 9.5L 14.9416 11.0832L 15.1416 11.0832ZM 15.0416 9.4L 11.0834 9.4L 11.0834 9.6L 15.0416 9.6L 15.0416 9.4ZM 11.1834 9.5L 11.1834 7.91659L 10.9834 7.91659L 10.9834 9.5L 11.1834 9.5ZM 11.1834 7.91659C 11.1834 6.65989 12.2024 5.64159 13.4584 5.64159L 13.4584 5.44159C 12.092 5.44159 10.9834 6.54939 10.9834 7.91659L 11.1834 7.91659ZM 13.4584 5.64159L 15.0416 5.64159L 15.0416 5.44159L 13.4584 5.44159L 13.4584 5.64159ZM 15.1416 5.54159L 15.1416 3.95818L 14.9416 3.95818L 14.9416 5.54159L 15.1416 5.54159ZM 15.0416 3.85818L 13.4584 3.85818L 13.4584 4.05818L 15.0416 4.05818L 15.0416 3.85818ZM 13.4584 3.85818C 11.2175 3.85842 9.4 5.67467 9.4 7.91659L 9.6 7.91659C 9.6 5.78518 11.3279 4.05841 13.4584 4.05818L 13.4584 3.85818ZM 9.4 7.91659L 9.4 9.5L 9.6 9.5L 9.6 7.91659L 9.4 7.91659ZM 9.5 9.4L 7.91659 9.4L 7.91659 9.6L 9.5 9.6L 9.5 9.4ZM 7.81659 9.5L 7.81659 11.0832L 8.01659 11.0832L 8.01659 9.5L 7.81659 9.5ZM 7.91659 11.1832L 9.5 11.1832L 9.5 10.9832L 7.91659 10.9832L 7.91659 11.1832ZM 9.4 11.0832L 9.4 17.4168L 9.6 17.4168L 9.6 11.0832L 9.4 11.0832ZM 9.5 17.3168L 1.58341 17.3168L 1.58341 17.5168L 9.5 17.5168L 9.5 17.3168ZM 1.68341 17.4168L 1.68341 1.58341L 1.48341 1.58341L 1.48341 17.4168L 1.68341 17.4168ZM 1.58341 1.68341L 17.4166 1.68341L 17.4166 1.48341L 1.58341 1.48341L 1.58341 1.68341ZM 17.3166 1.58341L 17.3166 17.4168L 17.5166 17.4168L 17.5166 1.58341L 17.3166 1.58341Z"/>
</defs>
</svg>
