<svg width="64" height="54" viewBox="0 0 64 54" version="1.1" xmlns="http://www.w3.org/2000/svg" xmlns:xlink="http://www.w3.org/1999/xlink">
<title>Group</title>
<desc>Created using Figma</desc>
<g id="Canvas" transform="translate(-27643 10864)">
<g id="Group">
<g id="Group">
<g id="Vector">
<use xlink:href="#path0_fill" transform="translate(27643 -10864)"/>
</g>
</g>
</g>
</g>
<defs>
<path id="path0_fill" d="M 32 10.8C 33.6 10.8 34.6667 9.72 34.6667 8.1C 34.6667 6.48 33.6 5.4 32 5.4C 30.4 5.4 29.3333 6.48 29.3333 8.1C 29.3333 9.72 30.4 10.8 32 10.8ZM 32 16.2C 27.4667 16.2 24 12.69 24 8.1C 24 3.51 27.4667 0 32 0C 36.5333 0 40 3.51 40 8.1C 40 12.69 36.5333 16.2 32 16.2ZM 50.6667 21.6C 52.2667 21.6 53.3333 20.52 53.3333 18.9C 53.3333 17.28 52.2667 16.2 50.6667 16.2C 49.0667 16.2 48 17.28 48 18.9C 48 20.52 49.0667 21.6 50.6667 21.6ZM 50.6667 27C 46.1333 27 42.6667 23.49 42.6667 18.9C 42.6667 14.31 46.1333 10.8 50.6667 10.8C 55.2 10.8 58.6667 14.31 58.6667 18.9C 58.6667 23.49 55.2 27 50.6667 27ZM 10.6667 24.3L 5.33333 24.3L 5.33333 45.9L 10.6667 45.9L 10.6667 24.3ZM 33.3333 48.6C 48 48.6 58.1333 39.69 58.1333 38.88C 58.1333 38.07 55.2 36.45 52 36.45L 45.8667 36.45C 46.1333 37.26 46.4 37.8 46.4 38.61C 46.9333 40.23 45.6 41.85 43.7333 41.85L 22.4 41.85C 20.8 41.85 19.7333 40.77 19.7333 39.15C 19.7333 37.53 20.8 36.45 22.4 36.45L 40 36.45C 40 36.45 38.1333 31.05 34.6667 31.05L 25.3333 31.05C 24.8 31.05 24.2667 30.78 23.7333 30.51C 23.7333 30.51 20 28.08 16 27.27L 16 43.74C 18.9333 47.25 26.6667 48.6 33.3333 48.6ZM 12 51.3L 4 51.3C 1.86667 51.3 0 49.41 0 47.25L 0 22.95C 0 20.79 1.86667 18.9 4 18.9L 12 18.9C 13.8667 18.9 15.4667 20.25 15.7333 21.87C 18.1333 22.14 22.4 23.49 26.1333 25.65C 26.9333 25.65 34.6667 25.65 34.6667 25.65C 38.4 25.65 41.0667 27.81 43.2 31.05L 52 31.05C 58.6667 31.05 64 35.1 64 39.15C 64 41.58 60 45.09 54.9333 48.06C 48.5333 51.84 41.3333 54 33.3333 54C 25.6 54 19.2 52.65 15.2 49.95C 14.4 50.76 13.3333 51.3 12 51.3Z"/>
</defs>
</svg>
