<svg width="20" height="16" viewBox="0 0 20 16" version="1.1" xmlns="http://www.w3.org/2000/svg" xmlns:xlink="http://www.w3.org/1999/xlink">
<title>if_Like_984762</title>
<desc>Created using Figma</desc>
<g id="Canvas" transform="translate(-20694 7598)">
<g id="if_Like_984762">
<g id="Vector">
<mask id="mask0_outline_ins">
<use xlink:href="#path0_fill" fill="white" transform="translate(20694 -7598)"/>
</mask>
<g mask="url(#mask0_outline_ins)">
<use xlink:href="#path1_stroke_2x" transform="translate(20694 -7598)" fill="#18A29B"/>
</g>
</g>
</g>
</g>
<defs>
<path id="path0_fill" d="M 19.2 5.01782C 19.2 2.24663 16.9275 4.71239e-08 14.1246 4.71239e-08C 12.1469 4.71239e-08 10.4372 1.12098 9.60015 2.75326C 8.76251 1.12098 7.05326 0.000301324 5.07535 0.000301324C 2.2723 0.000150674 0 2.24663 0 5.01782C 0 10.2597 8.5149 16 9.60015 16C 10.6856 16 19.2 10.2848 19.2 5.01782Z"/>
<path id="path1_stroke_2x" d="M 9.60015 2.75326L 8.71046 3.20983L 9.60048 4.94418L 10.49 3.20956L 9.60015 2.75326ZM 5.07535 0.000301324L 5.0753 1.0003L 5.07535 1.0003L 5.07535 0.000301324ZM 20.2 5.01782C 20.2 1.68362 17.469 -1 14.1246 -1L 14.1246 1C 16.386 1 18.2 2.80964 18.2 5.01782L 20.2 5.01782ZM 14.1246 -1C 11.7601 -1 9.71309 0.341478 8.71033 2.29697L 10.49 3.20956C 11.1613 1.90048 12.5337 1 14.1246 1L 14.1246 -1ZM 10.4898 2.2967C 9.48649 0.341483 7.44013 -0.999699 5.07535 -0.999699L 5.07535 1.0003C 6.66638 1.0003 8.03854 1.90048 8.71046 3.20983L 10.4898 2.2967ZM 5.07541 -0.999699C 1.73083 -0.999878 -1 1.68361 -1 5.01782L 1 5.01782C 1 2.80965 2.81378 1.00018 5.0753 1.0003L 5.07541 -0.999699ZM -1 5.01782C -1 8.1037 1.44134 11.1107 3.7148 13.2094C 4.88389 14.287 6.11647 15.2193 7.09607 15.8588C 7.59346 16.1828 8.06575 16.4566 8.43128 16.6387C 8.62184 16.733 8.82389 16.8209 8.97881 16.8766C 9.1264 16.929 9.35548 17 9.60015 17L 9.60015 15C 9.70917 15 9.74455 15.0261 9.64818 14.9919C 9.55913 14.961 9.46697 14.9204 9.32083 14.8475C 9.01298 14.6952 8.64199 14.4796 8.1885 14.1835C 7.26633 13.5829 6.1667 12.7526 5.07141 11.7398C 2.81611 9.65789 1 7.17379 1 5.01782L -1 5.01782ZM 9.60015 17C 9.84408 17 10.0726 16.9295 10.2203 16.8773C 10.3751 16.8219 10.5771 16.7344 10.7677 16.6405C 11.1332 16.459 11.6056 16.1861 12.103 15.8631C 13.0827 15.2256 14.3156 14.2955 15.4849 13.2193C 17.7596 11.1225 20.2 8.11586 20.2 5.01782L 18.2 5.01782C 18.2 7.18679 16.3832 9.67121 14.1293 11.7488C 13.0343 12.7598 11.9351 13.5876 11.013 14.1863C 10.5596 14.4814 10.1887 14.6961 9.88087 14.8478C 9.73473 14.9205 9.6425 14.9609 9.55338 14.9918C 9.45706 15.0258 9.4919 15 9.60015 15L 9.60015 17Z"/>
</defs>
</svg>
