<svg width="61" height="54" viewBox="0 0 61 54" version="1.1" xmlns="http://www.w3.org/2000/svg" xmlns:xlink="http://www.w3.org/1999/xlink">
<title>Industry</title>
<desc>Created using Figma</desc>
<g id="Canvas" transform="translate(-34582 15906)">
<g id="Industry">
<g id="path9151">
<mask id="mask0_outline_ins">
<use xlink:href="#path0_fill" fill="white" transform="translate(34582 -15906)"/>
</mask>
<g mask="url(#mask0_outline_ins)">
<use xlink:href="#path1_stroke_2x" transform="translate(34582 -15906)"/>
</g>
</g>
</g>
</g>
<defs>
<path id="path0_fill" d="M 43.0588 3.60002C 43.0588 8.39992 43.0588 18 43.0588 18L 32.2941 18L 32.2941 7.19999L 17.9412 18L 17.9412 7.19999L 3.58824 18C 1.9979 19.1967 -1.62785e-07 19.8 -1.62785e-07 23.4L -1.62785e-07 50.4C -1.62785e-07 52.3944 1.60032 54 3.58824 54L 57.4118 54C 59.3997 54 61 52.3944 61 50.4L 61 21.6C 61 19.6056 59.3997 18 57.4118 18L 50.2353 18C 50.2353 18 50.2353 8.39991 50.2353 3.60002C 50.2353 1.80002 48.3386 -8.16752e-06 46.6471 -8.16752e-06C 44.9556 -8.16752e-06 43.0588 1.80002 43.0588 3.60002Z"/>
<path id="path1_stroke_2x" d="M 43.0588 18L 43.0588 24L 49.0588 24L 49.0588 18L 43.0588 18ZM 32.2941 18L 26.2941 18L 26.2941 24L 32.2941 24L 32.2941 18ZM 32.2941 7.19999L 38.2941 7.19999L 38.2941 -4.82364L 28.6866 2.40566L 32.2941 7.19999ZM 17.9412 18L 11.9412 18L 11.9412 30.0237L 21.5487 22.7944L 17.9412 18ZM 17.9412 7.19999L 23.9412 7.19999L 23.9412 -4.82364L 14.3336 2.40566L 17.9412 7.19999ZM 3.58824 18L 7.19573 22.7944L 7.19578 22.7944L 3.58824 18ZM 50.2353 18L 44.2353 18L 44.2353 24L 50.2353 24L 50.2353 18ZM 37.0588 3.60002C 37.0588 5.99997 37.0588 9.59997 37.0588 12.6C 37.0588 14.1 37.0588 15.45 37.0588 16.425C 37.0588 16.9125 37.0588 17.3063 37.0588 17.5781C 37.0588 17.7141 37.0588 17.8196 37.0588 17.891C 37.0588 17.9268 37.0588 17.954 37.0588 17.9723C 37.0588 17.9815 37.0588 17.9884 37.0588 17.993C 37.0588 17.9954 37.0588 17.9971 37.0588 17.9983C 37.0588 17.9989 37.0588 17.9993 37.0588 17.9996C 37.0588 17.9997 37.0588 17.9998 37.0588 17.9999C 37.0588 18 37.0588 18 43.0588 18C 49.0588 18 49.0588 18 49.0588 17.9999C 49.0588 17.9998 49.0588 17.9997 49.0588 17.9996C 49.0588 17.9993 49.0588 17.9989 49.0588 17.9983C 49.0588 17.9971 49.0588 17.9954 49.0588 17.993C 49.0588 17.9884 49.0588 17.9815 49.0588 17.9723C 49.0588 17.954 49.0588 17.9268 49.0588 17.891C 49.0588 17.8196 49.0588 17.7141 49.0588 17.5781C 49.0588 17.3063 49.0588 16.9125 49.0588 16.425C 49.0588 15.45 49.0588 14.1 49.0588 12.6C 49.0588 9.59997 49.0588 5.99997 49.0588 3.60002L 37.0588 3.60002ZM 43.0588 12L 32.2941 12L 32.2941 24L 43.0588 24L 43.0588 12ZM 38.2941 18L 38.2941 7.19999L 26.2941 7.19999L 26.2941 18L 38.2941 18ZM 28.6866 2.40566L 14.3336 13.2057L 21.5487 22.7944L 35.9017 11.9943L 28.6866 2.40566ZM 23.9412 18L 23.9412 7.19999L 11.9412 7.19999L 11.9412 18L 23.9412 18ZM 14.3336 2.40566L -0.019311 13.2057L 7.19578 22.7944L 21.5487 11.9943L 14.3336 2.40566ZM -0.0192598 13.2057C -0.196444 13.3467 -0.506859 13.5335 -1.03081 13.8901C -1.55269 14.2489 -2.46877 14.9655 -3.1948 15.7115C -5.06729 17.7239 -6 20.3041 -6 23.4L 6 23.4C 6 23.0537 6.04777 23.0589 5.97362 23.2622C 5.8871 23.4993 5.73788 23.7274 5.59028 23.886C 5.48765 23.9963 5.45697 23.9911 5.74411 23.7946C 5.8933 23.6921 6.07339 23.5752 6.30841 23.4184C 6.54335 23.2615 6.88762 23.0243 7.19573 22.7944L -0.0192598 13.2057ZM -6 23.4L -6 50.4L 6 50.4L 6 23.4L -6 23.4ZM -6 50.4C -6 55.6895 -1.73203 60 3.58824 60L 3.58824 48C 4.93267 48 6 49.0994 6 50.4L -6 50.4ZM 3.58824 60L 57.4118 60L 57.4118 48L 3.58824 48L 3.58824 60ZM 57.4118 60C 62.732 60 67 55.6894 67 50.4L 55 50.4C 55 49.0994 56.0673 48 57.4118 48L 57.4118 60ZM 67 50.4L 67 21.6L 55 21.6L 55 50.4L 67 50.4ZM 67 21.6C 67 16.3104 62.7319 12 57.4118 12L 57.4118 24C 56.0675 24 55 22.9008 55 21.6L 67 21.6ZM 57.4118 12L 50.2353 12L 50.2353 24L 57.4118 24L 57.4118 12ZM 50.2353 18C 56.2353 18 56.2353 18 56.2353 17.9999C 56.2353 17.9998 56.2353 17.9997 56.2353 17.9996C 56.2353 17.9993 56.2353 17.9989 56.2353 17.9983C 56.2353 17.9971 56.2353 17.9954 56.2353 17.993C 56.2353 17.9884 56.2353 17.9815 56.2353 17.9723C 56.2353 17.954 56.2353 17.9268 56.2353 17.891C 56.2353 17.8196 56.2353 17.7141 56.2353 17.5781C 56.2353 17.3063 56.2353 16.9125 56.2353 16.425C 56.2353 15.45 56.2353 14.1 56.2353 12.6C 56.2353 9.59996 56.2353 5.99996 56.2353 3.60002L 44.2353 3.60002C 44.2353 5.99996 44.2353 9.59996 44.2353 12.6C 44.2353 14.1 44.2353 15.45 44.2353 16.425C 44.2353 16.9125 44.2353 17.3063 44.2353 17.5781C 44.2353 17.7141 44.2353 17.8196 44.2353 17.891C 44.2353 17.9268 44.2353 17.954 44.2353 17.9723C 44.2353 17.9815 44.2353 17.9884 44.2353 17.993C 44.2353 17.9954 44.2353 17.9971 44.2353 17.9983C 44.2353 17.9989 44.2353 17.9993 44.2353 17.9996C 44.2353 17.9997 44.2353 17.9998 44.2353 17.9999C 44.2353 18 44.2353 18 50.2353 18ZM 56.2353 3.60002C 56.2353 0.652429 54.759 -1.69935 53.2849 -3.15061C 51.828 -4.58496 49.5002 -6.00001 46.6471 -6.00001L 46.6471 5.99999C 46.0196 5.99999 45.5795 5.83917 45.3531 5.73193C 45.1185 5.62083 44.9672 5.50022 44.8661 5.40062C 44.7632 5.29937 44.2353 4.74761 44.2353 3.60002L 56.2353 3.60002ZM 46.6471 -6.00001C 43.7939 -6.00001 41.4661 -4.58496 40.0092 -3.15061C 38.5351 -1.69934 37.0588 0.65243 37.0588 3.60002L 49.0588 3.60002C 49.0588 4.74761 48.5309 5.29937 48.428 5.40062C 48.3269 5.50022 48.1756 5.62083 47.941 5.73193C 47.7146 5.83917 47.2746 5.99999 46.6471 5.99999L 46.6471 -6.00001Z"/>
</defs>
</svg>
