<svg width="18" height="18" viewBox="0 0 18 18" version="1.1" xmlns="http://www.w3.org/2000/svg" xmlns:xlink="http://www.w3.org/1999/xlink">
<title>instagram</title>
<desc>Created using Figma</desc>
<g id="Canvas" transform="translate(-29957 5008)">
<g id="instagram">
<g id="Vector">
<use xlink:href="#path0_fill" transform="translate(29957 -5008)" fill="#FFFFFF"/>
</g>
<g id="Vector">
<use xlink:href="#path1_fill" transform="translate(29969.8 -5005)" fill="#FFFFFF"/>
</g>
<g id="Vector">
<use xlink:href="#path2_fill" transform="translate(29961.5 -5003.5)" fill="#FFFFFF"/>
</g>
</g>
</g>
<defs>
<path id="path0_fill" d="M 13.5 -9.09783e-08L 4.5 -9.09783e-08C 2.02523 -9.09783e-08 0 2.02517 0 4.49989L 0 13.5001C 0 15.9742 2.02523 18 4.5 18L 13.5 18C 15.9748 18 18 15.9742 18 13.5001L 18 4.49989C 18 2.02517 15.9748 -9.09783e-08 13.5 -9.09783e-08ZM 16.4999 13.5001C 16.4999 15.1538 15.1546 16.5 13.5 16.5L 4.5 16.5C 2.84602 16.5 1.50007 15.1538 1.50007 13.5001L 1.50007 4.49989C 1.50007 2.84573 2.84602 1.50004 4.5 1.50004L 13.5 1.50004C 15.1546 1.50004 16.4999 2.84573 16.4999 4.49989L 16.4999 13.5001Z"/>
<path id="path1_fill" d="M 1.125 2.24994C 1.74632 2.24994 2.25 1.74628 2.25 1.12497C 2.25 0.503667 1.74632 0 1.125 0C 0.50368 0 0 0.503667 0 1.12497C 0 1.74628 0.50368 2.24994 1.125 2.24994Z"/>
<path id="path2_fill" d="M 4.5 1.23593e-07C 2.0142 1.23593e-07 0 2.01437 0 4.49989C 0 6.9845 2.0142 9.00023 4.5 9.00023C 6.98513 9.00023 9 6.9845 9 4.49989C 9 2.01437 6.98513 1.23593e-07 4.5 1.23593e-07ZM 4.5 7.50019C 2.84333 7.50019 1.50007 6.15697 1.50007 4.49989C 1.50007 2.8428 2.84333 1.50004 4.5 1.50004C 6.15667 1.50004 7.49993 2.8428 7.49993 4.49989C 7.49993 6.15697 6.15667 7.50019 4.5 7.50019Z"/>
</defs>
</svg>
