<svg width="59" height="60" viewBox="0 0 59 60" version="1.1" xmlns="http://www.w3.org/2000/svg" xmlns:xlink="http://www.w3.org/1999/xlink">
<title>Group</title>
<desc>Created using Figma</desc>
<g id="Canvas" transform="translate(-43933 -675)">
<g id="Group">
<g id="Vector">
<use xlink:href="#path0_fill" transform="translate(43972 715.691)" fill="#FFFFFF"/>
</g>
<g id="Vector">
<use xlink:href="#path1_fill" transform="translate(43971 715.386)" fill="#00998F"/>
</g>
<g id="Vector">
<use xlink:href="#path2_fill" transform="translate(43971 715.691)" fill="#0096E6"/>
</g>
<g id="Vector">
<use xlink:href="#path3_fill" transform="translate(43989 715.691)" fill="#0096E6"/>
</g>
<g id="SVGCleanerId 0 3">
<use xlink:href="#path4_fill" transform="translate(43972 708.574)" fill="#FFFFFF"/>
</g>
<g id="SVGCleanerId 1 3">
<use xlink:href="#path5_fill" transform="translate(43971 707.589)" fill="#0096E6"/>
</g>
<g id="Vector">
<use xlink:href="#path6_fill" transform="translate(43972 711.681)" fill="#FFFFFF"/>
</g>
<g id="Vector">
<use xlink:href="#path7_fill" transform="translate(43971 711.388)" fill="#00998F"/>
</g>
<g id="Vector">
<use xlink:href="#path8_fill" transform="translate(43971 711.681)" fill="#0096E6"/>
</g>
<g id="Group">
<g id="Vector">
<use xlink:href="#path9_fill" transform="translate(43989 711.681)" fill="#00998F"/>
</g>
<g id="Vector">
<use xlink:href="#path10_fill" transform="translate(43950 687.987)" fill="#00998F"/>
</g>
</g>
<g id="Group">
<g id="Vector">
<use xlink:href="#path11_fill" transform="translate(43946.1 675)" fill="#00998F"/>
</g>
<g id="Vector">
<use xlink:href="#path12_fill" transform="translate(43962 687.987)" fill="#00998F"/>
</g>
</g>
<g id="Group">
<g id="SVGCleanerId 0 2">
<use xlink:href="#path4_fill" transform="translate(43972 708.574)" fill="#FFFFFF"/>
</g>
</g>
<g id="Group">
<g id="SVGCleanerId 1 2">
<use xlink:href="#path5_fill" transform="translate(43971 707.589)" fill="#00998F"/>
</g>
</g>
<g id="Vector">
<use xlink:href="#path13_fill" transform="translate(43973.1 727.696)" fill="#FFFFFF"/>
</g>
<g id="Vector">
<use xlink:href="#path14_fill" transform="translate(43971.1 727.508)" fill="#00998F"/>
</g>
<g id="Vector">
<use xlink:href="#path15_fill" transform="translate(43972 719.688)" fill="#FFFFFF"/>
</g>
<g id="Vector">
<use xlink:href="#path16_fill" transform="translate(43971 719.372)" fill="#00998F"/>
</g>
<g id="Vector">
<use xlink:href="#path17_fill" transform="translate(43975.6 723.698)" fill="#FFFFFF"/>
</g>
<g id="Vector">
<use xlink:href="#path18_fill" transform="translate(43974.3 723.299)" fill="#00998F"/>
</g>
<g id="Vector">
<use xlink:href="#path19_fill" transform="translate(43934 694.88)" fill="#FFFFFF"/>
</g>
<g id="Vector">
<use xlink:href="#path20_fill" transform="translate(43933 693.954)" fill="#00998F"/>
</g>
<g id="Group">
<g id="Vector">
<use xlink:href="#path21_fill" transform="translate(43961 718.985)" fill="#00998F"/>
</g>
<g id="Vector">
<use xlink:href="#path22_fill" transform="translate(43940.1 700.989)" fill="#00998F"/>
</g>
</g>
</g>
</g>
<defs>
<path id="path0_fill" d="M 8.98977 1.89929C 3.99155 1.89929 -1.42889e-06 0.996542 -1.42889e-06 7.15577e-07L -1.42889e-06 3.99789C -1.42889e-06 5.09995 3.99155 5.89718 8.98977 5.89718C 13.988 5.89718 17.9795 4.99443 17.9795 3.99789L 17.9795 7.15577e-07C 17.9795 0.996542 13.988 1.89929 8.98977 1.89929Z"/>
<path id="path1_fill" d="M 9.98473 7.19855C 0.690621 7.19855 -1.42889e-06 4.99443 -1.42889e-06 4.30272L -1.42889e-06 0.304825L 2.00163 0.304825C 2.00163 0.105517 1.89628 6.66433e-15 1.89628 6.66433e-15C 2.29427 0.398617 5.19721 1.19585 9.98473 1.19585C 14.7723 1.19585 17.6752 0.398617 18.0732 6.66433e-15C 18.0732 6.66433e-15 17.9678 0.105517 17.9678 0.304825L 19.9695 0.304825L 19.9695 4.30272C 19.9812 5.00616 19.2788 7.19855 9.98473 7.19855ZM 2.00163 4.10341C 2.59861 4.50202 5.50155 5.20546 9.99644 5.20546C 14.4913 5.20546 17.3826 4.50202 17.9912 4.10341L 17.9912 2.20411C 16.5983 2.70825 14.0933 3.20066 9.99644 3.20066C 5.89954 3.20066 3.40628 2.80204 2.00163 2.20411L 2.00163 4.10341Z"/>
<path id="path2_fill" d="M 2.00163 6.10352e-06L -1.42889e-06 6.10352e-06L 2.00163 6.10352e-06Z"/>
<path id="path3_fill" d="M 2.00163 6.10352e-06L -7.14443e-07 6.10352e-06L 2.00163 6.10352e-06Z"/>
<path id="path4_fill" d="M 17.9795 3.10686C 17.9795 4.20892 13.988 5.00616 8.98977 5.00616C 3.99155 5.00616 -1.42889e-06 4.10341 -1.42889e-06 3.10686C -1.42889e-06 2.00481 3.99155 -7.15577e-07 8.98977 -7.15577e-07C 13.988 -7.15577e-07 17.9795 2.00481 17.9795 3.10686Z"/>
<path id="path5_fill" d="M 9.98473 6.99924C 0.690621 6.99924 -1.42889e-06 4.79512 -1.42889e-06 4.10341C -1.42889e-06 2.0986 4.99822 0 9.98473 0C 14.9712 0 19.9695 2.0986 19.9695 4.10341C 19.9812 4.79512 19.2788 6.99924 9.98473 6.99924ZM 2.29426 3.99789C 3.28923 4.39651 5.88783 4.99443 9.98473 4.99443C 14.0816 4.99443 16.7739 4.39651 17.6752 3.99789C 16.7739 3.29445 13.8826 1.99308 9.98473 1.99308C 6.08683 1.99308 3.19558 3.29445 2.29426 3.99789Z"/>
<path id="path6_fill" d="M 8.98977 1.89929C 3.99155 1.89929 -1.42889e-06 0.996541 -1.42889e-06 -7.15577e-07L -1.42889e-06 3.99789C -1.42889e-06 5.09995 3.99155 5.89718 8.98977 5.89718C 13.988 5.89718 17.9795 4.99443 17.9795 3.99789L 17.9795 -7.15577e-07C 17.9795 1.00826 13.988 1.89929 8.98977 1.89929Z"/>
<path id="path7_fill" d="M 9.98473 7.19855C 0.690621 7.19855 -1.42889e-06 4.99443 -1.42889e-06 4.30272L -1.42889e-06 0.304824L 2.00163 0.304824C 2.00163 0.105516 1.89628 -7.15577e-07 1.89628 -7.15577e-07C 2.29427 0.398616 5.19721 1.19585 9.98473 1.19585C 14.7723 1.19585 17.6752 0.398616 18.0732 -7.15577e-07C 18.0732 -7.15577e-07 17.9678 0.105516 17.9678 0.304824L 19.9695 0.304824L 19.9695 4.30272C 19.9812 4.99443 19.2788 7.19855 9.98473 7.19855ZM 2.00163 4.10341C 2.59861 4.50202 5.50155 5.20546 9.99644 5.20546C 14.4913 5.20546 17.3826 4.50202 17.9912 4.10341L 17.9912 2.20412C 16.5983 2.70825 14.0933 3.20066 9.99644 3.20066C 5.89954 3.20066 3.40628 2.80204 2.00163 2.20412L 2.00163 4.10341Z"/>
<path id="path8_fill" d="M 2.00163 -6.10352e-06L -1.42889e-06 -6.10352e-06L 2.00163 -6.10352e-06Z"/>
<path id="path9_fill" d="M 2.00163 -6.10352e-06L -7.14443e-07 -6.10352e-06L 2.00163 -6.10352e-06Z"/>
<path id="path10_fill" d="M 12.9813 4.99443L 0.994963 4.99443C 0.397985 4.99443 7.14443e-07 4.59581 7.14443e-07 3.99789C 7.14443e-07 3.39996 0.397985 3.00135 0.994963 3.00135L 12.9813 3.00135C 13.5783 3.00135 13.9763 3.39996 13.9763 3.99789C 13.988 4.58409 13.59 4.99443 12.9813 4.99443ZM 12.9813 1.99308L 0.994963 1.99308C 0.397985 1.99308 7.14443e-07 1.59447 7.14443e-07 0.996542C 7.14443e-07 0.398617 0.397985 3.57789e-07 0.994963 3.57789e-07L 12.9813 3.57789e-07C 13.5783 3.57789e-07 13.9763 0.398617 13.9763 0.996542C 13.9763 1.59447 13.59 1.99308 12.9813 1.99308Z"/>
<path id="path11_fill" d="M 14.1206 11.9784L 6.73451 11.9784C 5.54056 11.9784 4.44025 11.1812 4.04226 9.97361C 3.73792 9.17638 2.14598 6.46813 1.04567 5.57711C 0.249702 4.87367 -0.148282 3.77161 0.0507102 2.77507C 0.249703 1.77853 0.940323 0.969568 1.93528 0.570951C 4.93188 -0.42559 7.62412 -0.13249 9.62575 1.56749C 10.0237 1.87232 10.5271 1.87232 10.8197 1.56749C 12.8213 -0.0386975 15.5136 -0.437314 18.5102 0.570951C 19.5051 0.875776 20.2075 1.67301 20.4065 2.77507C 20.6054 3.87712 20.2075 4.87367 19.4115 5.57711C 18.5102 6.37434 17.2109 8.88328 16.8129 9.97361C 16.4266 11.1695 15.3263 11.9784 14.1206 11.9784ZM 5.13087 1.96611C 4.3349 1.96611 3.43358 2.16542 2.53226 2.47024C 2.13428 2.57576 1.93528 2.86886 1.93528 3.06817C 1.82994 3.37299 2.04063 3.77161 2.23963 3.97092C 3.53893 5.07297 5.43521 8.07432 5.83319 9.27017C 6.03219 9.77431 6.33653 9.97361 6.73451 9.97361L 14.1206 9.97361C 14.5186 9.97361 14.823 9.77431 14.9166 9.37569C 15.221 8.67225 16.5203 5.3778 18.0185 4.07643C 18.3229 3.87712 18.4165 3.47851 18.3229 3.17368C 18.3229 2.97437 18.1239 2.66955 17.7259 2.47024C 15.3263 1.67301 13.43 1.87232 11.9317 3.06817C 10.9368 3.97092 9.43847 3.97092 8.33816 3.06817C 7.43684 2.36473 6.33653 1.96611 5.13087 1.96611Z"/>
<path id="path12_fill" d="M 4.0969 6.19028C 2.90295 6.19028 1.80264 5.79166 0.901318 4.99443C 0.397984 4.88892 0 4.4903 0 3.99789L 0 0.996542C 0 0.398617 0.397985 3.57789e-07 0.994962 3.57789e-07C 1.59194 3.57789e-07 1.98992 0.398617 1.98992 0.996542L 1.98992 3.29445C 3.09023 4.39651 5.09186 4.39651 6.18047 3.29445C 6.57845 2.89583 7.17543 2.89583 7.57342 3.29445C 7.9714 3.69306 7.9714 4.29099 7.57342 4.68961C 6.69551 5.68615 5.3962 6.19028 4.0969 6.19028Z"/>
<path id="path13_fill" d="M 7.88946 1.89929C 5.88783 1.89929 3.99155 1.79377 2.49326 1.50067C 1.98992 2.89583 1.19396 4.1034 1.42889e-06 4.90064C 1.4983 5.49856 4.49488 5.89718 7.79582 5.89718C 12.794 5.89718 16.7856 4.99443 16.7856 3.99789L 16.7856 0C 16.8792 0.996542 12.8877 1.89929 7.88946 1.89929Z"/>
<path id="path14_fill" d="M 9.89109 7.0813C 6.49652 7.0813 3.39458 6.68269 1.69729 6.08476L 7.14443e-07 5.48684L 1.49829 4.38478C 2.49326 3.68134 3.19558 2.6848 3.59357 1.48895L 3.89791 0.691716L 4.69388 0.797235C 6.19218 0.996543 7.99481 1.19585 9.89109 1.19585C 14.6903 1.19585 17.5816 0.398616 17.9795 -7.15577e-07C 17.9795 -7.15577e-07 17.8742 0.105516 17.8742 0.304824L 19.8758 0.304824L 19.8758 4.30271C 19.8875 4.88892 19.1852 7.0813 9.89109 7.0813ZM 4.00326 4.58409C 5.6069 4.88892 7.59683 5.08822 9.89109 5.08822C 14.386 5.08822 17.2772 4.38478 17.8859 3.98616L 17.8859 2.08688C 16.493 2.59101 13.988 3.08342 9.89109 3.08342C 8.1938 3.08342 6.59016 2.9779 5.19721 2.77859C 4.90458 3.48203 4.50659 4.07996 4.00326 4.58409Z"/>
<path id="path15_fill" d="M 8.98977 1.89929C 3.99155 1.89929 -1.42889e-06 0.996543 -1.42889e-06 1.43115e-06L -1.42889e-06 0.996543C 1.80264 1.89929 3.19558 3.49376 3.79256 5.60408C 5.29086 5.80339 7.09349 6.0027 8.98977 6.0027C 13.988 6.0027 17.9795 5.09995 17.9795 4.10341L 17.9795 0.0937921C 17.9795 0.996542 13.988 1.89929 8.98977 1.89929Z"/>
<path id="path16_fill" d="M 9.98473 7.222C 8.08845 7.222 6.19217 7.11648 4.58853 6.82338L 3.99155 6.71786L 3.79256 6.11994C 3.39458 4.41996 2.18892 3.01307 0.596976 2.21584L -1.42889e-06 1.91101L -1.42889e-06 0.304825L 2.00163 0.304825C 2.00163 0.105517 1.89628 0 1.89628 0C 2.29427 0.398617 5.19721 1.19585 9.98473 1.19585C 14.7723 1.19585 17.6752 0.398617 18.0732 0C 18.0732 0 17.9678 0.105517 17.9678 0.304825L 19.9695 0.304825L 19.9695 4.30272C 19.9812 5.01788 19.2788 7.222 9.98473 7.222ZM 5.48985 4.91236C 6.78915 5.11167 8.38109 5.21719 9.98473 5.21719C 14.585 5.21719 17.3709 4.51375 17.9795 4.11513L 17.9795 2.21584C 16.5866 2.71997 14.0816 3.21238 9.98473 3.21238C 7.58512 3.21238 5.79419 3.10686 4.38954 2.81376C 4.89287 3.51721 5.29086 4.22065 5.48985 4.91236Z"/>
<path id="path17_fill" d="M 5.3962 1.88757C 3.39458 1.88757 1.60365 1.78205 0.198994 1.48895C 0.304343 2.08688 0.397984 2.6848 0.397984 3.29445C 0.397984 4.09168 0.292636 4.79512 -6.65377e-15 5.49856C 1.4983 5.69787 3.30093 5.89718 5.3962 5.89718C 10.3944 5.89718 14.386 4.99443 14.386 3.99789L 14.386 -7.15577e-07C 14.386 0.996541 10.3944 1.88757 5.3962 1.88757Z"/>
<path id="path18_fill" d="M 6.6838 7.29234C 4.68217 7.29234 2.78589 7.18682 1.19396 6.89372L -6.65377e-15 6.69441L 0.397984 5.59236C 0.596976 4.99443 0.702326 4.29099 0.702326 3.69307C 0.702326 3.18893 0.596976 2.69653 0.503332 2.19239L 0.105348 0.691716L 1.60365 0.891026C 3.10194 1.09033 4.90458 1.19585 6.69551 1.19585C 11.5884 1.19585 14.386 0.398617 14.784 -6.66433e-15C 14.784 -6.66433e-15 14.6786 0.105517 14.6786 0.304825L 16.6802 0.304825L 16.6802 4.30272C 16.6802 5.08822 15.9779 7.29234 6.6838 7.29234ZM 2.59861 5.08822C 3.89791 5.19374 5.29086 5.28753 6.69551 5.28753C 11.1904 5.28753 14.0816 4.58409 14.6903 4.18548L 14.6903 2.28618C 13.2974 2.79032 10.7924 3.28272 6.69551 3.28272C 5.30256 3.28272 3.89791 3.17721 2.70396 3.08342C 2.70396 3.28272 2.70396 3.48203 2.70396 3.68134C 2.69225 4.1972 2.69225 4.59581 2.59861 5.08822Z"/>
<path id="path19_fill" d="M 28.1081 31.01C 28.5061 28.208 30.8004 25.8046 33.598 25.2066C 35.2016 24.9018 36.6999 25.1011 37.9875 25.7108L 37.9875 16.7067C 37.9875 15.9095 40.5861 14.4088 44.1797 13.8109C 42.8804 11.1144 40.9841 8.60543 38.4909 6.70614L 31.3037 1.8055C 30.0044 0.808957 28.3071 7.15577e-07 26.7035 7.15577e-07L 18.9077 7.15577e-07C 17.2104 7.15577e-07 15.5131 0.597925 14.2138 1.60619L 7.22566 6.70614C 0.331157 12.2047 -2.05675 21.8067 1.9348 29.6149C 3.63209 32.921 5.92635 35.3127 8.63031 35.512C 8.8293 35.512 9.13364 35.512 9.42628 35.512L 29.0095 35.512C 28.2018 34.41 27.8038 32.71 28.1081 31.01Z"/>
<path id="path20_fill" d="M 31.8267 37.6341L 10.3472 37.6341C 10.0428 37.6341 9.84385 37.6341 9.55121 37.6341C 6.65997 37.4348 4.06136 35.1369 2.05973 31.1273C -2.13081 22.9205 0.257096 12.8144 7.54958 7.01096L 14.6431 1.8055C 16.1414 0.60965 18.0376 -3.57789e-07 19.9339 -3.57789e-07L 27.7297 -3.57789e-07C 29.9304 -3.57789e-07 31.8267 1.10206 32.927 2.00481L 40.1141 6.90545C 42.7127 8.91025 44.7143 11.513 46.1073 14.4088L 46.7043 15.6281L 45.405 15.8274C 42.303 16.3316 40.4067 17.4336 40.0087 17.8322L 40.0087 28.2314L 38.6158 27.528C 37.4218 26.9301 36.1225 26.8246 34.8232 27.0239C 32.4236 27.528 30.5273 29.5211 30.1294 31.9245C 29.9304 33.3197 30.2347 34.7265 30.9253 35.9224L 31.8267 37.6341ZM 19.9456 2.02825C 18.4473 2.02825 17.0544 2.53239 15.8487 3.42341L 8.75524 8.62888C 2.16508 13.8343 0.0698096 22.9322 3.75702 30.3418C 5.45431 33.6479 7.45594 35.5472 9.64485 35.641C 9.84385 35.641 10.1482 35.641 10.3472 35.641L 28.4321 35.641C 28.0341 34.4452 27.9287 33.1438 28.1277 31.8424C 28.6311 28.5363 31.1243 25.9453 34.4253 25.2418C 35.6192 24.937 36.9185 25.0425 38.0188 25.3473L 38.0188 17.7384C 38.0188 16.1322 40.8164 14.8426 43.7077 14.1392C 42.5137 11.935 40.9101 10.0358 38.9084 8.53509L 31.7213 3.62272C 30.7263 2.82549 29.228 2.01653 27.6244 2.01653L 19.9456 2.02825Z"/>
<path id="path21_fill" d="M 7.99481 16.015C 3.60527 16.015 -7.14443e-07 12.4157 -7.14443e-07 8.0075C -7.14443e-07 3.59927 3.59357 1.43115e-06 7.99481 1.43115e-06C 12.3961 1.43115e-06 15.9896 3.59927 15.9896 8.0075C 15.9896 12.4157 12.3961 16.015 7.99481 16.015ZM 7.99481 2.00481C 4.69388 2.00481 2.00163 4.70133 2.00163 8.0075C 2.00163 11.3137 4.69388 14.0102 7.99481 14.0102C 11.2957 14.0102 13.988 11.3137 13.988 8.0075C 13.988 4.70133 11.2957 2.00481 7.99481 2.00481Z"/>
<path id="path22_fill" d="M 0.994962 16.0033C 0.397985 16.0033 -8.93054e-08 15.6047 -8.93054e-08 15.0067C -8.93054e-08 8.1013 7.59683 -3.57789e-07 13.988 -3.57789e-07C 14.585 -3.57789e-07 14.983 0.398616 14.983 0.996541C 14.983 1.59447 14.585 1.99308 13.988 1.99308C 8.69714 1.99308 2.00163 9.29715 2.00163 14.995C 1.98992 15.5929 1.59194 16.0033 0.994962 16.0033Z"/>
</defs>
</svg>
