<svg width="60" height="60" viewBox="0 0 60 60" version="1.1" xmlns="http://www.w3.org/2000/svg" xmlns:xlink="http://www.w3.org/1999/xlink">
<title>Vector</title>
<desc>Created using Figma</desc>
<g id="Canvas" transform="translate(-27296 10869)">
<g id="Vector">
<use xlink:href="#path0_fill" transform="translate(27296 -10869)" fill="#231F20"/>
</g>
</g>
<defs>
<path id="path0_fill" d="M 24 40.5C 27.6 40.5 31.5 32.1 31.5 24C 31.5 19.8 28.2 16.5 24 16.5C 19.8 16.5 16.5 19.8 16.5 24C 16.5 32.1 20.4 40.5 24 40.5ZM 9.3 44.4C 7.8 46.2 6.6 48.6 6 50.4C 7.2 50.7 8.4 51.3 9.9 51.6C 14.4 53.1 19.2 54 24 54C 28.8 54 33.6 53.1 38.1 51.9C 39.6 51.6 40.8 51 42 50.7C 41.4 48.9 40.5 46.5 38.7 44.7C 37.2 43.2 35.4 41.7 33.3 40.8C 31.2 44.1 28.2 46.5 24.3 46.5C 20.4 46.5 17.4 44.1 15.3 40.8C 12.6 41.7 10.8 42.9 9.3 44.4ZM 37.5 25.5C 40.2 25.5 43.5 18.6 43.5 11.7C 43.5 8.4 40.8 6 37.5 6C 34.2 6 31.5 8.7 31.5 11.7C 31.5 12 31.5 12.3 31.5 12.6C 35.1 15 37.5 19.2 37.5 23.7C 37.5 24.6 37.5 24.9 37.5 25.5ZM 35.7 35.1C 38.4 36.3 40.8 38.1 42.9 40.2C 45.6 39.9 48.3 39.3 50.7 38.4C 51.9 38.1 53.1 37.5 54 37.2C 53.7 35.1 53.1 32.7 51.6 30.9C 50.1 29.1 48.3 27.6 45.6 26.7C 43.8 29.7 41.1 31.8 37.5 31.8C 37.2 31.8 36.9 31.8 36.6 31.8C 36.3 32.7 36 33.9 35.7 35.1ZM 37.5 0C 44.1 0 49.5 5.4 49.5 11.7C 49.5 14.1 48.9 17.7 48 21C 51.6 22.2 54.3 24.6 56.4 27.3C 58.8 30.9 60 35.1 60 39C 60 40.2 59.4 41.1 58.5 41.7C 57.3 42.3 55.2 43.2 52.5 44.1C 50.4 44.7 48.3 45.3 46.2 45.6C 47.4 48 47.7 50.4 47.7 52.5C 47.7 53.7 47.1 54.6 45.9 55.2C 44.7 55.8 42.3 56.7 39.3 57.6C 34.5 59.1 29.4 60 24 60C 18.6 60 13.5 59.1 8.4 57.6C 5.4 56.7 3 55.8 1.8 55.2C 0.6 54.6 0 53.7 0 52.5C 0 48.9 1.8 44.1 4.8 40.5C 6.9 38.1 9.3 36.3 12.3 35.1C 11.1 31.2 10.5 27 10.5 24C 10.5 16.5 16.5 10.5 24 10.5C 24.6 10.5 24.9 10.5 25.5 10.5C 26.1 4.5 31.2 0 37.5 0Z"/>
</defs>
</svg>
