<svg width="68" height="58" viewBox="0 0 68 58" version="1.1" xmlns="http://www.w3.org/2000/svg" xmlns:xlink="http://www.w3.org/1999/xlink">
<title>Group</title>
<desc>Created using Figma</desc>
<g id="Canvas" transform="translate(-43557 -675)">
<g id="Group">
<g id="Vector">
<use xlink:href="#path0_fill" transform="translate(43590.5 716.861)" fill="#00998F"/>
</g>
<g id="Vector">
<use xlink:href="#path1_fill" transform="translate(43557 675)" fill="#00998F"/>
</g>
<g id="Vector">
<use xlink:href="#path2_fill" transform="translate(43604.5 698.248)" fill="#00998F"/>
</g>
</g>
</g>
<defs>
<path id="path0_fill" d="M 1.08906 8.16113e-07C 0.491405 8.16113e-07 8.10623e-07 0.494733 8.10623e-07 1.09644L 8.10623e-07 3.42303C 8.10623e-07 4.02473 0.491405 4.51946 1.08906 4.51946C 1.68672 4.51946 2.17812 4.02473 2.17812 3.42303L 2.17812 1.09644C 2.17812 0.481361 1.7 8.16113e-07 1.08906 8.16113e-07Z"/>
<path id="path1_fill" d="M 67.3492 26.2434C 66.9242 25.8155 66.3664 25.5882 65.7688 25.5882L 62.993 25.5882C 62.9531 25.5882 62.9398 25.5481 62.9266 25.508C 62.1562 21.7373 60.443 18.1806 57.9727 15.2255C 55.582 12.3641 52.5141 10.1177 49.0875 8.71377C 48.5297 6.37381 47.3742 3.95362 45.0766 2.13514C 42.8453 0.356769 40.6008 0.0224891 40.5078 0.00911791C 40.2023 -0.0309957 39.8836 0.0626027 39.6445 0.263171C 39.4055 0.463739 39.2727 0.771276 39.2727 1.09218L 39.2727 6.97551L 35.3414 6.97551C 34.3719 3.61934 31.2906 1.15904 27.6516 1.15904C 23.9328 1.15904 20.7984 3.72631 19.8953 7.18945C 14.543 7.92487 9.61563 10.5323 5.96328 14.5971C 2.11172 18.8625 0 24.3848 0 30.1612C 0 43.1045 6.68047 53.6276 8.72578 56.5559C 9.36328 57.4518 10.3992 58 11.4883 58L 16.0969 58C 17.9695 58 19.4836 56.4623 19.4836 54.5903L 19.4836 53.0794C 20.6523 53.2666 21.8344 53.3468 23.0164 53.3468L 33.482 53.3468L 33.482 54.577C 33.482 56.4623 35.0094 57.9866 36.8688 57.9866L 41.9289 57.9866C 43.5227 57.9866 44.9172 56.8501 45.2492 55.2856L 45.8203 52.6783C 52.9391 50.94 58.6633 45.9124 61.4789 39.3873L 65.7688 39.3873C 67.0039 39.3873 68 38.3711 68 37.1409L 68 27.8346C 68 27.2329 67.7609 26.6579 67.3492 26.2434ZM 27.6516 3.33855C 30.8789 3.33855 33.4953 5.97267 33.4953 9.22187C 33.4953 10.0509 33.3227 10.8665 32.9906 11.6153L 22.3125 11.6153C 21.9805 10.8665 21.8078 10.0509 21.8078 9.22187C 21.7945 5.98604 24.4242 3.33855 27.6516 3.33855ZM 65.8352 37.1276C 65.8352 37.1677 65.8086 37.1944 65.7688 37.1944L 62.2891 37.1944C 62.8734 35.3358 63.2453 33.3836 63.3516 31.3646C 63.3781 30.7629 62.9266 30.2548 62.3289 30.2147C 61.7312 30.1879 61.2266 30.6425 61.1867 31.2442C 60.7219 40.1495 54.7055 47.7443 46.3383 50.2715L 47.8523 43.158C 47.9719 42.5696 47.6 41.9947 47.0156 41.861C 46.4313 41.7406 45.8602 42.115 45.7273 42.7034L 43.1508 54.8177C 43.0312 55.3792 42.5266 55.7938 41.9555 55.7938L 36.8953 55.7938C 36.218 55.7938 35.6734 55.2455 35.6734 54.5636L 35.6734 49.9104C 35.6734 49.3087 35.182 48.814 34.5844 48.814C 33.9867 48.814 33.4953 49.3087 33.4953 49.9104L 33.4953 51.1406L 23.0297 51.1406C 21.8477 51.1406 20.6523 51.0336 19.4969 50.833L 19.4969 42.9173C 19.4969 42.3156 19.0055 41.8209 18.4078 41.8209C 17.8102 41.8209 17.3187 42.3156 17.3187 42.9173L 17.3187 54.5502C 17.3187 55.2322 16.7742 55.7804 16.0969 55.7804L 11.4883 55.7804C 11.0898 55.7804 10.718 55.5932 10.4922 55.2589C 8.53984 52.4777 2.16484 42.4226 2.16484 30.1211C 2.16484 24.8929 4.07734 19.8921 7.57031 16.0278C 10.7578 12.4844 15.0078 10.1579 19.643 9.3957C 19.6562 10.1445 19.7891 10.8799 20.0016 11.5886L 19.5633 11.5886C 18.9656 11.5886 18.4742 12.0833 18.4742 12.685C 18.4742 13.2867 18.9656 13.7815 19.5633 13.7815L 35.7266 13.7815C 36.3242 13.7815 36.8156 13.2867 36.8156 12.685C 36.8156 12.0833 36.3242 11.6287 35.7266 11.6287L 35.2883 11.6287C 35.5273 10.8532 35.6469 10.0509 35.6469 9.23524C 35.6469 9.2085 35.6469 9.18176 35.6469 9.16839L 39.2594 9.16839L 39.2594 11.5618C 39.2594 12.1635 39.7508 12.6583 40.3484 12.6583C 40.9461 12.6583 41.4375 12.1635 41.4375 11.5618L 41.4375 2.5229C 43.4961 3.3118 47.3609 5.70525 47.3609 12.7251C 47.3609 13.3268 47.8523 13.8216 48.45 13.8216C 49.0477 13.8216 49.5391 13.3268 49.5391 12.7251C 49.5391 12.2571 49.5258 11.7758 49.4859 11.2677C 52.1023 12.5513 54.4398 14.3832 56.3258 16.6295C 58.5703 19.3038 60.1242 22.5262 60.8148 25.9492C 61.0273 27.0056 61.9437 27.7677 63.0062 27.7677L 65.782 27.7677C 65.7953 27.7677 65.8086 27.7677 65.8352 27.7945C 65.8617 27.8212 65.8617 27.8346 65.8617 27.8479L 65.8617 37.1276L 65.8352 37.1276Z"/>
<path id="path2_fill" d="M 4.49218 -8.16113e-07C 2.51327 -8.16113e-07 0.733583 1.21678 0.0695208 3.03526C -0.142979 3.59685 0.149211 4.2253 0.707023 4.43924C 1.26484 4.65318 1.88905 4.35901 2.10155 3.79742C 2.46015 2.83469 3.41639 2.1795 4.50546 2.1795C 5.59452 2.1795 6.55077 2.83469 6.90936 3.79742C 7.06874 4.23867 7.48046 4.50609 7.91874 4.50609C 8.03827 4.50609 8.17108 4.47935 8.29061 4.43924C 8.84843 4.2253 9.14062 3.59685 8.92812 3.03526C 8.25077 1.21678 6.47109 -8.16113e-07 4.49218 -8.16113e-07Z"/>
</defs>
</svg>
