<svg width="20" height="18" viewBox="0 0 20 18" version="1.1" xmlns="http://www.w3.org/2000/svg" xmlns:xlink="http://www.w3.org/1999/xlink">
<title>if_print_326675</title>
<desc>Created using Figma</desc>
<g id="Canvas" transform="translate(-25338 11926)">
<g id="if_print_326675">
<g id="Page 1">
<g id="Core">
<g id="print">
<g id="Shape">
<use xlink:href="#path0_fill" transform="translate(25338 -11926)" fill="#00ABA2"/>
</g>
</g>
</g>
</g>
</g>
</g>
<defs>
<path id="path0_fill" fill-rule="evenodd" d="M 17 5L 3 5C 1.3 5 0 6.3 0 8L 0 14L 4 14L 4 18L 16 18L 16 14L 20 14L 20 8C 20 6.3 18.7 5 17 5ZM 14 16L 6 16L 6 11L 14 11L 14 16ZM 17 9C 16.4 9 16 8.6 16 8C 16 7.4 16.4 7 17 7C 17.6 7 18 7.4 18 8C 18 8.6 17.6 9 17 9ZM 16 0L 4 0L 4 4L 16 4L 16 0Z"/>
</defs>
</svg>
