<svg width="18" height="18" viewBox="0 0 18 18" version="1.1" xmlns="http://www.w3.org/2000/svg" xmlns:xlink="http://www.w3.org/1999/xlink">
<title>Vector</title>
<desc>Created using Figma</desc>
<g id="Canvas" transform="translate(-30144 8925)">
<g id="Vector">
<use xlink:href="#path0_fill" transform="translate(30144 -8925)" fill="#18A29B"/>
</g>
</g>
<defs>
<path id="path0_fill" d="M 13.1484 10.9688C 13.8516 9.8625 14.2641 8.55 14.2641 7.13906C 14.2641 3.19688 11.0719 0 7.13437 0C 3.19219 0 0 3.19688 0 7.13906C 0 11.0813 3.19219 14.2781 7.12969 14.2781C 8.55938 14.2781 9.89062 13.8563 11.0062 13.1344L 11.3297 12.9094L 16.4203 18L 18 16.3922L 12.9141 11.3016L 13.1484 10.9688ZM 11.1281 3.15C 12.1922 4.21406 12.7781 5.62969 12.7781 7.13437C 12.7781 8.63906 12.1922 10.0547 11.1281 11.1188C 10.0641 12.1828 8.64844 12.7687 7.14375 12.7687C 5.63906 12.7687 4.22344 12.1828 3.15937 11.1188C 2.09531 10.0547 1.50937 8.63906 1.50937 7.13437C 1.50937 5.62969 2.09531 4.21406 3.15937 3.15C 4.22344 2.08594 5.63906 1.5 7.14375 1.5C 8.64844 1.5 10.0641 2.08594 11.1281 3.15Z"/>
</defs>
</svg>
