<?xml version="1.0" encoding="utf-8"?>
<!-- Generator: Adobe Illustrator 21.1.0, SVG Export Plug-In . SVG Version: 6.00 Build 0)  -->
<svg version="1.1" id="Layer_1" xmlns="http://www.w3.org/2000/svg" xmlns:xlink="http://www.w3.org/1999/xlink" x="0px" y="0px"
	 viewBox="0 0 149 149" style="enable-background:new 0 0 149 149;" xml:space="preserve">
<style type="text/css">
	.st0{fill:#FFFFFF;}
</style>
<path id="Forma_1" class="st0" d="M112.6,130.5c-1,0-2-0.3-2.8-0.9l-31.4-21.4l-16.9,12.2c-2.2,1.6-5.3,1.1-6.9-1.1
	c-0.4-0.5-0.6-1-0.8-1.6l-8.5-32.1L15.2,74c-2.6-1-3.8-3.9-2.8-6.4c0.5-1.3,1.5-2.3,2.8-2.8l115-45.8c0.5-0.2,1.1-0.4,1.6-0.4
	c0.2,0,0.4,0,0.6,0c1.2,0.1,2.3,0.6,3.2,1.4c0.1,0.1,0.2,0.2,0.3,0.3c0.7,0.8,1.1,1.8,1.2,2.9c0,0.3,0,0.5,0,0.8
	c0,0.2,0,0.4-0.1,0.6l-19.4,102C117,128.8,115,130.5,112.6,130.5z M81.2,98.2l28,19l15.1-79.4L69.7,90.4L81,98.1
	C81.1,98.1,81.1,98.2,81.2,98.2z M57.9,94l3.7,14.2l8.1-5.8l-10.6-7.2C58.6,94.8,58.2,94.4,57.9,94L57.9,94z M30.6,69.2l20.8,8
	c1.5,0.6,2.6,1.8,3,3.4l2.6,10c0.1-1.2,0.6-2.2,1.5-3.1l52-50.1L30.6,69.2z"/>
</svg>
