<svg width="26" height="16" viewBox="0 0 26 16" version="1.1" xmlns="http://www.w3.org/2000/svg" xmlns:xlink="http://www.w3.org/1999/xlink">
<title>VK</title>
<desc>Created using Figma</desc>
<g id="Canvas" transform="translate(-29891 5007)">
<g id="VK">
<use xlink:href="#path0_fill" transform="translate(29892 -5006)" fill="#FFFFFF"/>
<mask id="mask0_outline_out">
<rect id="mask0_outline_inv" fill="white" x="-1" y="-1" width="26" height="16" transform="translate(29892 -5006)"/>
<use xlink:href="#path0_fill" fill="black" transform="translate(29892 -5006)"/>
</mask>
<g mask="url(#mask0_outline_out)">
<use xlink:href="#path1_stroke_2x" transform="translate(29892 -5006)" fill="#FFFFFF"/>
</g>
</g>
</g>
<defs>
<path id="path0_fill" d="M 22.789 14L 19.221 14C 18.622 14 18.06 13.767 17.637 13.344L 15.561 11.268C 15.391 11.098 15.155 11 14.915 11C 14.411 11 14.001 11.41 14.001 11.914L 14.001 12.771C 14.001 13.449 13.45 14 12.772 14L 9.5 14C 7.21 14 3.532 8.856 0.849 4.541C 0.293 3.646 0 2.612 0 1.552L 0 1.297C 0 0.582 0.582 -7.24792e-08 1.297 -7.24792e-08L 4.5 -7.24792e-08C 4.688 -7.24792e-08 4.861 0.106 4.946 0.274C 5.649 1.662 7.631 5.423 8.353 6.146C 8.537 6.329 8.714 6.437 8.826 6.415C 8.892 6.409 8.954 6.367 9 6.324L 9 2.527C 9 1.998 8.794 1.502 8.42 1.128L 8.146 0.854C 8.003 0.711 7.96 0.496 8.038 0.309C 8.115 0.122 8.298 -7.24792e-08 8.5 -7.24792e-08L 12.906 -7.24792e-08C 13.509 -7.24792e-08 14 0.491 14 1.094L 14 6.209C 14.277 6.337 14.773 6.483 15.165 6.13C 15.584 5.75 16.629 3.667 17.825 0.822C 18.035 0.323 18.522 -7.24792e-08 19.066 -7.24792e-08L 22.574 -7.24792e-08C 23.36 -7.24792e-08 24 0.64 24 1.427C 24 2.232 23.723 3.022 23.22 3.651L 20 7.676L 20 8.294L 23.644 11.938C 23.991 12.285 24.094 12.802 23.906 13.255C 23.718 13.707 23.28 14 22.789 14ZM 14.914 10C 15.425 10 15.906 10.199 16.268 10.561L 18.344 12.637C 18.575 12.868 18.895 13 19.221 13L 22.789 13C 22.911 13 22.962 12.919 22.982 12.871C 23.002 12.823 23.023 12.729 22.937 12.643L 19.147 8.853C 19.053 8.76 19 8.633 19 8.5L 19 7.5C 19 7.386 19.039 7.276 19.109 7.187L 22.439 3.025C 22.801 2.574 23 2.006 23 1.427C 23 1.192 22.809 1 22.573 1L 19.065 1C 18.925 1 18.799 1.082 18.746 1.209C 17.808 3.438 16.542 6.23 15.835 6.87C 14.908 7.709 13.713 7.261 13.212 6.908C 13.079 6.816 13 6.663 13 6.5L 13 1.094C 13 1.042 12.958 1 12.906 1L 9.581 1C 9.854 1.457 10 1.981 10 2.527L 10 6.5C 10 6.591 9.976 6.68 9.929 6.757C 9.894 6.816 9.568 7.332 8.952 7.407C 8.512 7.463 8.069 7.276 7.646 6.853C 6.777 5.984 4.779 2.144 4.193 0.999L 1.297 0.999C 1.133 1 1 1.134 1 1.297L 1 1.552C 1 2.426 1.242 3.277 1.699 4.013C 5.145 9.556 8.134 13 9.5 13L 12.771 13C 12.897 13 13 12.897 13 12.771L 13 11.914C 13 10.859 13.859 10 14.914 10Z"/>
<path id="path1_stroke_2x" d="M 17.637 13.344L 17.4249 13.5561L 17.637 13.344ZM 15.561 11.268L 15.7731 11.0559L 15.561 11.268ZM 0.849 4.541L 0.594169 4.69931L 0.594233 4.69941L 0.849 4.541ZM 4.946 0.274L 4.67831 0.409437L 4.67837 0.409551L 4.946 0.274ZM 8.353 6.146L 8.14072 6.35799L 8.14145 6.35871L 8.353 6.146ZM 8.826 6.415L 8.79884 6.11623L 8.78339 6.11764L 8.76818 6.12063L 8.826 6.415ZM 9 6.324L 9.20487 6.54316L 9.3 6.45423L 9.3 6.324L 9 6.324ZM 8.42 1.128L 8.63213 0.915868L 8.42 1.128ZM 8.146 0.854L 7.93387 1.06613L 8.146 0.854ZM 8.038 0.309L 8.31488 0.424491L 8.3154 0.423225L 8.038 0.309ZM 14 6.209L 13.7 6.209L 13.7 6.40085L 13.8742 6.48133L 14 6.209ZM 15.165 6.13L 15.3658 6.35293L 15.3665 6.35222L 15.165 6.13ZM 17.825 0.822L 17.5485 0.705632L 17.5484 0.705739L 17.825 0.822ZM 23.22 3.651L 23.4543 3.83841L 23.4543 3.83836L 23.22 3.651ZM 20 7.676L 19.7657 7.48859L 19.7 7.57077L 19.7 7.676L 20 7.676ZM 20 8.294L 19.7 8.294L 19.7 8.41826L 19.7879 8.50613L 20 8.294ZM 23.906 13.255L 24.183 13.3702L 24.1831 13.37L 23.906 13.255ZM 22.937 12.643L 23.1491 12.4309L 22.937 12.643ZM 19.147 8.853L 19.3591 8.64086L 19.358 8.63974L 19.147 8.853ZM 19.109 7.187L 18.8747 6.99957L 18.8732 7.00154L 19.109 7.187ZM 22.439 3.025L 22.205 2.83721L 22.2048 2.83758L 22.439 3.025ZM 18.746 1.209L 19.0225 1.32536L 19.0229 1.32454L 18.746 1.209ZM 15.835 6.87L 16.0363 7.09243L 16.0363 7.09241L 15.835 6.87ZM 13.212 6.908L 13.3848 6.66275L 13.3827 6.66128L 13.212 6.908ZM 9.581 1L 9.581 0.7L 9.05234 0.7L 9.32345 1.15385L 9.581 1ZM 9.929 6.757L 9.67291 6.60069L 9.67098 6.60394L 9.929 6.757ZM 8.952 7.407L 8.91574 7.10919L 8.91412 7.1094L 8.952 7.407ZM 4.193 0.999L 4.46006 0.862323L 4.37647 0.699L 4.193 0.699L 4.193 0.999ZM 1.297 0.999L 1.297 0.698994L 1.29517 0.699006L 1.297 0.999ZM 1.699 4.013L 1.44413 4.17125L 1.44422 4.17139L 1.699 4.013ZM 22.789 13.7L 19.221 13.7L 19.221 14.3L 22.789 14.3L 22.789 13.7ZM 19.221 13.7C 18.7016 13.7 18.2159 13.4986 17.8491 13.1319L 17.4249 13.5561C 17.9041 14.0354 18.5424 14.3 19.221 14.3L 19.221 13.7ZM 17.8491 13.1319L 15.7731 11.0559L 15.3489 11.4801L 17.4249 13.5561L 17.8491 13.1319ZM 15.7731 11.0559C 15.5471 10.8298 15.2348 10.7 14.915 10.7L 14.915 11.3C 15.0752 11.3 15.2349 11.3662 15.3489 11.4801L 15.7731 11.0559ZM 14.915 10.7C 14.2453 10.7 13.701 11.2443 13.701 11.914L 14.301 11.914C 14.301 11.5757 14.5767 11.3 14.915 11.3L 14.915 10.7ZM 13.701 11.914L 13.701 12.771L 14.301 12.771L 14.301 11.914L 13.701 11.914ZM 13.701 12.771C 13.701 13.2833 13.2843 13.7 12.772 13.7L 12.772 14.3C 13.6157 14.3 14.301 13.6147 14.301 12.771L 13.701 12.771ZM 12.772 13.7L 9.5 13.7L 9.5 14.3L 12.772 14.3L 12.772 13.7ZM 9.5 13.7C 9.03019 13.7 8.43785 13.4304 7.74333 12.8918C 7.05053 12.3554 6.3146 11.5997 5.5511 10.6951C 4.02019 8.88251 2.4424 6.53556 1.10377 4.38259L 0.594233 4.69941C 1.9386 6.86144 3.54131 9.24399 5.09265 11.0822C 5.87027 12.0029 6.65091 12.8029 7.37563 13.3659C 8.09865 13.9266 8.82481 14.3 9.5 14.3L 9.5 13.7ZM 1.10383 4.38269C 0.567413 3.52477 0.297145 2.57071 0.3 1.552L -0.3 1.552C -0.297145 2.65329 0.0185868 3.76723 0.594169 4.69931L 1.10383 4.38269ZM 0.3 1.552L 0.3 1.297L -0.3 1.297L -0.3 1.552L 0.3 1.552ZM 0.3 1.297C 0.3 0.747685 0.747685 0.3 1.297 0.3L 1.297 -0.3C 0.416315 -0.3 -0.3 0.416314 -0.3 1.297L 0.3 1.297ZM 1.297 0.3L 4.5 0.3L 4.5 -0.3L 1.297 -0.3L 1.297 0.3ZM 4.5 0.3C 4.57518 0.3 4.64451 0.342634 4.67831 0.409437L 5.21369 0.138563C 5.07749 -0.130634 4.80082 -0.3 4.5 -0.3L 4.5 0.3ZM 4.67837 0.409551C 5.03068 1.10513 5.70481 2.39786 6.38056 3.60584C 6.71854 4.20998 7.05973 4.79771 7.36073 5.278C 7.65714 5.7509 7.93285 6.14982 8.14072 6.35799L 8.56528 5.93402C 8.41215 5.78068 8.16936 5.43835 7.86912 4.95934C 7.57346 4.48773 7.23983 3.9129 6.90419 3.31291C 6.23269 2.11265 5.56432 0.830867 5.21363 0.13845L 4.67837 0.409551ZM 8.14145 6.35871C 8.24481 6.46094 8.36536 6.55751 8.46598 6.61688C 8.5646 6.67408 8.71775 6.742 8.88382 6.70937L 8.76818 6.12063C 8.79959 6.11446 8.81698 6.1206 8.81183 6.11916C 8.80746 6.11793 8.79265 6.11274 8.76702 6.09787C 8.71521 6.06782 8.64531 6.01361 8.56455 5.93329L 8.14145 6.35871ZM 8.85316 6.71377C 9.0191 6.69868 9.14233 6.60162 9.20487 6.54316L 8.79513 6.10484C 8.7903 6.10936 8.78571 6.11322 8.78161 6.11633C 8.77747 6.11946 8.7746 6.12124 8.77321 6.12202C 8.77178 6.12283 8.77295 6.122 8.77676 6.12069C 8.78063 6.11935 8.78815 6.1172 8.79884 6.11623L 8.85316 6.71377ZM 9.3 6.324L 9.3 2.527L 8.7 2.527L 8.7 6.324L 9.3 6.324ZM 9.3 2.527C 9.3 1.91823 9.06225 1.34598 8.63213 0.915868L 8.20787 1.34013C 8.52575 1.65802 8.7 2.07777 8.7 2.527L 9.3 2.527ZM 8.63213 0.915868L 8.35813 0.641868L 7.93387 1.06613L 8.20787 1.34013L 8.63213 0.915868ZM 8.35813 0.641868C 8.30078 0.584512 8.28388 0.498802 8.31488 0.42449L 7.76112 0.19351C 7.63612 0.493198 7.70522 0.837488 7.93387 1.06613L 8.35813 0.641868ZM 8.3154 0.423225C 8.34593 0.349089 8.41908 0.3 8.5 0.3L 8.5 -0.3C 8.17692 -0.3 7.88407 -0.105089 7.7606 0.194775L 8.3154 0.423225ZM 8.5 0.3L 12.906 0.3L 12.906 -0.3L 8.5 -0.3L 8.5 0.3ZM 12.906 0.3C 13.3433 0.3 13.7 0.656685 13.7 1.094L 14.3 1.094C 14.3 0.325314 13.6747 -0.3 12.906 -0.3L 12.906 0.3ZM 13.7 1.094L 13.7 6.209L 14.3 6.209L 14.3 1.094L 13.7 1.094ZM 13.8742 6.48133C 14.1659 6.61612 14.8269 6.83814 15.3658 6.35293L 14.9642 5.90707C 14.7191 6.12786 14.3881 6.05788 14.1258 5.93667L 13.8742 6.48133ZM 15.3665 6.35222C 15.5082 6.22376 15.672 5.986 15.8466 5.69453C 16.0256 5.39545 16.2383 5.00067 16.4718 4.53481C 16.9374 3.60584 17.5019 2.36474 18.1016 0.938261L 17.5484 0.705739C 16.9522 2.12426 16.3961 3.34716 15.9354 4.26593C 15.7059 4.72396 15.504 5.09899 15.3318 5.38625C 15.1552 5.68113 15.0313 5.84624 14.9635 5.90778L 15.3665 6.35222ZM 18.1015 0.938368C 18.2645 0.551095 18.6422 0.3 19.066 0.3L 19.066 -0.3C 18.4018 -0.3 17.8055 0.0949049 17.5485 0.705632L 18.1015 0.938368ZM 19.066 0.3L 22.574 0.3L 22.574 -0.3L 19.066 -0.3L 19.066 0.3ZM 22.574 0.3C 23.1942 0.3 23.7 0.805549 23.7 1.427L 24.3 1.427C 24.3 0.474451 23.5258 -0.3 22.574 -0.3L 22.574 0.3ZM 23.7 1.427C 23.7043 2.18165 23.4606 2.87662 22.9857 3.46364L 23.4543 3.83836C 23.9854 3.16738 24.2957 2.28235 24.3 1.427L 23.7 1.427ZM 22.9857 3.46359L 19.7657 7.48859L 20.2343 7.86341L 23.4543 3.83841L 22.9857 3.46359ZM 19.7 7.676L 19.7 8.294L 20.3 8.294L 20.3 7.676L 19.7 7.676ZM 19.7879 8.50613L 23.4319 12.1501L 23.8561 11.7259L 20.2121 8.08187L 19.7879 8.50613ZM 23.4319 12.1501C 23.6932 12.4114 23.7703 12.7993 23.6289 13.14L 24.1831 13.37C 24.4177 12.8047 24.2888 12.1586 23.8561 11.7259L 23.4319 12.1501ZM 23.629 13.1398C 23.4875 13.48 23.1587 13.7 22.789 13.7L 22.789 14.3C 23.4013 14.3 23.9485 13.934 24.183 13.3702L 23.629 13.1398ZM 14.914 10.3C 15.3455 10.3 15.7501 10.4674 16.0559 10.7731L 16.4801 10.3489C 16.0619 9.9306 15.5045 9.7 14.914 9.7L 14.914 10.3ZM 16.0559 10.7731L 18.1319 12.8491L 18.5561 12.4249L 16.4801 10.3489L 16.0559 10.7731ZM 18.1319 12.8491C 18.4193 13.1366 18.8157 13.3 19.221 13.3L 19.221 12.7C 18.9743 12.7 18.7307 12.5994 18.5561 12.4249L 18.1319 12.8491ZM 19.221 13.3L 22.789 13.3L 22.789 12.7L 19.221 12.7L 19.221 13.3ZM 22.789 13.3C 23.0855 13.3 23.217 13.0869 23.2589 12.9864L 22.7051 12.7556C 22.7057 12.754 22.7111 12.7407 22.7281 12.7261C 22.7375 12.718 22.7492 12.7107 22.7625 12.7057C 22.7758 12.7007 22.7856 12.7 22.789 12.7L 22.789 13.3ZM 23.2589 12.9864C 23.3013 12.8846 23.3584 12.6402 23.1491 12.4309L 22.7249 12.8551C 22.7222 12.8525 22.7157 12.8449 22.7099 12.832C 22.704 12.8191 22.701 12.8057 22.7001 12.7935C 22.6984 12.7716 22.7039 12.7585 22.7051 12.7556L 23.2589 12.9864ZM 23.1491 12.4309L 19.3591 8.64087L 18.9349 9.06513L 22.7249 12.8551L 23.1491 12.4309ZM 19.358 8.63974C 19.3211 8.60326 19.3 8.55313 19.3 8.5L 18.7 8.5C 18.7 8.71287 18.7849 8.91673 18.936 9.06626L 19.358 8.63974ZM 19.3 8.5L 19.3 7.5L 18.7 7.5L 18.7 8.5L 19.3 8.5ZM 19.3 7.5C 19.2957 7.43686 19.3018 7.42077 19.3448 7.37246L 18.8732 7.00154C 18.7762 7.13123 18.7043 7.33514 18.7 7.5L 19.3 7.5ZM 19.3432 7.37442L 22.6732 3.21242L 22.2048 2.83758L 18.8748 6.99958L 19.3432 7.37442ZM 22.673 3.21279C 23.0633 2.71958 23.2958 2.05631 23.3 1.427L 22.7 1.427C 22.7042 1.95569 22.5387 2.42842 22.205 2.83721L 22.673 3.21279ZM 23.3 1.427C 23.3 1.02677 22.9751 0.7 22.573 0.7L 22.573 1.3C 22.6429 1.3 22.7 1.35723 22.7 1.427L 23.3 1.427ZM 22.573 0.7L 19.065 0.7L 19.065 1.3L 22.573 1.3L 22.573 0.7ZM 19.065 0.7C 18.8081 0.7 18.5703 0.850964 18.4691 1.09346L 19.0229 1.32454C 19.0277 1.31304 19.0419 1.3 19.065 1.3L 19.065 0.7ZM 18.4695 1.09264C 18.0014 2.20502 17.4541 3.45198 16.9349 4.50247C 16.6758 5.02694 16.4279 5.49464 16.1992 5.87417C 15.9678 6.25852 15.7751 6.51956 15.6337 6.64759L 16.0363 7.09241C 16.2484 6.90044 16.4791 6.57248 16.7132 6.18367C 16.9501 5.79005 17.2098 5.30043 17.4728 4.76828C 17.9979 3.70552 18.5526 2.44198 19.0225 1.32536L 18.4695 1.09264ZM 15.6337 6.64757C 15.246 6.9985 14.8061 7.08178 14.3958 7.03772C 13.9677 6.99595 13.6135 6.82528 13.3848 6.66276L 13.0392 7.15324C 13.3115 7.34372 13.8053 7.57355 14.3317 7.63429C 14.8759 7.69272 15.497 7.5805 16.0363 7.09243L 15.6337 6.64757ZM 13.3827 6.66128C 13.3323 6.62641 13.3 6.56647 13.3 6.5L 12.7 6.5C 12.7 6.75953 12.8257 7.00559 13.0413 7.15473L 13.3827 6.66128ZM 13.3 6.5L 13.3 1.094L 12.7 1.094L 12.7 6.5L 13.3 6.5ZM 13.3 1.094C 13.3 0.876314 13.1237 0.7 12.906 0.7L 12.906 1.3C 12.7923 1.3 12.7 1.20769 12.7 1.094L 13.3 1.094ZM 12.906 0.7L 9.581 0.7L 9.581 1.3L 12.906 1.3L 12.906 0.7ZM 9.32345 1.15385C 9.57828 1.57524 9.70276 2.02163 9.7 2.527L 10.3 2.527C 10.2972 1.94037 10.1297 1.33876 9.83855 0.846149L 9.32345 1.15385ZM 9.7 2.527L 9.7 6.5L 10.3 6.5L 10.3 2.527L 9.7 2.527ZM 9.7 6.5C 9.7026 6.5516 9.70035 6.5616 9.67293 6.6007L 10.1851 6.9133C 10.2516 6.7984 10.2974 6.6304 10.3 6.5L 9.7 6.5ZM 9.67098 6.60394C 9.64378 6.6498 9.38284 7.05233 8.91574 7.1092L 8.98826 7.7048C 9.75316 7.61167 10.1442 6.9822 10.187 6.91006L 9.67098 6.60394ZM 8.91412 7.1094C 8.5954 7.14996 8.23959 7.02233 7.85813 6.64087L 7.43387 7.06513C 7.89841 7.52967 8.42859 7.77604 8.98988 7.7046L 8.91412 7.1094ZM 7.85813 6.64087C 7.66664 6.44938 7.39423 6.07205 7.07527 5.5715C 6.7596 5.07622 6.41428 4.48609 6.07487 3.88246C 5.39596 2.67518 4.7527 1.43413 4.46006 0.862323L 3.92594 1.13568C 4.2193 1.70887 4.86804 2.96032 5.55188 4.17654C 5.89385 4.78466 6.24759 5.38903 6.56927 5.89394C 6.88765 6.39357 7.19086 6.82212 7.43387 7.06513L 7.85813 6.64087ZM 4.193 0.699L 1.297 0.699L 1.297 1.299L 4.193 1.299L 4.193 0.699ZM 1.29517 0.699006C 0.966614 0.701009 0.7 0.968617 0.7 1.297L 1.3 1.297C 1.3 1.29867 1.29906 1.29946 1.29962 1.29889C 1.29988 1.29863 1.3 1.29863 1.29973 1.29874C 1.29925 1.29895 1.29876 1.29899 1.29883 1.29899L 1.29517 0.699006ZM 0.7 1.297L 0.7 1.552L 1.3 1.552L 1.3 1.297L 0.7 1.297ZM 0.7 1.552C 0.702874 2.46743 0.96763 3.39833 1.44413 4.17125L 1.95387 3.85475C 1.51637 3.15567 1.29713 2.38457 1.3 1.552L 0.7 1.552ZM 1.44422 4.17139C 3.17252 6.95111 4.79525 9.2171 6.15294 10.7818C 6.83487 11.5671 7.4652 12.1911 8.00515 12.612C 8.53879 13.0273 9.05107 13.3 9.5 13.3L 9.5 12.7C 9.26593 12.7 8.89233 12.5422 8.37366 12.1385C 7.8613 11.7404 7.27288 11.157 6.60606 10.3885C 5.26625 8.8454 3.67148 6.61789 1.95378 3.85461L 1.44422 4.17139ZM 9.5 13.3L 12.771 13.3L 12.771 12.7L 9.5 12.7L 9.5 13.3ZM 12.771 13.3C 13.0627 13.3 13.3 13.0627 13.3 12.771L 12.7 12.771C 12.7 12.7313 12.7313 12.7 12.771 12.7L 12.771 13.3ZM 13.3 12.771L 13.3 11.914L 12.7 11.914L 12.7 12.771L 13.3 12.771ZM 13.3 11.914C 13.3 11.0247 14.0247 10.3 14.914 10.3L 14.914 9.7C 13.6933 9.7 12.7 10.6933 12.7 11.914L 13.3 11.914Z"/>
</defs>
</svg>
