<svg width="131" height="112" viewBox="0 0 131 112" version="1.1" xmlns="http://www.w3.org/2000/svg" xmlns:xlink="http://www.w3.org/1999/xlink">
<title>Group</title>
<desc>Created using Figma</desc>
<g id="Canvas" transform="translate(-39882 -1121)">
<g id="Group">
<g id="Vector">
<use xlink:href="#path0_stroke" transform="translate(39994.9 1122)" fill="#18A29B"/>
</g>
<g id="Vector">
<use xlink:href="#path1_stroke" transform="translate(39883 1232.4)" fill="#18A29B"/>
</g>
<g id="Vector">
<use xlink:href="#path2_stroke" transform="translate(39901.3 1197.7)" fill="#18A29B"/>
</g>
<g id="Vector">
<use xlink:href="#path3_stroke" transform="translate(39922.7 1184.4)" fill="#18A29B"/>
</g>
<g id="Vector">
<use xlink:href="#path4_stroke" transform="translate(39944.3 1167.6)" fill="#18A29B"/>
</g>
<g id="Vector">
<use xlink:href="#path5_stroke" transform="translate(39965.7 1150.1)" fill="#18A29B"/>
</g>
<g id="Vector">
<use xlink:href="#path6_stroke" transform="translate(39987.3 1131.8)" fill="#18A29B"/>
</g>
<g id="Vector">
<use xlink:href="#path7_stroke" transform="translate(39888.3 1124.7)" fill="#18A29B"/>
</g>
</g>
</g>
<defs>
<path id="path0_stroke" d="M 0.115812 -0.486403C -0.152821 -0.550363 -0.422441 -0.384443 -0.486402 -0.11581C -0.550362 0.152823 -0.384442 0.422443 -0.115809 0.486403L 0.115812 -0.486403ZM 10.5 2.5L 10.9864 2.61581C 11.0171 2.48681 10.9953 2.35089 10.9258 2.23795C 10.8563 2.12501 10.7448 2.04431 10.6158 2.0136L 10.5 2.5ZM 7.5136 12.8842C 7.44964 13.1528 7.61556 13.4224 7.88419 13.4864C 8.15282 13.5504 8.42244 13.3844 8.48641 13.1158L 7.5136 12.8842ZM -0.115809 0.486403L 10.3842 2.9864L 10.6158 2.0136L 0.115812 -0.486403L -0.115809 0.486403ZM 10.0136 2.38419L 7.5136 12.8842L 8.48641 13.1158L 10.9864 2.61581L 10.0136 2.38419Z"/>
<path id="path1_stroke" d="M 0 -0.499998C -0.276142 -0.499998 -0.5 -0.276141 -0.5 1.52588e-06C -0.5 0.276144 -0.276142 0.500002 0 0.500002L 0 -0.499998ZM 129.5 0.500002C 129.776 0.500002 130 0.276144 130 1.52588e-06C 130 -0.276141 129.776 -0.499998 129.5 -0.499998L 129.5 0.500002ZM 0 0.500002L 129.5 0.500002L 129.5 -0.499998L 0 -0.499998L 0 0.500002Z"/>
<path id="path2_stroke" d="M 7 -3.05176e-06L 7.5 -3.05176e-06C 7.5 -0.165915 7.4177 -0.321022 7.28031 -0.414037C 7.14293 -0.507052 6.96835 -0.52586 6.8143 -0.464241L 7 -3.05176e-06ZM -7.62939e-07 2.8L -0.185696 2.33576C -0.375525 2.41169 -0.500001 2.59555 -0.500001 2.8L -7.62939e-07 2.8ZM -7.62939e-07 34.7L -0.500001 34.7C -0.500001 34.9761 -0.276143 35.2 -7.62939e-07 35.2L -7.62939e-07 34.7ZM 7 34.7L 7 35.2C 7.27614 35.2 7.5 34.9761 7.5 34.7L 7 34.7ZM 6.8143 -0.464241L -0.185696 2.33576L 0.185695 3.26424L 7.18569 0.464235L 6.8143 -0.464241ZM -0.500001 2.8L -0.500001 34.7L 0.499999 34.7L 0.499999 2.8L -0.500001 2.8ZM -7.62939e-07 35.2L 7 35.2L 7 34.2L -7.62939e-07 34.2L -7.62939e-07 35.2ZM 7.5 34.7L 7.5 -3.05176e-06L 6.5 -3.05176e-06L 6.5 34.7L 7.5 34.7Z"/>
<path id="path3_stroke" d="M 7 1.52588e-06L 7.5 1.52588e-06C 7.5 -0.181068 7.40211 -0.347989 7.24408 -0.436378C 7.08605 -0.524767 6.89258 -0.520812 6.73829 -0.426037L 7 1.52588e-06ZM 7.62939e-07 4.3L -0.261708 3.87396C -0.409775 3.96491 -0.499999 4.12622 -0.499999 4.3L 7.62939e-07 4.3ZM 7.62939e-07 48L -0.499999 48C -0.499999 48.2761 -0.276142 48.5 7.62939e-07 48.5L 7.62939e-07 48ZM 7 48L 7 48.5C 7.27614 48.5 7.5 48.2761 7.5 48L 7 48ZM 6.73829 -0.426037L -0.261708 3.87396L 0.26171 4.72604L 7.26171 0.42604L 6.73829 -0.426037ZM -0.499999 4.3L -0.499999 48L 0.500001 48L 0.500001 4.3L -0.499999 4.3ZM 7.62939e-07 48.5L 7 48.5L 7 47.5L 7.62939e-07 47.5L 7.62939e-07 48.5ZM 7.5 48L 7.5 1.52588e-06L 6.5 1.52588e-06L 6.5 48L 7.5 48Z"/>
<path id="path4_stroke" d="M 7 -1.52588e-06L 7.5 -1.52588e-06C 7.5 -0.191413 7.39073 -0.366026 7.21857 -0.449699C 7.04642 -0.533372 6.8416 -0.511419 6.69109 -0.393161L 7 -1.52588e-06ZM -7.62939e-07 5.5L -0.308911 5.10684C -0.429557 5.20163 -0.500001 5.34657 -0.500001 5.5L -7.62939e-07 5.5ZM -7.62939e-07 64.8L -0.500001 64.8C -0.500001 65.0761 -0.276143 65.3 -7.62939e-07 65.3L -7.62939e-07 64.8ZM 7 64.8L 7 65.3C 7.27615 65.3 7.5 65.0761 7.5 64.8L 7 64.8ZM 6.69109 -0.393161L -0.308911 5.10684L 0.30891 5.89316L 7.30891 0.393158L 6.69109 -0.393161ZM -0.500001 5.5L -0.500001 64.8L 0.499999 64.8L 0.499999 5.5L -0.500001 5.5ZM -7.62939e-07 65.3L 7 65.3L 7 64.3L -7.62939e-07 64.3L -7.62939e-07 65.3ZM 7.5 64.8L 7.5 -1.52588e-06L 6.5 -1.52588e-06L 6.5 64.8L 7.5 64.8Z"/>
<path id="path5_stroke" d="M 7 3.8147e-07L 7.5 3.8147e-07C 7.5 -0.192983 7.38894 -0.368739 7.21464 -0.451584C 7.04034 -0.534429 6.83393 -0.509573 6.68428 -0.387718L 7 3.8147e-07ZM -3.05176e-06 5.7L -0.315716 5.31228C -0.432323 5.40723 -0.500003 5.54962 -0.500003 5.7L -3.05176e-06 5.7ZM -3.05176e-06 82.3L -0.500003 82.3C -0.500003 82.5761 -0.276145 82.8 -3.05176e-06 82.8L -3.05176e-06 82.3ZM 7 82.3L 7 82.8C 7.27614 82.8 7.5 82.5761 7.5 82.3L 7 82.3ZM 6.68428 -0.387718L -0.315716 5.31228L 0.31571 6.08772L 7.31571 0.387718L 6.68428 -0.387718ZM -0.500003 5.7L -0.500003 82.3L 0.499997 82.3L 0.499997 5.7L -0.500003 5.7ZM -3.05176e-06 82.8L 7 82.8L 7 81.8L -3.05176e-06 81.8L -3.05176e-06 82.8ZM 7.5 82.3L 7.5 3.8147e-07L 6.5 3.8147e-07L 6.5 82.3L 7.5 82.3Z"/>
<path id="path6_stroke" d="M 7 1.90735e-07L 7.5 1.90735e-07C 7.5 -0.195265 7.38633 -0.372663 7.20893 -0.454256C 7.03153 -0.535849 6.82286 -0.506705 6.67461 -0.379628L 7 1.90735e-07ZM 3.05176e-06 6L -0.325393 5.62037C -0.436216 5.71536 -0.499997 5.85404 -0.499997 6L 3.05176e-06 6ZM 3.05176e-06 100.6L -0.499997 100.6C -0.499997 100.876 -0.276139 101.1 3.05176e-06 101.1L 3.05176e-06 100.6ZM 7 100.6L 7 101.1C 7.27615 101.1 7.5 100.876 7.5 100.6L 7 100.6ZM 6.67461 -0.379628L -0.325393 5.62037L 0.325399 6.37963L 7.3254 0.379629L 6.67461 -0.379628ZM -0.499997 6L -0.499997 100.6L 0.500003 100.6L 0.500003 6L -0.499997 6ZM 3.05176e-06 101.1L 7 101.1L 7 100.1L 3.05176e-06 100.1L 3.05176e-06 101.1ZM 7.5 100.6L 7.5 1.90735e-07L 6.5 1.90735e-07L 6.5 100.6L 7.5 100.6Z"/>
<path id="path7_stroke" d="M -0.183689 80.435C -0.440521 80.5364 -0.566484 80.8269 -0.465036 81.0837C -0.363587 81.3405 -0.0731428 81.4665 0.183689 81.365L -0.183689 80.435ZM 20 73L 20.1837 73.465C 20.2116 73.454 20.2384 73.4405 20.2639 73.4247L 20 73ZM 41.4 59.7L 41.6639 60.1247C 41.6788 60.1154 41.6932 60.1054 41.707 60.0947L 41.4 59.7ZM 63 42.9L 63.3071 43.2948L 63.3165 43.2871L 63 42.9ZM 84.4 25.4L 84.7166 25.7871L 84.7232 25.7815L 84.4 25.4ZM 106 7.1L 105.725 6.6822C 105.708 6.69331 105.692 6.70543 105.677 6.71851L 106 7.1ZM 117.075 0.417802C 117.305 0.266108 117.369 -0.0439205 117.218 -0.274666C 117.066 -0.505412 116.756 -0.569496 116.525 -0.417802L 117.075 0.417802ZM 0.183689 81.365L 20.1837 73.465L 19.8163 72.535L -0.183689 80.435L 0.183689 81.365ZM 20.2639 73.4247L 41.6639 60.1247L 41.1361 59.2753L 19.7361 72.5753L 20.2639 73.4247ZM 41.707 60.0947L 63.307 43.2947L 62.693 42.5053L 41.093 59.3053L 41.707 60.0947ZM 63.3165 43.2871L 84.7165 25.7871L 84.0835 25.0129L 62.6835 42.5129L 63.3165 43.2871ZM 84.7232 25.7815L 106.323 7.48149L 105.677 6.71851L 84.0768 25.0185L 84.7232 25.7815ZM 106.275 7.5178L 117.075 0.417802L 116.525 -0.417802L 105.725 6.6822L 106.275 7.5178Z"/>
</defs>
</svg>
