<svg width="116" height="105" viewBox="0 0 116 105" version="1.1" xmlns="http://www.w3.org/2000/svg" xmlns:xlink="http://www.w3.org/1999/xlink">
<title>Group 3</title>
<desc>Created using Figma</desc>
<g id="Canvas" transform="translate(-39021 -1139)">
<g id="Group 3">
<g id="Group">
<g id="Vector">
<use xlink:href="#path0_stroke" transform="translate(39044 1141)" fill="#18A29B"/>
</g>
<g id="Vector">
<use xlink:href="#path0_stroke" transform="translate(39044 1200.12)" fill="#18A29B"/>
</g>
<g id="Vector">
<use xlink:href="#path1_stroke" transform="translate(39069.4 1238)" fill="#18A29B"/>
</g>
<g id="Vector">
<use xlink:href="#path2_stroke" transform="translate(39044 1149.05)" fill="#18A29B"/>
</g>
<g id="Vector">
<use xlink:href="#path3_stroke" transform="translate(39090 1208.18)" fill="#18A29B"/>
</g>
<g id="Vector">
<use xlink:href="#path4_fill" transform="matrix(0.708231 0.705981 -0.708231 0.705981 39071.9 1162.47)" fill="#FFFFFF"/>
<use xlink:href="#path5_stroke" transform="matrix(0.708231 0.705981 -0.708231 0.705981 39071.9 1162.47)" fill="#18A29B"/>
</g>
<g id="Vector">
<use xlink:href="#path6_fill" transform="matrix(0.708231 0.705981 -0.708231 0.705981 39025.8 1208.41)" fill="#FFFFFF"/>
<use xlink:href="#path7_stroke" transform="matrix(0.708231 0.705981 -0.708231 0.705981 39025.8 1208.41)" fill="#18A29B"/>
</g>
</g>
<g id="Group">
<g id="Vector">
<use xlink:href="#path8_stroke" transform="translate(39106 1140)" fill="#18A29B"/>
</g>
<g id="Vector">
<use xlink:href="#path9_stroke" transform="translate(39106 1152.61)" fill="#18A29B"/>
</g>
<g id="Vector">
<use xlink:href="#path10_stroke" transform="translate(39081 1152.61)" fill="#18A29B"/>
</g>
<g id="Vector">
<use xlink:href="#path11_stroke" transform="translate(39106 1165.21)" fill="#18A29B"/>
</g>
<g id="Vector">
<use xlink:href="#path12_stroke" transform="translate(39102 1155.89)" fill="#18A29B"/>
</g>
<g id="Vector">
<use xlink:href="#path13_stroke" transform="translate(39116.5 1146.82)" fill="#18A29B"/>
</g>
<g id="Vector">
<use xlink:href="#path14_stroke" transform="translate(39116.5 1159.39)" fill="#18A29B"/>
</g>
</g>
</g>
</g>
<defs>
<path id="path0_stroke" d="M 0 0L 0 -0.5C -0.276142 -0.5 -0.5 -0.276142 -0.5 1.11022e-16L 0 0ZM 92.008 0L 92.508 0C 92.508 -0.276142 92.2842 -0.5 92.008 -0.5L 92.008 0ZM 92.008 8.05444L 92.008 8.55444C 92.2842 8.55444 92.508 8.33058 92.508 8.05444L 92.008 8.05444ZM 0 8.05444L -0.5 8.05444C -0.5 8.33058 -0.276142 8.55444 1.11022e-16 8.55444L 0 8.05444ZM 0 0.5L 92.008 0.5L 92.008 -0.5L 0 -0.5L 0 0.5ZM 91.508 0L 91.508 8.05444L 92.508 8.05444L 92.508 0L 91.508 0ZM 92.008 7.55444L 0 7.55444L 0 8.55444L 92.008 8.55444L 92.008 7.55444ZM 0.5 8.05444L 0.5 0L -0.5 0L -0.5 8.05444L 0.5 8.05444Z"/>
<path id="path1_stroke" d="M 1.05163e-06 0L 1.05163e-06 -0.5C -0.276141 -0.5 -0.499999 -0.276142 -0.499999 1.11022e-16L 1.05163e-06 0ZM 41.1452 0L 41.6452 0C 41.6452 -0.276142 41.4213 -0.5 41.1452 -0.5L 41.1452 0ZM 41.1452 5.00403L 41.1452 5.50403C 41.4213 5.50403 41.6452 5.28018 41.6452 5.00403L 41.1452 5.00403ZM 1.05163e-06 5.00403L -0.499999 5.00403C -0.499999 5.28018 -0.276141 5.50403 1.05163e-06 5.50403L 1.05163e-06 5.00403ZM 1.05163e-06 0.5L 41.1452 0.5L 41.1452 -0.5L 1.05163e-06 -0.5L 1.05163e-06 0.5ZM 40.6452 0L 40.6452 5.00403L 41.6452 5.00403L 41.6452 0L 40.6452 0ZM 41.1452 4.50403L 1.05163e-06 4.50403L 1.05163e-06 5.50403L 41.1452 5.50403L 41.1452 4.50403ZM 0.500001 5.00403L 0.500001 0L -0.499999 0L -0.499999 5.00403L 0.500001 5.00403Z"/>
<path id="path2_stroke" d="M 0 0L 0 -0.5C -0.276142 -0.5 -0.5 -0.276142 -0.5 1.11022e-16L 0 0ZM 92.008 0L 92.508 0C 92.508 -0.276142 92.2842 -0.5 92.008 -0.5L 92.008 0ZM 92.008 51.0686L 92.008 51.5686C 92.2842 51.5686 92.508 51.3447 92.508 51.0686L 92.008 51.0686ZM 0 51.0686L -0.5 51.0686C -0.5 51.3447 -0.276142 51.5686 1.11022e-16 51.5686L 0 51.0686ZM 0 0.5L 92.008 0.5L 92.008 -0.5L 0 -0.5L 0 0.5ZM 91.508 0L 91.508 51.0686L 92.508 51.0686L 92.508 0L 91.508 0ZM 92.008 50.5686L 0 50.5686L 0 51.5686L 92.008 51.5686L 92.008 50.5686ZM 0.5 51.0686L 0.5 0L -0.5 0L -0.5 51.0686L 0.5 51.0686Z"/>
<path id="path3_stroke" d="M 0.5 0C 0.5 -0.276142 0.276142 -0.5 0 -0.5C -0.276142 -0.5 -0.5 -0.276142 -0.5 0L 0.5 0ZM -0.5 29.8186C -0.5 30.0947 -0.276142 30.3186 0 30.3186C 0.276142 30.3186 0.5 30.0947 0.5 29.8186L -0.5 29.8186ZM -0.5 0L -0.5 29.8186L 0.5 29.8186L 0.5 0L -0.5 0Z"/>
<path id="path4_fill" d="M 1.89229 0L 0 0L 0 62.9934L 1.89229 62.9934L 1.89229 0Z"/>
<path id="path5_stroke" d="M 0 0L 0 -0.5C -0.276142 -0.5 -0.5 -0.276142 -0.5 1.11022e-16L 0 0ZM 1.89229 0L 2.39229 0C 2.39229 -0.276142 2.16843 -0.5 1.89229 -0.5L 1.89229 0ZM 1.89229 62.9934L 1.89229 63.4934C 2.16843 63.4934 2.39229 63.2696 2.39229 62.9934L 1.89229 62.9934ZM 0 62.9934L -0.5 62.9934C -0.5 63.2696 -0.276142 63.4934 1.11022e-16 63.4934L 0 62.9934ZM 0 0.5L 1.89229 0.5L 1.89229 -0.5L 0 -0.5L 0 0.5ZM 1.39229 0L 1.39229 62.9934L 2.39229 62.9934L 2.39229 0L 1.39229 0ZM 1.89229 62.4934L 0 62.4934L 0 63.4934L 1.89229 63.4934L 1.89229 62.4934ZM 0.5 62.9934L 0.5 0L -0.5 0L -0.5 62.9934L 0.5 62.9934Z"/>
<path id="path6_fill" d="M 1.79233 0L 0 0L 0 5.37698L 1.79233 5.37698L 1.79233 0Z"/>
<path id="path7_stroke" d="M 0 0L 0 -0.5C -0.276142 -0.5 -0.5 -0.276142 -0.5 1.11022e-16L 0 0ZM 1.79233 0L 2.29233 0C 2.29233 -0.276142 2.06847 -0.5 1.79233 -0.5L 1.79233 0ZM 1.79233 5.37698L 1.79233 5.87698C 2.06847 5.87698 2.29233 5.65312 2.29233 5.37698L 1.79233 5.37698ZM 0 5.37698L -0.5 5.37698C -0.5 5.65312 -0.276142 5.87698 1.11022e-16 5.87698L 0 5.37698ZM 0 0.5L 1.79233 0.5L 1.79233 -0.5L 0 -0.5L 0 0.5ZM 1.29233 0L 1.29233 5.37698L 2.29233 5.37698L 2.29233 0L 1.29233 0ZM 1.79233 4.87698L 0 4.87698L 0 5.87698L 1.79233 5.87698L 1.79233 4.87698ZM 0.5 5.37698L 0.5 0L -0.5 0L -0.5 5.37698L 0.5 5.37698Z"/>
<path id="path8_stroke" d="M -4.66995e-07 3.62959e-09L -4.66995e-07 -0.5C -0.276143 -0.5 -0.5 -0.276142 -0.5 3.62959e-09L -4.66995e-07 3.62959e-09ZM 20.9644 3.62959e-09L 21.4644 3.62959e-09C 21.4644 -0.276142 21.2405 -0.5 20.9644 -0.5L 20.9644 3.62959e-09ZM 20.9644 6.78972L 20.9644 7.28972C 21.2405 7.28972 21.4644 7.06586 21.4644 6.78972L 20.9644 6.78972ZM -4.66995e-07 6.78972L -0.5 6.78972C -0.5 7.06586 -0.276143 7.28972 -4.66995e-07 7.28972L -4.66995e-07 6.78972ZM -4.66995e-07 0.5L 20.9644 0.5L 20.9644 -0.5L -4.66995e-07 -0.5L -4.66995e-07 0.5ZM 20.4644 3.62959e-09L 20.4644 6.78972L 21.4644 6.78972L 21.4644 3.62959e-09L 20.4644 3.62959e-09ZM 20.9644 6.28972L -4.66995e-07 6.28972L -4.66995e-07 7.28972L 20.9644 7.28972L 20.9644 6.28972ZM 0.5 6.78972L 0.5 3.62959e-09L -0.5 3.62959e-09L -0.5 6.78972L 0.5 6.78972Z"/>
<path id="path9_stroke" d="M -4.66995e-07 2.32294e-07L -4.66995e-07 -0.5C -0.276143 -0.5 -0.5 -0.276142 -0.5 2.32294e-07L -4.66995e-07 2.32294e-07ZM 20.9644 2.32294e-07L 21.4644 2.32294e-07C 21.4644 -0.276142 21.2405 -0.5 20.9644 -0.5L 20.9644 2.32294e-07ZM 20.9644 6.78972L 20.9644 7.28972C 21.2405 7.28972 21.4644 7.06586 21.4644 6.78972L 20.9644 6.78972ZM -4.66995e-07 6.78972L -0.5 6.78972C -0.5 7.06586 -0.276143 7.28972 -4.66995e-07 7.28972L -4.66995e-07 6.78972ZM -4.66995e-07 0.5L 20.9644 0.5L 20.9644 -0.5L -4.66995e-07 -0.5L -4.66995e-07 0.5ZM 20.4644 2.32294e-07L 20.4644 6.78972L 21.4644 6.78972L 21.4644 2.32294e-07L 20.4644 2.32294e-07ZM 20.9644 6.28972L -4.66995e-07 6.28972L -4.66995e-07 7.28972L 20.9644 7.28972L 20.9644 6.28972ZM 0.5 6.78972L 0.5 2.32294e-07L -0.5 2.32294e-07L -0.5 6.78972L 0.5 6.78972Z"/>
<path id="path10_stroke" d="M 3.6484e-09 2.32294e-07L 3.6484e-09 -0.5C -0.276142 -0.5 -0.5 -0.276142 -0.5 2.32294e-07L 3.6484e-09 2.32294e-07ZM 20.9644 2.32294e-07L 21.4644 2.32294e-07C 21.4644 -0.276142 21.2405 -0.5 20.9644 -0.5L 20.9644 2.32294e-07ZM 20.9644 6.78972L 20.9644 7.28972C 21.2405 7.28972 21.4644 7.06586 21.4644 6.78972L 20.9644 6.78972ZM 3.6484e-09 6.78972L -0.5 6.78972C -0.5 7.06586 -0.276142 7.28972 3.6484e-09 7.28972L 3.6484e-09 6.78972ZM 3.6484e-09 0.5L 20.9644 0.5L 20.9644 -0.5L 3.6484e-09 -0.5L 3.6484e-09 0.5ZM 20.4644 2.32294e-07L 20.4644 6.78972L 21.4644 6.78972L 21.4644 2.32294e-07L 20.4644 2.32294e-07ZM 20.9644 6.28972L 3.6484e-09 6.28972L 3.6484e-09 7.28972L 20.9644 7.28972L 20.9644 6.28972ZM 0.5 6.78972L 0.5 2.32294e-07L -0.5 2.32294e-07L -0.5 6.78972L 0.5 6.78972Z"/>
<path id="path11_stroke" d="M -4.66995e-07 -4.64587e-07L -4.66995e-07 -0.5C -0.276143 -0.5 -0.5 -0.276143 -0.5 -4.64587e-07L -4.66995e-07 -4.64587e-07ZM 20.9644 -4.64587e-07L 21.4644 -4.64587e-07C 21.4644 -0.276143 21.2405 -0.5 20.9644 -0.5L 20.9644 -4.64587e-07ZM 20.9644 6.78972L 20.9644 7.28972C 21.2405 7.28972 21.4644 7.06586 21.4644 6.78972L 20.9644 6.78972ZM -4.66995e-07 6.78972L -0.5 6.78972C -0.5 7.06586 -0.276143 7.28972 -4.66995e-07 7.28972L -4.66995e-07 6.78972ZM -4.66995e-07 0.5L 20.9644 0.5L 20.9644 -0.5L -4.66995e-07 -0.5L -4.66995e-07 0.5ZM 20.4644 -4.64587e-07L 20.4644 6.78972L 21.4644 6.78972L 21.4644 -4.64587e-07L 20.4644 -4.64587e-07ZM 20.9644 6.28972L -4.66995e-07 6.28972L -4.66995e-07 7.28972L 20.9644 7.28972L 20.9644 6.28972ZM 0.5 6.78972L 0.5 -4.64587e-07L -0.5 -4.64587e-07L -0.5 6.78972L 0.5 6.78972Z"/>
<path id="path12_stroke" d="M 4.07046 0.5C 4.3466 0.5 4.57046 0.276142 4.57046 0C 4.57046 -0.276142 4.3466 -0.5 4.07046 -0.5L 4.07046 0.5ZM 9.33989e-07 -0.5C -0.276141 -0.5 -0.499999 -0.276142 -0.499999 0C -0.499999 0.276142 -0.276141 0.5 9.33989e-07 0.5L 9.33989e-07 -0.5ZM 4.07046 -0.5L 9.33989e-07 -0.5L 9.33989e-07 0.5L 4.07046 0.5L 4.07046 -0.5Z"/>
<path id="path13_stroke" d="M 0.500003 2.32294e-07C 0.500003 -0.276142 0.276145 -0.5 3.05176e-06 -0.5C -0.276139 -0.5 -0.499997 -0.276142 -0.499997 2.32294e-07L 0.500003 2.32294e-07ZM -0.499997 5.78496C -0.499997 6.06111 -0.276139 6.28496 3.05176e-06 6.28496C 0.276145 6.28496 0.500003 6.06111 0.500003 5.78496L -0.499997 5.78496ZM -0.499997 2.32294e-07L -0.499997 5.78496L 0.500003 5.78496L 0.500003 2.32294e-07L -0.499997 2.32294e-07Z"/>
<path id="path14_stroke" d="M 0.500003 0C 0.500003 -0.276142 0.276145 -0.5 3.05176e-06 -0.5C -0.276139 -0.5 -0.499997 -0.276142 -0.499997 0L 0.500003 0ZM -0.499997 5.81541C -0.499997 6.09155 -0.276139 6.31541 3.05176e-06 6.31541C 0.276145 6.31541 0.500003 6.09155 0.500003 5.81541L -0.499997 5.81541ZM -0.499997 0L -0.499997 5.81541L 0.500003 5.81541L 0.500003 0L -0.499997 0Z"/>
</defs>
</svg>
