<svg width="173" height="104" viewBox="0 0 173 104" version="1.1" xmlns="http://www.w3.org/2000/svg" xmlns:xlink="http://www.w3.org/1999/xlink">
<title>Group</title>
<desc>Created using Figma</desc>
<g id="Canvas" transform="translate(-39434 -1131)">
<g id="Group">
<g id="Vector">
<use xlink:href="#path0_stroke" transform="translate(39435 1223.34)" fill="#18A29B"/>
</g>
<g id="Vector">
<use xlink:href="#path1_stroke" transform="translate(39435.1 1229.58)" fill="#18A29B"/>
</g>
<g id="Vector">
<use xlink:href="#path2_stroke" transform="translate(39463.2 1211.95)" fill="#18A29B"/>
</g>
<g id="Group 2">
<g id="Vector">
<use xlink:href="#path3_stroke" transform="matrix(0.707872 -0.706327 0.707872 0.706327 39478.3 1150.3)" fill="#18A29B"/>
</g>
<g id="Vector">
<use xlink:href="#path4_stroke" transform="translate(39493.9 1137.33)" fill="#18A29B"/>
</g>
<g id="Vector">
<use xlink:href="#path5_stroke" transform="translate(39475 1156.23)" fill="#18A29B"/>
</g>
<g id="Vector">
<use xlink:href="#path6_stroke" transform="translate(39493.9 1156.23)" fill="#18A29B"/>
</g>
<g id="Vector">
<use xlink:href="#path7_stroke" transform="translate(39488 1158.71)" fill="#18A29B"/>
</g>
<g id="Vector">
<use xlink:href="#path8_stroke" transform="translate(39488 1132)" fill="#18A29B"/>
</g>
<g id="Vector">
<use xlink:href="#path9_stroke" transform="translate(39496.4 1150.29)" fill="#18A29B"/>
</g>
<g id="Vector">
<use xlink:href="#path10_stroke" transform="translate(39469.7 1150.29)" fill="#18A29B"/>
</g>
<g id="Vector">
<use xlink:href="#path11_stroke" transform="translate(39475 1137.33)" fill="#18A29B"/>
</g>
</g>
<g id="Vector">
<use xlink:href="#path12_stroke" transform="translate(39494.5 1202.2)" fill="#18A29B"/>
</g>
<g id="Group">
<g id="Group">
<g id="Vector">
<use xlink:href="#path13_stroke" transform="translate(39496.7 1206.86)" fill="#18A29B"/>
</g>
<g id="Vector">
<use xlink:href="#path14_stroke" transform="translate(39499.3 1206.86)" fill="#18A29B"/>
</g>
</g>
<g id="Group">
<g id="Vector">
<use xlink:href="#path15_stroke" transform="translate(39542.6 1206.86)" fill="#18A29B"/>
</g>
<g id="Vector">
<use xlink:href="#path16_stroke" transform="translate(39537.8 1206.86)" fill="#18A29B"/>
</g>
</g>
</g>
<g id="Vector">
<use xlink:href="#path17_stroke" transform="translate(39495.8 1197.84)" fill="#18A29B"/>
</g>
<g id="Vector">
<use xlink:href="#path18_stroke" transform="translate(39496.2 1194.57)" fill="#18A29B"/>
</g>
<g id="Vector">
<use xlink:href="#path19_stroke" transform="translate(39495 1186.83)" fill="#18A29B"/>
</g>
<g id="Vector">
<use xlink:href="#path20_stroke" transform="translate(39510.9 1217.86)" fill="#18A29B"/>
</g>
<g id="Vector">
<use xlink:href="#path21_stroke" transform="translate(39523.3 1179.61)" fill="#18A29B"/>
</g>
<g id="Vector">
<use xlink:href="#path22_stroke" transform="translate(39537.6 1156.29)" fill="#18A29B"/>
</g>
<g id="Vector">
<use xlink:href="#path23_stroke" transform="translate(39506.3 1158.01)" fill="#18A29B"/>
</g>
<g id="Vector">
<use xlink:href="#path24_stroke" transform="translate(39521.7 1158.95)" fill="#18A29B"/>
</g>
<g id="Vector">
<use xlink:href="#path25_stroke" transform="translate(39537.8 1158.83)" fill="#18A29B"/>
</g>
</g>
</g>
<defs>
<path id="path0_stroke" d="M 171.499 0C 171.499 -0.276142 171.275 -0.5 170.999 -0.5C 170.723 -0.5 170.499 -0.276142 170.499 0L 171.499 0ZM 158.387 0C 158.387 -0.276142 158.163 -0.5 157.887 -0.5C 157.611 -0.5 157.387 -0.276142 157.387 0L 158.387 0ZM 145.276 0C 145.276 -0.276142 145.052 -0.5 144.776 -0.5C 144.499 -0.5 144.276 -0.276142 144.276 0L 145.276 0ZM 132.164 0C 132.164 -0.276142 131.94 -0.5 131.664 -0.5C 131.388 -0.5 131.164 -0.276142 131.164 0L 132.164 0ZM 119.052 0C 119.052 -0.276142 118.828 -0.5 118.552 -0.5C 118.276 -0.5 118.052 -0.276142 118.052 0L 119.052 0ZM 105.94 0C 105.94 -0.276142 105.716 -0.5 105.44 -0.5C 105.164 -0.5 104.94 -0.276142 104.94 0L 105.94 0ZM 92.8286 0C 92.8286 -0.276142 92.6047 -0.5 92.3286 -0.5C 92.0524 -0.5 91.8286 -0.276142 91.8286 0L 92.8286 0ZM 79.7168 0C 79.7168 -0.276142 79.493 -0.5 79.2168 -0.5C 78.9407 -0.5 78.7168 -0.276142 78.7168 0L 79.7168 0ZM 66.6051 0C 66.6051 -0.276142 66.3812 -0.5 66.1051 -0.5C 65.8289 -0.5 65.6051 -0.276142 65.6051 0L 66.6051 0ZM 53.4933 0C 53.4933 -0.276142 53.2695 -0.5 52.9933 -0.5C 52.7172 -0.5 52.4933 -0.276142 52.4933 0L 53.4933 0ZM 40.3816 0C 40.3816 -0.276142 40.1577 -0.5 39.8816 -0.5C 39.6054 -0.5 39.3816 -0.276142 39.3816 0L 40.3816 0ZM 27.2698 0C 27.2698 -0.276142 27.046 -0.5 26.7698 -0.5C 26.4937 -0.5 26.2698 -0.276142 26.2698 0L 27.2698 0ZM 13.6725 0C 13.6725 -0.276142 13.4486 -0.5 13.1725 -0.5C 12.8963 -0.5 12.6725 -0.276142 12.6725 0L 13.6725 0ZM 0.5 0C 0.5 -0.276142 0.276142 -0.5 7.23631e-09 -0.5C -0.276142 -0.5 -0.5 -0.276142 -0.5 0L 0.5 0ZM 170.499 0C 170.499 1.02422 169.887 1.99198 168.787 2.72618C 167.688 3.45901 166.149 3.92162 164.443 3.92162L 164.443 4.92162C 166.319 4.92162 168.057 4.4151 169.342 3.55797C 170.624 2.7022 171.499 1.45915 171.499 0L 170.499 0ZM 164.443 3.92162C 162.74 3.92162 161.201 3.4455 160.102 2.70468C 158.997 1.9607 158.387 0.991797 158.387 0L 157.387 0C 157.387 1.43101 158.265 2.67292 159.543 3.53404C 160.826 4.39833 162.564 4.92162 164.443 4.92162L 164.443 3.92162ZM 157.387 0C 157.387 1.02422 156.775 1.99198 155.675 2.72618C 154.577 3.45901 153.037 3.92162 151.331 3.92162L 151.331 4.92162C 153.207 4.92162 154.946 4.4151 156.23 3.55797C 157.512 2.7022 158.387 1.45915 158.387 0L 157.387 0ZM 151.331 3.92162C 149.597 3.92162 148.059 3.44487 146.968 2.70551C 145.874 1.96389 145.276 0.995585 145.276 0L 144.276 0C 144.276 1.42722 145.134 2.66972 146.407 3.53321C 147.684 4.39896 149.424 4.92162 151.331 4.92162L 151.331 3.92162ZM 144.276 0C 144.276 1.02422 143.663 1.99198 142.563 2.72618C 141.465 3.45901 139.926 3.92162 138.22 3.92162L 138.22 4.92162C 140.095 4.92162 141.834 4.4151 143.118 3.55797C 144.401 2.7022 145.276 1.45915 145.276 0L 144.276 0ZM 138.22 3.92162C 136.485 3.92162 134.947 3.44487 133.857 2.70551C 132.763 1.96389 132.164 0.995585 132.164 0L 131.164 0C 131.164 1.42722 132.022 2.66972 133.295 3.53321C 134.572 4.39896 136.312 4.92162 138.22 4.92162L 138.22 3.92162ZM 131.164 0C 131.164 1.02422 130.552 1.99198 129.451 2.72618C 128.353 3.45901 126.814 3.92162 125.108 3.92162L 125.108 4.92162C 126.983 4.92162 128.722 4.4151 130.006 3.55797C 131.289 2.7022 132.164 1.45915 132.164 0L 131.164 0ZM 125.108 3.92162C 123.374 3.92162 121.835 3.44487 120.745 2.70551C 119.651 1.96389 119.052 0.995586 119.052 0L 118.052 0C 118.052 1.42722 118.91 2.66972 120.184 3.53321C 121.461 4.39896 123.2 4.92162 125.108 4.92162L 125.108 3.92162ZM 118.052 0C 118.052 1.02422 117.44 1.99198 116.34 2.72618C 115.241 3.45901 113.702 3.92162 111.996 3.92162L 111.996 4.92162C 113.872 4.92162 115.61 4.4151 116.895 3.55797C 118.177 2.7022 119.052 1.45915 119.052 0L 118.052 0ZM 111.996 3.92162C 110.262 3.92162 108.724 3.44487 107.633 2.70551C 106.539 1.96389 105.94 0.995585 105.94 0L 104.94 0C 104.94 1.42722 105.798 2.66972 107.072 3.53321C 108.349 4.39896 110.088 4.92162 111.996 4.92162L 111.996 3.92162ZM 104.94 0C 104.94 1.02422 104.328 1.99198 103.228 2.72618C 102.13 3.45901 100.59 3.92162 98.8844 3.92162L 98.8844 4.92162C 100.76 4.92162 102.499 4.4151 103.783 3.55797C 105.065 2.7022 105.94 1.45915 105.94 0L 104.94 0ZM 98.8844 3.92162C 97.15 3.92162 95.6118 3.44487 94.5213 2.70551C 93.4274 1.96389 92.8286 0.995585 92.8286 0L 91.8286 0C 91.8286 1.42722 92.6865 2.66972 93.9601 3.53321C 95.237 4.39896 96.9767 4.92162 98.8844 4.92162L 98.8844 3.92162ZM 91.8286 0C 91.8286 1.02422 91.2163 1.99198 90.1161 2.72618C 89.018 3.45901 87.4787 3.92162 85.7727 3.92162L 85.7727 4.92162C 87.6481 4.92162 89.3868 4.4151 90.6712 3.55797C 91.9536 2.7022 92.8286 1.45915 92.8286 0L 91.8286 0ZM 85.7727 3.92162C 84.0383 3.92162 82.5 3.44487 81.4095 2.70551C 80.3157 1.96389 79.7168 0.995585 79.7168 0L 78.7168 0C 78.7168 1.42722 79.5748 2.66972 80.8484 3.53321C 82.1253 4.39896 83.8649 4.92162 85.7727 4.92162L 85.7727 3.92162ZM 78.7168 0C 78.7168 1.02422 78.1046 1.99198 77.0044 2.72618C 75.9062 3.45901 74.3669 3.92162 72.6609 3.92162L 72.6609 4.92162C 74.5364 4.92162 76.275 4.4151 77.5595 3.55797C 78.8418 2.7022 79.7168 1.45915 79.7168 0L 78.7168 0ZM 72.6609 3.92162C 70.9582 3.92162 69.419 3.4455 68.3193 2.70468C 67.215 1.9607 66.6051 0.991797 66.6051 0L 65.6051 0C 65.6051 1.43101 66.4824 2.67291 67.7606 3.53404C 69.0435 4.39833 70.7822 4.92162 72.6609 4.92162L 72.6609 3.92162ZM 65.6051 0C 65.6051 1.02422 64.9928 1.99198 63.8926 2.72618C 62.7945 3.45901 61.2552 3.92162 59.5492 3.92162L 59.5492 4.92162C 61.4246 4.92162 63.1633 4.4151 64.4477 3.55797C 65.7301 2.7022 66.6051 1.45915 66.6051 0L 65.6051 0ZM 59.5492 3.92162C 57.8148 3.92162 56.2765 3.44487 55.186 2.70551C 54.0922 1.96389 53.4933 0.995585 53.4933 0L 52.4933 0C 52.4933 1.42722 53.3513 2.66972 54.6249 3.53321C 55.9018 4.39896 57.6414 4.92162 59.5492 4.92162L 59.5492 3.92162ZM 52.4933 0C 52.4933 1.02422 51.8811 1.99198 50.7809 2.72618C 49.6827 3.45901 48.1434 3.92162 46.4374 3.92162L 46.4374 4.92162C 48.3129 4.92162 50.0515 4.4151 51.336 3.55797C 52.6183 2.7022 53.4933 1.45915 53.4933 0L 52.4933 0ZM 46.4374 3.92162C 44.7347 3.92162 43.1955 3.4455 42.0958 2.70468C 40.9915 1.9607 40.3816 0.991797 40.3816 0L 39.3816 0C 39.3816 1.43101 40.2589 2.67291 41.5371 3.53404C 42.82 4.39833 44.5587 4.92162 46.4374 4.92162L 46.4374 3.92162ZM 39.3816 0C 39.3816 1.02422 38.7693 1.99198 37.6691 2.72618C 36.571 3.45901 35.0317 3.92162 33.3257 3.92162L 33.3257 4.92162C 35.2012 4.92162 36.9398 4.4151 38.2242 3.55797C 39.5066 2.7022 40.3816 1.45915 40.3816 0L 39.3816 0ZM 33.3257 3.92162C 31.623 3.92162 30.0837 3.4455 28.9841 2.70468C 27.8797 1.9607 27.2698 0.991798 27.2698 0L 26.2698 0C 26.2698 1.43101 27.1471 2.67291 28.4254 3.53404C 29.7083 4.39833 31.447 4.92162 33.3257 4.92162L 33.3257 3.92162ZM 26.2698 0C 26.2698 1.02422 25.6576 1.99198 24.5574 2.72618C 23.4592 3.45901 21.9199 3.92162 20.2139 3.92162L 20.2139 4.92162C 22.0894 4.92162 23.828 4.4151 25.1125 3.55797C 26.3948 2.7022 27.2698 1.45915 27.2698 0L 26.2698 0ZM 20.2139 3.92162C 18.5061 3.92162 16.8368 3.45786 15.6092 2.71439C 14.3684 1.96295 13.6725 0.991917 13.6725 0L 12.6725 0C 12.6725 1.49146 13.7066 2.73123 15.0911 3.56976C 16.4889 4.41625 18.3404 4.92162 20.2139 4.92162L 20.2139 3.92162ZM 12.6725 0C 12.6725 1.02422 12.0602 1.99198 10.96 2.72618C 9.86186 3.45901 8.32257 3.92162 6.61658 3.92162L 6.61658 4.92162C 8.49204 4.92162 10.2307 4.4151 11.5151 3.55797C 12.7975 2.7022 13.6725 1.45915 13.6725 0L 12.6725 0ZM 6.61658 3.92162C 4.91036 3.92162 3.35473 3.45886 2.24036 2.72456C 1.12276 1.98814 0.5 1.02001 0.5 0L -0.5 0C -0.5 1.46336 0.394801 2.70604 1.69013 3.55958C 2.98869 4.41525 4.74134 4.92162 6.61658 4.92162L 6.61658 3.92162Z"/>
<path id="path1_stroke" d="M 171.438 1.84845e-06C 171.438 -0.276141 171.214 -0.499998 170.938 -0.499998C 170.662 -0.499998 170.438 -0.276141 170.438 1.84845e-06L 171.438 1.84845e-06ZM 158.327 1.84845e-06C 158.327 -0.276141 158.103 -0.499998 157.827 -0.499998C 157.55 -0.499998 157.327 -0.276141 157.327 1.84845e-06L 158.327 1.84845e-06ZM 145.215 1.84845e-06C 145.215 -0.276141 144.991 -0.499998 144.715 -0.499998C 144.439 -0.499998 144.215 -0.276141 144.215 1.84845e-06L 145.215 1.84845e-06ZM 132.103 1.84845e-06C 132.103 -0.276141 131.879 -0.499998 131.603 -0.499998C 131.327 -0.499998 131.103 -0.276141 131.103 1.84845e-06L 132.103 1.84845e-06ZM 118.991 1.84845e-06C 118.991 -0.276141 118.768 -0.499998 118.491 -0.499998C 118.215 -0.499998 117.991 -0.276141 117.991 1.84845e-06L 118.991 1.84845e-06ZM 105.88 1.84845e-06C 105.88 -0.276141 105.656 -0.499998 105.38 -0.499998C 105.103 -0.499998 104.88 -0.276141 104.88 1.84845e-06L 105.88 1.84845e-06ZM 92.7679 1.84845e-06C 92.7679 -0.276141 92.544 -0.499998 92.2679 -0.499998C 91.9917 -0.499998 91.7679 -0.276141 91.7679 1.84845e-06L 92.7679 1.84845e-06ZM 79.6561 1.84845e-06C 79.6561 -0.276141 79.4323 -0.499998 79.1561 -0.499998C 78.88 -0.499998 78.6561 -0.276141 78.6561 1.84845e-06L 79.6561 1.84845e-06ZM 66.5444 1.84845e-06C 66.5444 -0.276141 66.3205 -0.499998 66.0444 -0.499998C 65.7682 -0.499998 65.5444 -0.276141 65.5444 1.84845e-06L 66.5444 1.84845e-06ZM 53.0684 1.84845e-06C 53.0684 -0.276141 52.8445 -0.499998 52.5684 -0.499998C 52.2923 -0.499998 52.0684 -0.276141 52.0684 1.84845e-06L 53.0684 1.84845e-06ZM 39.9566 1.84845e-06C 39.9566 -0.276141 39.7328 -0.499998 39.4566 -0.499998C 39.1805 -0.499998 38.9566 -0.276141 38.9566 1.84845e-06L 39.9566 1.84845e-06ZM 26.8449 1.84845e-06C 26.8449 -0.276141 26.621 -0.499998 26.3449 -0.499998C 26.0688 -0.499998 25.8449 -0.276141 25.8449 1.84845e-06L 26.8449 1.84845e-06ZM 13.6117 1.84845e-06C 13.6117 -0.276141 13.3879 -0.499998 13.1117 -0.499998C 12.8356 -0.499998 12.6117 -0.276141 12.6117 1.84845e-06L 13.6117 1.84845e-06ZM 0.5 1.84845e-06C 0.5 -0.276141 0.276142 -0.499998 3.61815e-09 -0.499998C -0.276142 -0.499998 -0.5 -0.276141 -0.5 1.84845e-06L 0.5 1.84845e-06ZM 170.438 1.84845e-06C 170.438 1.02422 169.826 1.99198 168.726 2.72618C 167.628 3.45901 166.088 3.92162 164.382 3.92162L 164.382 4.92162C 166.258 4.92162 167.997 4.41511 169.281 3.55797C 170.563 2.7022 171.438 1.45915 171.438 1.84845e-06L 170.438 1.84845e-06ZM 164.382 3.92162C 162.648 3.92162 161.11 3.44487 160.019 2.70551C 158.925 1.96389 158.327 0.995586 158.327 1.84845e-06L 157.327 1.84845e-06C 157.327 1.42722 158.185 2.66972 159.458 3.53321C 160.735 4.39896 162.475 4.92162 164.382 4.92162L 164.382 3.92162ZM 157.327 1.84845e-06C 157.327 1.02422 156.714 1.99198 155.614 2.72618C 154.516 3.45901 152.977 3.92162 151.271 3.92162L 151.271 4.92162C 153.146 4.92162 154.885 4.41511 156.169 3.55797C 157.452 2.7022 158.327 1.45915 158.327 1.84845e-06L 157.327 1.84845e-06ZM 151.271 3.92162C 149.536 3.92162 147.998 3.44487 146.908 2.70551C 145.814 1.96389 145.215 0.995587 145.215 1.84845e-06L 144.215 1.84845e-06C 144.215 1.42722 145.073 2.66972 146.346 3.53321C 147.623 4.39896 149.363 4.92162 151.271 4.92162L 151.271 3.92162ZM 144.215 1.84845e-06C 144.215 1.02422 143.603 1.99198 142.502 2.72618C 141.404 3.45901 139.865 3.92162 138.159 3.92162L 138.159 4.92162C 140.034 4.92162 141.773 4.41511 143.058 3.55797C 144.34 2.7022 145.215 1.45915 145.215 1.84845e-06L 144.215 1.84845e-06ZM 138.159 3.92162C 136.425 3.92162 134.886 3.44487 133.796 2.70551C 132.702 1.96389 132.103 0.995587 132.103 1.84845e-06L 131.103 1.84845e-06C 131.103 1.42722 131.961 2.66972 133.235 3.53321C 134.512 4.39896 136.251 4.92162 138.159 4.92162L 138.159 3.92162ZM 131.103 1.84845e-06C 131.103 1.02422 130.491 1.99198 129.391 2.72618C 128.293 3.45901 126.753 3.92162 125.047 3.92162L 125.047 4.92162C 126.923 4.92162 128.661 4.41511 129.946 3.55797C 131.228 2.7022 132.103 1.45915 132.103 1.84845e-06L 131.103 1.84845e-06ZM 125.047 3.92162C 123.313 3.92162 121.775 3.44487 120.684 2.70551C 119.59 1.96389 118.991 0.995588 118.991 1.84845e-06L 117.991 1.84845e-06C 117.991 1.42722 118.849 2.66972 120.123 3.53321C 121.4 4.39896 123.139 4.92162 125.047 4.92162L 125.047 3.92162ZM 117.991 1.84845e-06C 117.991 1.02422 117.379 1.99198 116.279 2.72618C 115.181 3.45901 113.641 3.92162 111.935 3.92162L 111.935 4.92162C 113.811 4.92162 115.55 4.41511 116.834 3.55797C 118.116 2.7022 118.991 1.45915 118.991 1.84845e-06L 117.991 1.84845e-06ZM 111.935 3.92162C 110.201 3.92162 108.663 3.44487 107.572 2.70551C 106.479 1.96389 105.88 0.995587 105.88 1.84845e-06L 104.88 1.84845e-06C 104.88 1.42722 105.738 2.66972 107.011 3.53321C 108.288 4.39896 110.028 4.92162 111.935 4.92162L 111.935 3.92162ZM 104.88 1.84845e-06C 104.88 1.02422 104.267 1.99198 103.167 2.72618C 102.069 3.45901 100.53 3.92162 98.8237 3.92162L 98.8237 4.92162C 100.699 4.92162 102.438 4.41511 103.722 3.55797C 105.005 2.7022 105.88 1.45915 105.88 1.84845e-06L 104.88 1.84845e-06ZM 98.8237 3.92162C 97.0893 3.92162 95.5511 3.44487 94.4606 2.70551C 93.3667 1.96389 92.7679 0.995587 92.7679 1.84845e-06L 91.7679 1.84845e-06C 91.7679 1.42722 92.6258 2.66972 93.8994 3.53321C 95.1763 4.39896 96.916 4.92162 98.8237 4.92162L 98.8237 3.92162ZM 91.7679 1.84845e-06C 91.7679 1.02422 91.1556 1.99198 90.0554 2.72618C 88.9573 3.45901 87.418 3.92162 85.712 3.92162L 85.712 4.92162C 87.5875 4.92162 89.3261 4.41511 90.6105 3.55797C 91.8929 2.7022 92.7679 1.45915 92.7679 1.84845e-06L 91.7679 1.84845e-06ZM 85.712 3.92162C 83.9776 3.92162 82.4393 3.44487 81.3488 2.70551C 80.255 1.96389 79.6561 0.995587 79.6561 1.84845e-06L 78.6561 1.84845e-06C 78.6561 1.42722 79.5141 2.66972 80.7877 3.53321C 82.0646 4.39896 83.8042 4.92162 85.712 4.92162L 85.712 3.92162ZM 78.6561 1.84845e-06C 78.6561 1.02422 78.0439 1.99198 76.9437 2.72618C 75.8455 3.45901 74.3062 3.92162 72.6002 3.92162L 72.6002 4.92162C 74.4757 4.92162 76.2143 4.41511 77.4988 3.55797C 78.7811 2.7022 79.6561 1.45915 79.6561 1.84845e-06L 78.6561 1.84845e-06ZM 72.6002 3.92162C 70.8658 3.92162 69.3276 3.44487 68.2371 2.70551C 67.1432 1.96389 66.5444 0.995587 66.5444 1.84845e-06L 65.5444 1.84845e-06C 65.5444 1.42722 66.4023 2.66972 67.6759 3.53321C 68.9528 4.39896 70.6925 4.92162 72.6002 4.92162L 72.6002 3.92162ZM 65.5444 1.84845e-06C 65.5444 1.02422 64.9321 1.99198 63.8319 2.72618C 62.7338 3.45901 61.1945 3.92162 59.4885 3.92162L 59.4885 4.92162C 61.3639 4.92162 63.1026 4.41511 64.387 3.55797C 65.6694 2.7022 66.5444 1.45915 66.5444 1.84845e-06L 65.5444 1.84845e-06ZM 59.4885 3.92162C 57.7842 3.92162 56.1474 3.44452 54.9507 2.69552C 53.741 1.93844 53.0684 0.967418 53.0684 1.84845e-06L 52.0684 1.84845e-06C 52.0684 1.45539 53.0651 2.69517 54.4201 3.5432C 55.7881 4.39931 57.6114 4.92162 59.4885 4.92162L 59.4885 3.92162ZM 52.0684 1.84845e-06C 52.0684 1.02422 51.4562 1.99198 50.356 2.72618C 49.2578 3.45901 47.7185 3.92162 46.0125 3.92162L 46.0125 4.92162C 47.888 4.92162 49.6266 4.41511 50.911 3.55797C 52.1934 2.7022 53.0684 1.45915 53.0684 1.84845e-06L 52.0684 1.84845e-06ZM 46.0125 3.92162C 44.3098 3.92162 42.7706 3.4455 41.6709 2.70468C 40.5666 1.9607 39.9566 0.9918 39.9566 1.84845e-06L 38.9566 1.84845e-06C 38.9566 1.43101 39.834 2.67292 41.1122 3.53404C 42.3951 4.39833 44.1338 4.92162 46.0125 4.92162L 46.0125 3.92162ZM 38.9566 1.84845e-06C 38.9566 1.02422 38.3444 1.99198 37.2442 2.72618C 36.1461 3.45901 34.6068 3.92162 32.9008 3.92162L 32.9008 4.92162C 34.7762 4.92162 36.5149 4.41511 37.7993 3.55797C 39.0817 2.7022 39.9566 1.45915 39.9566 1.84845e-06L 38.9566 1.84845e-06ZM 32.9008 3.92162C 31.198 3.92162 29.6588 3.4455 28.5592 2.70468C 27.4548 1.9607 26.8449 0.991799 26.8449 1.84845e-06L 25.8449 1.84845e-06C 25.8449 1.43101 26.7222 2.67292 28.0004 3.53404C 29.2834 4.39833 31.0221 4.92162 32.9008 4.92162L 32.9008 3.92162ZM 25.8449 1.84845e-06C 25.8449 1.02422 25.2327 1.99198 24.1325 2.72618C 23.0343 3.45901 21.495 3.92162 19.789 3.92162L 19.789 4.92162C 21.6645 4.92162 23.4031 4.41511 24.6875 3.55797C 25.9699 2.7022 26.8449 1.45915 26.8449 1.84845e-06L 25.8449 1.84845e-06ZM 19.789 3.92162C 18.0858 3.92162 16.5139 3.44518 15.3819 2.70147C 14.2426 1.95304 13.6117 0.983474 13.6117 1.84845e-06L 12.6117 1.84845e-06C 12.6117 1.43933 13.5288 2.68058 14.8328 3.53725C 16.144 4.39865 17.9108 4.92162 19.789 4.92162L 19.789 3.92162ZM 12.6117 1.84845e-06C 12.6117 1.02422 11.9995 1.99198 10.8993 2.72618C 9.80116 3.45901 8.26186 3.92162 6.55587 3.92162L 6.55587 4.92162C 8.43134 4.92162 10.17 4.41511 11.4544 3.55797C 12.7368 2.7022 13.6117 1.45915 13.6117 1.84845e-06L 12.6117 1.84845e-06ZM 6.55587 3.92162C 4.85314 3.92162 3.3139 3.4455 2.21426 2.70468C 1.1099 1.9607 0.5 0.991799 0.5 1.84845e-06L -0.5 1.84845e-06C -0.5 1.43101 0.377307 2.67292 1.65553 3.53404C 2.93846 4.39833 4.67716 4.92162 6.55587 4.92162L 6.55587 3.92162Z"/>
<path id="path2_stroke" d="M -0.27693 14.0599C -0.506849 14.2129 -0.569249 14.5233 -0.416304 14.7532C -0.263359 14.9831 0.0470125 15.0455 0.276931 14.8926L -0.27693 14.0599ZM 114.331 14.8934C 114.561 15.0456 114.871 14.9823 115.024 14.7519C 115.176 14.5215 115.112 14.2113 114.882 14.0591L 114.331 14.8934ZM 0.276931 14.8926C 13.4664 6.11877 34.1219 0.499998 57.3032 0.499998L 57.3032 -0.500002C 33.9864 -0.500002 13.1213 5.14727 -0.27693 14.0599L 0.276931 14.8926ZM 57.3032 0.499998C 80.4832 0.499998 101.14 6.1788 114.331 14.8934L 114.882 14.0591C 101.485 5.20838 80.6213 -0.500002 57.3032 -0.500002L 57.3032 0.499998Z"/>
<path id="path3_stroke" d="M 13.2038 6.85191C 13.2038 10.36 10.36 13.2038 6.85191 13.2038L 6.85191 14.2038C 10.9123 14.2038 14.2038 10.9123 14.2038 6.85191L 13.2038 6.85191ZM 6.85191 13.2038C 3.34384 13.2038 0.500002 10.36 0.500002 6.85191L -0.499998 6.85191C -0.499998 10.9123 2.79156 14.2038 6.85191 14.2038L 6.85191 13.2038ZM 0.500002 6.85191C 0.500002 3.34384 3.34384 0.5 6.85191 0.5L 6.85191 -0.5C 2.79156 -0.5 -0.499998 2.79156 -0.499998 6.85191L 0.500002 6.85191ZM 6.85191 0.5C 10.36 0.5 13.2038 3.34385 13.2038 6.85191L 14.2038 6.85191C 14.2038 2.79156 10.9123 -0.5 6.85191 -0.5L 6.85191 0.5Z"/>
<path id="path4_stroke" d="M -0.353166 6.67219C -0.548641 6.86724 -0.548987 7.18382 -0.353938 7.3793C -0.15889 7.57477 0.157693 7.57512 0.353168 7.38007L -0.353166 6.67219ZM 7.39466 0.353939C 7.59014 0.158891 7.59048 -0.157692 7.39543 -0.353167C 7.20039 -0.548642 6.8838 -0.548988 6.68833 -0.353939L 7.39466 0.353939ZM 0.353168 7.38007L 7.39466 0.353939L 6.68833 -0.353939L -0.353166 6.67219L 0.353168 7.38007Z"/>
<path id="path5_stroke" d="M -0.353169 6.67219C -0.548644 6.86724 -0.54899 7.18382 -0.353941 7.3793C -0.158893 7.57477 0.15769 7.57512 0.353165 7.38007L -0.353169 6.67219ZM 7.39466 0.35394C 7.59014 0.158891 7.59048 -0.157691 7.39544 -0.353166C 7.20039 -0.548642 6.88381 -0.548988 6.68833 -0.353939L 7.39466 0.35394ZM 0.353165 7.38007L 7.39466 0.35394L 6.68833 -0.353939L -0.353169 6.67219L 0.353165 7.38007Z"/>
<path id="path6_stroke" d="M 0.353168 -0.353939C 0.157693 -0.548988 -0.15889 -0.548642 -0.353938 -0.353167C -0.548987 -0.157691 -0.548641 0.158891 -0.353166 0.35394L 0.353168 -0.353939ZM 6.68833 7.38007C 6.8838 7.57512 7.20039 7.57477 7.39543 7.3793C 7.59048 7.18382 7.59014 6.86724 7.39466 6.67219L 6.68833 7.38007ZM -0.353166 0.35394L 6.68833 7.38007L 7.39466 6.67219L 0.353168 -0.353939L -0.353166 0.35394Z"/>
<path id="path7_stroke" d="M 0.499998 -4.62113e-07C 0.499998 -0.276143 0.276141 -0.5 -1.52588e-06 -0.5C -0.276144 -0.5 -0.500002 -0.276143 -0.500002 -4.62113e-07L 0.499998 -4.62113e-07ZM -0.500002 9.87292C -0.500002 10.1491 -0.276144 10.3729 -1.52588e-06 10.3729C 0.276141 10.3729 0.499998 10.1491 0.499998 9.87292L -0.500002 9.87292ZM -0.500002 -4.62113e-07L -0.500002 9.87292L 0.499998 9.87292L 0.499998 -4.62113e-07L -0.500002 -4.62113e-07Z"/>
<path id="path8_stroke" d="M 0.499998 1.80513e-09C 0.499998 -0.276142 0.276141 -0.5 -1.52588e-06 -0.5C -0.276144 -0.5 -0.500002 -0.276142 -0.500002 1.80513e-09L 0.499998 1.80513e-09ZM -0.500002 9.87292C -0.500002 10.1491 -0.276144 10.3729 -1.52588e-06 10.3729C 0.276141 10.3729 0.499998 10.1491 0.499998 9.87292L -0.500002 9.87292ZM -0.500002 1.80513e-09L -0.500002 9.87292L 0.499998 9.87292L 0.499998 1.80513e-09L -0.500002 1.80513e-09Z"/>
<path id="path9_stroke" d="M 9.89452 0.5C 10.1707 0.5 10.3945 0.276142 10.3945 -3.8147e-07C 10.3945 -0.276143 10.1707 -0.5 9.89452 -0.5L 9.89452 0.5ZM 0 -0.5C -0.276142 -0.5 -0.5 -0.276143 -0.5 -3.8147e-07C -0.5 0.276142 -0.276142 0.5 0 0.5L 0 -0.5ZM 9.89452 -0.5L 0 -0.5L 0 0.5L 9.89452 0.5L 9.89452 -0.5Z"/>
<path id="path10_stroke" d="M 9.89451 0.5C 10.1707 0.5 10.3945 0.276142 10.3945 -3.8147e-07C 10.3945 -0.276143 10.1707 -0.5 9.89451 -0.5L 9.89451 0.5ZM 9.26247e-07 -0.5C -0.276141 -0.5 -0.499999 -0.276143 -0.499999 -3.8147e-07C -0.499999 0.276142 -0.276141 0.5 9.26247e-07 0.5L 9.26247e-07 -0.5ZM 9.89451 -0.5L 9.26247e-07 -0.5L 9.26247e-07 0.5L 9.89451 0.5L 9.89451 -0.5Z"/>
<path id="path11_stroke" d="M 0.353165 -0.353939C 0.15769 -0.548988 -0.158893 -0.548642 -0.353941 -0.353167C -0.54899 -0.157692 -0.548644 0.158891 -0.353169 0.353939L 0.353165 -0.353939ZM 6.68833 7.38007C 6.8838 7.57512 7.20039 7.57477 7.39544 7.3793C 7.59048 7.18382 7.59014 6.86724 7.39466 6.67219L 6.68833 7.38007ZM -0.353169 0.353939L 6.68833 7.38007L 7.39466 6.67219L 0.353165 -0.353939L -0.353169 0.353939Z"/>
<path id="path12_stroke" d="M 1.85249e-06 -9.24226e-07L 1.85249e-06 -0.500001C -0.276141 -0.500001 -0.499998 -0.276143 -0.499998 -9.24226e-07L 1.85249e-06 -9.24226e-07ZM 52.3863 -9.24226e-07L 52.8863 -9.24226e-07C 52.8863 -0.276143 52.6624 -0.500001 52.3863 -0.500001L 52.3863 -9.24226e-07ZM 52.3863 4.60332L 52.3863 5.10332C 52.6624 5.10332 52.8863 4.87947 52.8863 4.60332L 52.3863 4.60332ZM 1.85249e-06 4.60332L -0.499998 4.60332C -0.499998 4.87947 -0.276141 5.10332 1.85249e-06 5.10332L 1.85249e-06 4.60332ZM 1.85249e-06 0.499999L 52.3863 0.499999L 52.3863 -0.500001L 1.85249e-06 -0.500001L 1.85249e-06 0.499999ZM 51.8863 -9.24226e-07L 51.8863 4.60332L 52.8863 4.60332L 52.8863 -9.24226e-07L 51.8863 -9.24226e-07ZM 52.3863 4.10332L 1.85249e-06 4.10332L 1.85249e-06 5.10332L 52.3863 5.10332L 52.3863 4.10332ZM 0.500002 4.60332L 0.500002 -9.24226e-07L -0.499998 -9.24226e-07L -0.499998 4.60332L 0.500002 4.60332Z"/>
<path id="path13_stroke" d="M 2.60386 0.14247C 2.68255 -0.122225 2.53175 -0.400588 2.26706 -0.479271C 2.00236 -0.557954 1.724 -0.407162 1.64532 -0.142466L 2.60386 0.14247ZM -0.479272 7.0048C -0.557955 7.2695 -0.407163 7.54786 -0.142467 7.62655C 0.122228 7.70523 0.400591 7.55444 0.479274 7.28974L -0.479272 7.0048ZM 1.64532 -0.142466L -0.479272 7.0048L 0.479274 7.28974L 2.60386 0.14247L 1.64532 -0.142466Z"/>
<path id="path14_stroke" d="M 4.67074 0.268857C 4.81923 0.0360332 4.75086 -0.273078 4.51803 -0.421563C 4.28521 -0.570048 3.9761 -0.501677 3.82761 -0.268853L 4.67074 0.268857ZM -0.421563 6.39385C -0.570048 6.62668 -0.501677 6.93579 -0.268853 7.08427C -0.0360295 7.23276 0.273082 7.16439 0.421567 6.93157L -0.421563 6.39385ZM 3.82761 -0.268853L -0.421563 6.39385L 0.421567 6.93157L 4.67074 0.268857L 3.82761 -0.268853Z"/>
<path id="path15_stroke" d="M 0.478149 -0.146194C 0.397408 -0.410268 0.117879 -0.558889 -0.146195 -0.478148C -0.41027 -0.397406 -0.558891 -0.117877 -0.478149 0.146197L 0.478149 -0.146194ZM 1.70715 7.29347C 1.78789 7.55754 2.06742 7.70616 2.33149 7.62542C 2.59557 7.54468 2.74419 7.26515 2.66344 7.00108L 1.70715 7.29347ZM -0.478149 0.146197L 1.70715 7.29347L 2.66344 7.00108L 0.478149 -0.146194L -0.478149 0.146197Z"/>
<path id="path16_stroke" d="M 0.421569 -0.268853C 0.273084 -0.501677 -0.0360277 -0.570048 -0.268851 -0.421563C -0.501675 -0.273078 -0.570046 0.0360332 -0.421561 0.268857L 0.421569 -0.268853ZM 3.82762 6.93157C 3.9761 7.16439 4.28521 7.23276 4.51804 7.08427C 4.75086 6.93579 4.81923 6.62668 4.67075 6.39385L 3.82762 6.93157ZM -0.421561 0.268857L 3.82762 6.93157L 4.67075 6.39385L 0.421569 -0.268853L -0.421561 0.268857Z"/>
<path id="path17_stroke" d="M -0.378531 4.03437C -0.558946 4.24343 -0.535727 4.55916 -0.32667 4.73958C -0.117612 4.91999 0.198117 4.89677 0.378533 4.68772L -0.378531 4.03437ZM 4.14209 0.326672C 4.3225 0.117614 4.29928 -0.198116 4.09023 -0.378531C 3.88117 -0.558946 3.56544 -0.535727 3.38502 -0.32667L 4.14209 0.326672ZM 0.378533 4.68772L 4.14209 0.326672L 3.38502 -0.32667L -0.378531 4.03437L 0.378533 4.68772Z"/>
<path id="path18_stroke" d="M 0.348978 -0.358069C 0.151222 -0.550805 -0.165335 -0.546735 -0.35807 -0.348979C -0.550806 -0.151223 -0.546736 0.165334 -0.34898 0.358069L 0.348978 -0.358069ZM 7.48165 7.9899C 7.6794 8.18263 7.99596 8.17856 8.1887 7.98081C 8.38143 7.78305 8.37736 7.4665 8.17961 7.27376L 7.48165 7.9899ZM -0.34898 0.358069L 7.48165 7.9899L 8.17961 7.27376L 0.348978 -0.358069L -0.34898 0.358069Z"/>
<path id="path19_stroke" d="M 10.6915 13.2507L 10.3373 13.6036C 10.4311 13.6978 10.5585 13.7507 10.6915 13.7507L 10.6915 13.2507ZM 12.1483 9.6771L 11.7963 10.0322C 11.89 10.125 12.0165 10.1771 12.1483 10.1771L 12.1483 9.6771ZM 2.86086 0.470449L 2.50769 0.82439L 2.50885 0.825544L 2.86086 0.470449ZM 0.493457 0.531018L 0.14029 0.177079C 0.135163 0.182195 0.130147 0.187421 0.125247 0.192755L 0.493457 0.531018ZM 0.554158 3.07496L 0.908382 2.72208L 0.907325 2.72102L 0.554158 3.07496ZM 10.6915 13.7507L 46.2632 13.7507L 46.2632 12.7507L 10.6915 12.7507L 10.6915 13.7507ZM 46.2632 13.7507C 47.5095 13.7507 48.5235 12.7405 48.5235 11.4942L 47.5235 11.4942C 47.5235 12.1862 46.9593 12.7507 46.2632 12.7507L 46.2632 13.7507ZM 48.5235 11.4942C 48.5235 10.1873 47.5095 9.1771 46.2025 9.1771L 46.2025 10.1771C 46.9593 10.1771 47.5235 10.7417 47.5235 11.4942L 48.5235 11.4942ZM 46.2025 9.1771L 12.1483 9.1771L 12.1483 10.1771L 46.2025 10.1771L 46.2025 9.1771ZM 12.5003 9.322L 3.21286 0.115354L 2.50885 0.825544L 11.7963 10.0322L 12.5003 9.322ZM 3.21402 0.11651C 2.3278 -0.767776 0.979025 -0.659826 0.14029 0.177079L 0.846624 0.884958C 1.34334 0.389321 2.05845 0.376133 2.50769 0.824389L 3.21402 0.11651ZM 0.125247 0.192755C -0.720719 1.11361 -0.720513 2.50941 0.200991 3.4289L 0.907325 2.72102C 0.371968 2.18684 0.372176 1.4021 0.861666 0.869281L 0.125247 0.192755ZM 0.199936 3.42785L 10.3373 13.6036L 11.0457 12.8979L 0.90838 2.72208L 0.199936 3.42785Z"/>
<path id="path20_stroke" d="M -0.234176 1.64537C -0.478159 1.7747 -0.571101 2.07734 -0.441768 2.32132C -0.312435 2.5653 -0.00980309 2.65824 0.23418 2.52891L -0.234176 1.64537ZM 21.4503 3.26275C 21.6982 3.38452 21.9978 3.28232 22.1196 3.03447C 22.2413 2.78663 22.1391 2.48699 21.8913 2.36523L 21.4503 3.26275ZM 1.85249e-06 2.08714C 0.23418 2.52891 0.234005 2.529 0.233867 2.52908C 0.23387 2.52907 0.233768 2.52913 0.233774 2.52912C 0.233786 2.52912 0.233945 2.52903 0.23425 2.52887C 0.234861 2.52855 0.236057 2.52793 0.237835 2.527C 0.241392 2.52515 0.247277 2.52211 0.255462 2.51793C 0.271833 2.50958 0.297402 2.4967 0.33194 2.47978C 0.40102 2.44594 0.505956 2.39597 0.64493 2.33378C 0.922916 2.20937 1.33684 2.03619 1.87218 1.84551C 2.94319 1.46404 4.49794 1.01335 6.42076 0.742438C 10.2636 0.201016 15.577 0.377103 21.4503 3.26275L 21.8913 2.36523C 15.8062 -0.624423 10.2842 -0.811761 6.28125 -0.247782C 4.28117 0.0340099 2.66042 0.503221 1.53665 0.903482C 0.974602 1.10367 0.53632 1.28681 0.236446 1.42101C 0.0864903 1.48812 -0.0289169 1.54302 -0.107947 1.58173C -0.147464 1.60108 -0.177893 1.6164 -0.199006 1.62717C -0.209562 1.63255 -0.21779 1.63681 -0.223661 1.63986C -0.226597 1.64139 -0.228943 1.64261 -0.230697 1.64354C -0.231574 1.644 -0.232302 1.64438 -0.232882 1.64469C -0.233172 1.64484 -0.233496 1.64501 -0.233641 1.64509C -0.233927 1.64524 -0.234176 1.64537 1.85249e-06 2.08714Z"/>
<path id="path21_stroke" d="M -0.48599 38.2839C -0.550905 38.5523 -0.385944 38.8225 -0.11754 38.8874C 0.150865 38.9523 0.421072 38.7874 0.485987 38.519L -0.48599 38.2839ZM 9.77348 0.11754C 9.83839 -0.150865 9.67343 -0.421072 9.40503 -0.485987C 9.13662 -0.550901 8.86641 -0.38594 8.8015 -0.117536L 9.77348 0.11754ZM 0.485987 38.519L 9.77348 0.11754L 8.8015 -0.117536L -0.48599 38.2839L 0.485987 38.519Z"/>
<path id="path22_stroke" d="M -0.486344 2.42789C -0.550437 2.69649 -0.38465 2.9662 -0.116048 3.03029C 0.152553 3.09438 0.422255 2.92859 0.486348 2.65999L -0.486344 2.42789ZM 1.09337 0.116049C 1.15747 -0.152552 0.991679 -0.422254 0.723077 -0.486346C 0.454476 -0.550439 0.184774 -0.384652 0.120681 -0.11605L 1.09337 0.116049ZM 0.486348 2.65999L 1.09337 0.116049L 0.120681 -0.11605L -0.486344 2.42789L 0.486348 2.65999Z"/>
<path id="path23_stroke" d="M 52.5077 28.0218L 52.3844 28.5064C 52.5357 28.5449 52.6962 28.5105 52.8184 28.4136C 52.9407 28.3166 53.0106 28.1681 53.0076 28.0121L 52.5077 28.0218ZM 15.6006 18.6335L 15.7238 18.1489L 15.7229 18.1487L 15.6006 18.6335ZM 1.85249e-06 14.6964L -0.426554 14.4356C -0.509484 14.5712 -0.522996 14.7381 -0.462953 14.8853C -0.40291 15.0325 -0.276465 15.1423 -0.122345 15.1812L 1.85249e-06 14.6964ZM 31.4439 0.886454L 31.3184 1.37044L 31.3189 1.37057L 31.4439 0.886454ZM 52.631 27.5373L 15.7238 18.1489L 15.4773 19.1181L 52.3844 28.5064L 52.631 27.5373ZM 15.7229 18.1487L 0.122349 14.2116L -0.122345 15.1812L 15.4782 19.1183L 15.7229 18.1487ZM 1.85249e-06 14.6964C 0.426558 14.9573 0.426489 14.9574 0.426465 14.9574C 0.426516 14.9574 0.426535 14.9573 0.426636 14.9572C 0.426839 14.9568 0.427217 14.9562 0.427771 14.9553C 0.428879 14.9535 0.43069 14.9506 0.433203 14.9466C 0.438228 14.9385 0.446059 14.9259 0.456682 14.9091C 0.47793 14.8754 0.510345 14.8246 0.553825 14.758C 0.64079 14.6247 0.771987 14.428 0.94659 14.1786C 1.29585 13.6796 1.81845 12.9696 2.50775 12.1324C 3.88722 10.4569 5.92959 8.27748 8.5812 6.25859C 13.8809 2.22346 21.5865 -1.15373 31.3184 1.37044L 31.5695 0.402469C 21.4516 -2.22182 13.4352 1.30598 7.97542 5.46296C 5.24727 7.54012 3.15048 9.77849 1.73574 11.4968C 1.02794 12.3565 0.489658 13.0875 0.127328 13.6052C -0.0538671 13.864 -0.191149 14.0697 -0.283713 14.2116C -0.329997 14.2825 -0.365109 14.3376 -0.388947 14.3753C -0.400867 14.3942 -0.409969 14.4088 -0.416241 14.4189C -0.419377 14.4239 -0.421805 14.4278 -0.423524 14.4306C -0.424384 14.432 -0.425067 14.4331 -0.425572 14.434C -0.425824 14.4344 -0.42607 14.4348 -0.426196 14.435C -0.426397 14.4353 -0.426554 14.4356 1.85249e-06 14.6964ZM 31.3189 1.37057C 41.4529 3.98776 46.6159 10.6377 49.2576 16.654C 50.5802 19.6663 51.2686 22.5172 51.6259 24.6154C 51.8045 25.6639 51.9001 26.5226 51.951 27.1171C 51.9764 27.4144 51.9907 27.6454 51.9985 27.8009C 52.0025 27.8787 52.0048 27.9376 52.0061 27.9764C 52.0068 27.9958 52.0072 28.0103 52.0075 28.0195C 52.0076 28.0241 52.0077 28.0274 52.0077 28.0295C 52.0078 28.0305 52.0078 28.0312 52.0078 28.0315C 52.0078 28.0317 52.0078 28.0317 52.0078 28.0318C 52.0078 28.0317 52.0078 28.0316 52.5077 28.0218C 53.0076 28.0121 53.0076 28.0118 53.0076 28.0114C 53.0076 28.0112 53.0076 28.0107 53.0076 28.0102C 53.0075 28.0092 53.0075 28.0079 53.0075 28.0063C 53.0074 28.003 53.0073 27.9984 53.0071 27.9926C 53.0068 27.9808 53.0063 27.9638 53.0056 27.9418C 53.004 27.8978 53.0015 27.8336 52.9972 27.7504C 52.9888 27.5839 52.9738 27.3413 52.9473 27.0319C 52.8943 26.4131 52.7955 25.5266 52.6117 24.4476C 52.2444 22.2908 51.5366 19.3572 50.1732 16.2519C 47.4426 10.0331 42.0738 3.11532 31.5689 0.402338L 31.3189 1.37057Z"/>
<path id="path24_stroke" d="M -0.471377 17.5239C -0.563462 17.7842 -0.427066 18.0699 -0.16673 18.162C 0.0936067 18.2541 0.3793 18.1177 0.471385 17.8574L -0.471377 17.5239ZM 6.67728 5.69776L 7.05589 6.02436L 7.0579 6.02199L 6.67728 5.69776ZM 16.0436 0.502354C 16.3187 0.525885 16.5608 0.321919 16.5844 0.0467806C 16.6079 -0.228357 16.4039 -0.470477 16.1288 -0.494009L 16.0436 0.502354ZM 3.70499e-06 17.6906C 0.471385 17.8574 0.47137 17.8574 0.471365 17.8574C 0.471376 17.8574 0.471381 17.8574 0.471403 17.8573C 0.471448 17.8572 0.471532 17.857 0.471654 17.8566C 0.471899 17.8559 0.472298 17.8548 0.472852 17.8532C 0.473959 17.8501 0.475684 17.8453 0.478021 17.8388C 0.482696 17.8258 0.489824 17.806 0.499375 17.7798C 0.518477 17.7275 0.547268 17.6494 0.585509 17.5479C 0.661998 17.3448 0.77626 17.0483 0.92639 16.6771C 1.22674 15.9344 1.67017 14.8939 2.24139 13.7051C 3.38679 11.3216 5.03373 8.36849 7.05588 6.02435L 6.29869 5.37116C 4.19306 7.81206 2.50137 10.8554 1.34006 13.272C 0.75794 14.4834 0.306007 15.5439 -0.000669042 16.3022C -0.154051 16.6815 -0.271218 16.9854 -0.350279 17.1953C -0.389813 17.3002 -0.419828 17.3816 -0.440088 17.4372C -0.450218 17.465 -0.45791 17.4863 -0.463135 17.5008C -0.465747 17.5081 -0.467742 17.5137 -0.469117 17.5175C -0.469805 17.5195 -0.470337 17.521 -0.470714 17.522C -0.470902 17.5226 -0.471052 17.523 -0.471162 17.5233C -0.471218 17.5235 -0.471271 17.5236 -0.471299 17.5237C -0.471343 17.5238 -0.471377 17.5239 3.70499e-06 17.6906ZM 7.0579 6.02199C 9.58888 3.05087 11.8746 1.67909 13.4984 1.04537C 14.3117 0.727962 14.964 0.593768 15.4044 0.538078C 15.6247 0.510214 15.7924 0.501959 15.901 0.500331C 15.9553 0.499516 15.9949 0.500359 16.0189 0.501236C 16.031 0.501675 16.0391 0.502123 16.0432 0.502377C 16.0453 0.502504 16.0464 0.502582 16.0464 0.502587C 16.0465 0.502589 16.0462 0.502573 16.0458 0.502535C 16.0455 0.502516 16.0452 0.502492 16.0449 0.502462C 16.0447 0.502447 16.0444 0.50242 16.0443 0.502412C 16.0439 0.502384 16.0436 0.502354 16.0862 0.00417238C 16.1288 -0.494009 16.1284 -0.494042 16.128 -0.494076C 16.1278 -0.494089 16.1274 -0.494124 16.1271 -0.494149C 16.1265 -0.494201 16.1258 -0.494257 16.125 -0.494317C 16.1235 -0.494437 16.1218 -0.494573 16.1197 -0.494723C 16.1157 -0.495021 16.1106 -0.495372 16.1044 -0.495747C 16.0922 -0.496499 16.0758 -0.497353 16.0555 -0.498097C 16.0147 -0.499585 15.958 -0.500636 15.886 -0.499557C 15.7421 -0.4974 15.5375 -0.486727 15.2789 -0.454021C 14.7613 -0.388571 14.0288 -0.235058 13.1348 0.113801C 11.3442 0.812628 8.9254 2.28764 6.29666 5.37352L 7.0579 6.02199Z"/>
<path id="path25_stroke" d="M 5.09136 23.1772C 5.04622 23.4496 5.23046 23.707 5.50289 23.7522C 5.77532 23.7973 6.03276 23.6131 6.07791 23.3407L 5.09136 23.1772ZM 5.46323 9.38836L 5.95093 9.27815L 5.95082 9.27765L 5.46323 9.38836ZM 0.202008 -0.457378C -0.0505949 -0.568941 -0.34581 -0.454607 -0.457374 -0.202004C -0.568938 0.0505986 -0.454603 0.345814 -0.202 0.457378L 0.202008 -0.457378ZM 5.58463 23.2589C 6.07791 23.3407 6.07792 23.3405 6.07795 23.3404C 6.07796 23.3403 6.07799 23.3402 6.07801 23.34C 6.07807 23.3397 6.07814 23.3392 6.07824 23.3387C 6.07842 23.3375 6.07869 23.3359 6.07902 23.3339C 6.0797 23.3297 6.08066 23.3238 6.08191 23.316C 6.08442 23.3004 6.08804 23.2776 6.09267 23.2478C 6.10193 23.1883 6.11521 23.1009 6.13155 22.9878C 6.16421 22.7617 6.2091 22.433 6.25847 22.0198C 6.35719 21.1935 6.474 20.0278 6.54678 18.6671C 6.69194 15.9533 6.66382 12.4327 5.95093 9.27815L 4.97553 9.49857C 5.6588 12.5221 5.69138 15.9369 5.54821 18.6137C 5.47681 19.9485 5.3622 21.092 5.26553 21.9011C 5.21721 22.3056 5.17342 22.6261 5.14182 22.8448C 5.12602 22.9542 5.11328 23.038 5.10455 23.0942C 5.10018 23.1223 5.09682 23.1434 5.09458 23.1573C 5.09346 23.1643 5.09263 23.1694 5.09208 23.1728C 5.09181 23.1744 5.09162 23.1756 5.0915 23.1764C 5.09144 23.1767 5.09139 23.177 5.09137 23.1771C 5.09136 23.1772 5.09136 23.1772 5.09135 23.1772C 5.09135 23.1772 5.09136 23.1772 5.58463 23.2589ZM 5.95082 9.27765C 5.05512 5.33286 3.65734 2.91204 2.45594 1.46714C 1.85599 0.745604 1.30797 0.271045 0.901563 -0.0266782C 0.698494 -0.175442 0.53113 -0.279801 0.410739 -0.34864C 0.350551 -0.383054 0.302124 -0.408581 0.266864 -0.426333C 0.249235 -0.435209 0.234898 -0.442141 0.22403 -0.447268C 0.218596 -0.449832 0.214029 -0.451945 0.210352 -0.453624C 0.208513 -0.454463 0.206896 -0.455195 0.205505 -0.45582C 0.204809 -0.456132 0.204169 -0.456418 0.203586 -0.456677C 0.203295 -0.456807 0.2029 -0.456983 0.202755 -0.457047C 0.202374 -0.457216 0.202008 -0.457378 3.70499e-06 -4.30376e-15C -0.202 0.457378 -0.202339 0.457228 -0.202662 0.457085C -0.202752 0.457045 -0.203062 0.456907 -0.203241 0.456828C -0.203598 0.456668 -0.2039 0.456533 -0.204147 0.456423C -0.20464 0.456201 -0.204911 0.456078 -0.204963 0.456054C -0.205068 0.456006 -0.204297 0.456357 -0.202671 0.457124C -0.199419 0.458658 -0.192749 0.461856 -0.182828 0.466851C -0.162987 0.47684 -0.130141 0.494021 -0.0856407 0.519466C 0.00334461 0.570348 0.139019 0.654324 0.310598 0.780018C 0.653488 1.03121 1.14121 1.45006 1.68702 2.10649C 2.77713 3.41754 4.11097 5.69089 4.97564 9.49907L 5.95082 9.27765Z"/>
</defs>
</svg>
