<svg width="1440" height="540" viewBox="0 0 1440 540" version="1.1" xmlns="http://www.w3.org/2000/svg" xmlns:xlink="http://www.w3.org/1999/xlink">
<title>Vector</title>
<desc>Created using Figma</desc>
<g id="Canvas" transform="translate(-38798 -48)">
<g id="Vector">
<use xlink:href="#path0_fill" transform="translate(38505 -73)" fill="#0BACA2"/>
</g>
</g>
<defs>
<path id="path0_fill" d="M 2108 660.092C 2098.1 663.192 2097 656.192 2086.6 656.192C 2076.2 656.192 2076.2 660.192 2065.8 660.192C 2055.4 660.192 2055.4 656.192 2045 656.192C 2034.6 656.192 2034.6 660.192 2024.2 660.192C 2013.8 660.192 2013.8 656.192 2003.4 656.192C 1993 656.192 1993 660.192 1982.6 660.192C 1972.2 660.192 1972.2 656.192 1961.8 656.192C 1951.4 656.192 1951.4 660.192 1941 660.192C 1930.6 660.192 1930.6 656.192 1920.2 656.192C 1909.8 656.192 1909.8 660.192 1899.4 660.192C 1889 660.192 1889 656.192 1878.6 656.192C 1868.2 656.192 1868.2 660.192 1857.8 660.192C 1847.4 660.192 1847.4 656.192 1837 656.192C 1826.6 656.192 1826.6 660.192 1816.2 660.192C 1805.8 660.192 1805.8 656.192 1795.4 656.192C 1785 656.192 1785 660.192 1774.6 660.192C 1764.2 660.192 1764.2 656.192 1753.8 656.192C 1743.4 656.192 1743.4 660.192 1733 660.192C 1722.6 660.192 1722.6 656.192 1712.2 656.192C 1701.8 656.192 1701.8 660.192 1691.4 660.192C 1681 660.192 1681 656.192 1670.6 656.192C 1660.2 656.192 1660.2 660.192 1649.8 660.192C 1639.4 660.192 1639.4 656.192 1629 656.192C 1618.6 656.192 1618.6 660.192 1608.2 660.192C 1597.8 660.192 1597.8 656.192 1587.4 656.192C 1577 656.192 1577 660.192 1566.6 660.192C 1556.2 660.192 1556.2 656.192 1545.8 656.192C 1535.4 656.192 1535.4 660.192 1525 660.192C 1514.6 660.192 1514.6 656.192 1504.2 656.192C 1493.8 656.192 1493.8 660.192 1483.4 660.192C 1473 660.192 1473 656.192 1462.6 656.192C 1452.2 656.192 1452.2 660.192 1441.8 660.192C 1431.4 660.192 1431.4 656.192 1421 656.192C 1410.6 656.192 1410.6 660.192 1400.2 660.192C 1389.8 660.192 1389.8 656.192 1379.4 656.192C 1369 656.192 1369 660.192 1358.6 660.192C 1348.2 660.192 1348.2 656.192 1337.8 656.192C 1327.4 656.192 1327.4 660.192 1317 660.192C 1306.6 660.192 1306.6 656.192 1296.2 656.192C 1285.8 656.192 1285.8 660.192 1275.4 660.192C 1265 660.192 1265 656.192 1254.6 656.192C 1244.2 656.192 1244.2 660.192 1233.8 660.192C 1223.4 660.192 1223.4 656.192 1213 656.192C 1202.6 656.192 1202.6 660.192 1192.2 660.192C 1181.8 660.192 1181.8 656.192 1171.4 656.192C 1161 656.192 1161 660.192 1150.6 660.192C 1140.2 660.192 1140.2 656.192 1129.8 656.192C 1119.4 656.192 1119.4 660.192 1109 660.192C 1098.6 660.192 1098.6 656.192 1088.2 656.192C 1077.8 656.192 1077.8 660.192 1067.4 660.192C 1057 660.192 1057 656.192 1046.6 656.192C 1036.2 656.192 1036.2 660.192 1025.8 660.192C 1015.4 660.192 1015.4 656.192 1005 656.192C 994.6 656.192 994.6 660.192 984.2 660.192C 973.8 660.192 973.8 656.192 963.4 656.192C 953 656.192 953 660.192 942.6 660.192C 932.2 660.192 932.2 656.192 921.8 656.192C 911.4 656.192 911.4 660.192 901 660.192C 890.6 660.192 890.6 656.192 880.2 656.192C 869.8 656.192 869.8 660.192 859.4 660.192C 849 660.192 849 656.192 838.6 656.192C 828.2 656.192 828.2 660.192 817.8 660.192C 807.4 660.192 807.4 656.192 797 656.192C 786.6 656.192 786.6 660.192 776.2 660.192C 765.8 660.192 765.8 656.192 755.4 656.192C 745 656.192 745 660.192 734.6 660.192C 724.2 660.192 724.2 656.192 713.8 656.192C 703.4 656.192 703.4 660.192 693 660.192C 682.6 660.192 682.6 656.192 672.2 656.192C 661.8 656.192 661.8 660.192 651.4 660.192C 641 660.192 641 656.192 630.6 656.192C 620.2 656.192 620.2 660.192 609.8 660.192C 599.4 660.192 599.4 656.192 589 656.192C 578.6 656.192 578.6 660.192 568.2 660.192C 557.8 660.192 557.8 656.192 547.4 656.192C 537 656.192 537 660.192 526.6 660.192C 516.2 660.192 516.2 656.192 505.8 656.192C 495.4 656.192 495.4 660.192 485 660.192C 474.6 660.192 474.6 656.192 464.2 656.192C 453.8 656.192 453.8 660.192 443.4 660.192C 433 660.192 433 656.192 422.6 656.192C 412.2 656.192 412.2 660.192 401.8 660.192C 391.4 660.192 391.4 656.192 381 656.192C 370.6 656.192 370.6 660.192 360.2 660.192C 349.8 660.192 349.8 656.192 339.4 656.192C 329 656.192 329 660.192 318.5 660.192C 308.1 660.192 308.1 656.192 297.7 656.192C 287.3 656.192 287.3 660.192 276.9 660.192C 266.5 660.192 266.5 656.192 256.1 656.192C 245.7 656.192 245.7 660.192 235.3 660.192C 224.9 660.192 224.9 656.192 214.5 656.192C 204.1 656.192 204.1 660.192 193.6 660.192C 183.2 660.192 183.2 656.192 172.8 656.192C 162.4 656.192 162.4 660.192 152 660.192C 141.6 660.192 141.6 656.192 131.2 656.192C 120.8 656.192 120.8 660.192 110.3 660.192C 99.9 660.192 99.9 656.192 89.4 656.192C 79 656.192 79 660.192 68.5 660.192C 58.1 660.192 58.1 656.192 47.6 656.192C 37.2 656.192 37.2 660.192 26.7 660.192C 16.2 660.192 16.4 659.392 6.4 656.292C 3.3 655.292 3.8 654.992 3.8 651.692C 3.8 648.492 7.8 648.492 7.8 645.192C 7.8 641.992 3.8 641.992 3.8 638.692C 3.8 635.492 7.8 635.492 7.8 632.192C 7.8 628.992 3.8 628.992 3.8 625.692C 3.8 622.492 7.8 622.492 7.8 619.192C 7.8 615.992 3.8 615.992 3.8 612.692C 3.8 609.492 7.8 609.492 7.8 606.192C 7.8 602.992 3.8 602.992 3.8 599.692C 3.8 596.492 7.8 596.492 7.8 593.192C 7.8 589.992 3.8 589.992 3.8 586.692C 3.8 583.492 7.8 583.492 7.8 580.192C 7.8 576.992 3.8 576.992 3.8 573.692C 3.8 570.492 7.8 570.492 7.8 567.192C 7.8 563.992 3.8 563.992 3.8 560.692C 3.8 557.492 7.8 557.492 7.8 554.192C 7.8 550.992 3.8 550.992 3.8 547.692C 3.8 544.492 7.8 544.492 7.8 541.192C 7.8 537.992 3.8 537.992 3.8 534.692C 3.8 531.492 7.8 531.492 7.8 528.192C 7.8 524.992 3.8 524.992 3.8 521.692C 3.8 518.492 7.8 518.492 7.8 515.192C 7.8 511.992 3.8 511.992 3.8 508.692C 3.8 505.492 7.8 505.492 7.8 502.192C 7.8 498.992 3.8 498.992 3.8 495.692C 3.8 492.492 7.8 492.492 7.8 489.192C 7.8 485.992 3.8 485.992 3.8 482.692C 3.8 479.492 7.8 479.492 7.8 476.192C 7.8 472.992 3.8 472.992 3.8 469.692C 3.8 466.492 7.8 466.492 7.8 463.192C 7.8 459.992 3.8 459.992 3.8 456.692C 3.8 453.492 7.8 453.492 7.8 450.192C 7.8 446.992 3.8 446.992 3.8 443.692C 3.8 440.492 7.8 440.492 7.8 437.192C 7.8 433.992 3.8 433.992 3.8 430.692C 3.8 427.492 7.8 427.492 7.8 424.192C 7.8 420.992 3.8 420.992 3.8 417.692C 3.8 414.492 7.8 414.492 7.8 411.192C 7.8 407.992 3.8 407.992 3.8 404.692C 3.8 401.492 7.8 401.492 7.8 398.192C 7.8 394.992 3.8 394.992 3.8 391.692C 3.8 388.492 7.8 388.492 7.8 385.192C 7.8 381.992 3.8 381.992 3.8 378.692C 3.8 375.492 7.8 375.492 7.8 372.192C 7.8 368.992 3.8 368.992 3.8 365.692C 3.8 362.492 7.8 362.492 7.8 359.192C 7.8 355.992 3.8 355.992 3.8 352.692C 3.8 349.492 7.8 349.492 7.8 346.192C 7.8 342.992 3.8 342.992 3.8 339.692C 3.8 336.492 7.8 336.492 7.8 333.192C 7.8 329.992 3.8 329.992 3.8 326.692C 3.8 323.492 7.8 323.492 7.8 320.192C 7.8 316.992 3.8 316.992 3.8 313.692C 3.8 310.492 7.8 310.492 7.8 307.192C 7.8 303.992 3.8 303.992 3.8 300.692C 3.8 297.492 7.8 297.492 7.8 294.192C 7.8 290.992 3.8 290.992 3.8 287.692C 3.8 284.492 7.8 284.492 7.8 281.192C 7.8 277.992 3.8 277.992 3.8 274.692C 3.8 271.492 7.8 271.492 7.8 268.192C 7.8 264.992 3.8 264.992 3.8 261.692C 3.8 258.492 7.8 258.492 7.8 255.192C 7.8 251.992 3.8 251.992 3.8 248.692C 3.8 245.492 7.8 245.492 7.8 242.192C 7.8 238.992 3.8 238.992 3.8 235.692C 3.8 232.492 7.8 232.492 7.8 229.192C 7.8 225.992 3.8 225.992 3.8 222.692C 3.8 219.492 7.8 219.492 7.8 216.192C 7.8 212.992 3.8 212.992 3.8 209.692C 3.8 206.492 7.8 206.492 7.8 203.192C 7.8 199.992 3.8 199.992 3.8 196.692C 3.8 193.492 7.8 193.492 7.8 190.192C 7.8 186.992 3.8 186.992 3.8 183.692C 3.8 180.492 7.8 180.492 7.8 177.192C 7.8 173.992 3.8 173.992 3.8 170.692C 3.8 167.492 7.8 167.492 7.8 164.192C 7.8 160.992 3.8 160.992 3.8 157.692C 3.8 154.492 7.8 154.492 7.8 151.192C 7.8 147.992 3.8 147.992 3.8 144.692C 3.8 141.492 7.8 141.492 7.8 138.192C 7.8 134.992 3.8 134.992 3.8 131.692C 3.8 128.492 7.8 128.492 7.8 125.192C 7.8 121.992 3.8 121.992 3.8 118.692C 3.8 115.492 7.8 115.492 7.8 112.192C 7.8 108.992 3.8 108.992 3.8 105.692C 3.8 102.492 7.8 102.492 7.8 99.192C 7.8 95.992 3.8 95.992 3.8 92.692C 3.8 89.492 7.8 89.492 7.8 86.192C 7.8 82.992 3.8 82.992 3.8 79.692C 3.8 76.492 7.8 76.492 7.8 73.192C 7.8 69.992 3.8 69.992 3.8 66.692C 3.8 63.492 7.8 63.492 7.8 60.192C 7.8 56.992 3.8 56.992 3.8 53.692C 3.8 50.492 7.8 50.492 7.8 47.192C 7.8 43.992 3.8 43.992 3.8 40.692C 3.8 37.492 7.8 37.492 7.8 34.192C 7.8 30.992 3.8 30.992 3.8 27.692C 3.8 24.492 7.8 24.492 7.8 21.192C 4 18.992 0 18.992 0 15.692C 0 12.392 4 12.392 4 9.19204C 4 5.99204 -1.7 1.79204 1.4 0.792042C 11.3 -2.30796 12.4 4.69204 22.8 4.69204C 33.2 4.69204 33.2 0.692042 43.6 0.692042C 54 0.692042 54 4.69204 64.4 4.69204C 74.8 4.69204 74.8 0.692042 85.2 0.692042C 95.6 0.692042 95.6 4.69204 106 4.69204C 116.4 4.69204 116.4 0.692042 126.8 0.692042C 137.2 0.692042 137.2 4.69204 147.6 4.69204C 158 4.69204 158 0.692042 168.4 0.692042C 178.8 0.692042 178.8 4.69204 189.2 4.69204C 199.6 4.69204 199.6 0.692042 210 0.692042C 220.4 0.692042 220.4 4.69204 230.8 4.69204C 241.2 4.69204 241.2 0.692042 251.6 0.692042C 262 0.692042 262 4.69204 272.4 4.69204C 282.8 4.69204 282.8 0.692042 293.2 0.692042C 303.6 0.692042 303.6 4.69204 314 4.69204C 324.4 4.69204 324.4 0.692042 334.8 0.692042C 345.2 0.692042 345.2 4.69204 355.6 4.69204C 366 4.69204 366 0.692042 376.4 0.692042C 386.8 0.692042 386.8 4.69204 397.2 4.69204C 407.6 4.69204 407.6 0.692042 418 0.692042C 428.4 0.692042 428.4 4.69204 438.8 4.69204C 449.2 4.69204 449.2 0.692042 459.6 0.692042C 470 0.692042 470 4.69204 480.4 4.69204C 490.8 4.69204 490.8 0.692042 501.2 0.692042C 511.6 0.692042 511.6 4.69204 522 4.69204C 532.4 4.69204 532.4 0.692042 542.8 0.692042C 553.2 0.692042 553.2 4.69204 563.6 4.69204C 574 4.69204 574 0.692042 584.4 0.692042C 594.8 0.692042 594.8 4.69204 605.2 4.69204C 615.6 4.69204 615.6 0.692042 626 0.692042C 636.4 0.692042 636.4 4.69204 646.8 4.69204C 657.2 4.69204 657.2 0.692042 667.6 0.692042C 678 0.692042 678 4.69204 688.4 4.69204C 698.8 4.69204 698.8 0.692042 709.2 0.692042C 719.6 0.692042 719.6 4.69204 730 4.69204C 740.4 4.69204 740.4 0.692042 750.8 0.692042C 761.2 0.692042 761.2 4.69204 771.6 4.69204C 782 4.69204 782 0.692042 792.4 0.692042C 802.8 0.692042 802.8 4.69204 813.2 4.69204C 823.6 4.69204 823.6 0.692042 834 0.692042C 844.4 0.692042 844.4 4.69204 854.8 4.69204C 865.2 4.69204 865.2 0.692042 875.6 0.692042C 886 0.692042 886 4.69204 896.4 4.69204C 906.8 4.69204 906.8 0.692042 917.2 0.692042C 927.6 0.692042 927.6 4.69204 938 4.69204C 948.4 4.69204 948.4 0.692042 958.8 0.692042C 969.2 0.692042 969.2 4.69204 979.6 4.69204C 990 4.69204 990 0.692042 1000.4 0.692042C 1010.8 0.692042 1010.8 4.69204 1021.2 4.69204C 1031.6 4.69204 1031.6 0.692042 1042 0.692042C 1052.4 0.692042 1052.4 4.69204 1062.8 4.69204C 1073.2 4.69204 1073.2 0.692042 1083.6 0.692042C 1094 0.692042 1094 4.69204 1104.4 4.69204C 1114.8 4.69204 1114.8 0.692042 1125.2 0.692042C 1135.6 0.692042 1135.6 4.69204 1146 4.69204C 1156.4 4.69204 1156.4 0.692042 1166.8 0.692042C 1177.2 0.692042 1177.2 4.69204 1187.6 4.69204C 1198 4.69204 1198 0.692042 1208.4 0.692042C 1218.8 0.692042 1218.8 4.69204 1229.2 4.69204C 1239.6 4.69204 1239.6 0.692042 1250 0.692042C 1260.4 0.692042 1260.4 4.69204 1270.8 4.69204C 1281.2 4.69204 1281.2 0.692042 1291.6 0.692042C 1302 0.692042 1302 4.69204 1312.4 4.69204C 1322.8 4.69204 1322.8 0.692042 1333.2 0.692042C 1343.6 0.692042 1343.6 4.69204 1354 4.69204C 1364.4 4.69204 1364.4 0.692042 1374.8 0.692042C 1385.2 0.692042 1385.2 4.69204 1395.6 4.69204C 1406 4.69204 1406 0.692042 1416.4 0.692042C 1426.8 0.692042 1426.8 4.69204 1437.2 4.69204C 1447.6 4.69204 1447.6 0.692042 1458 0.692042C 1468.4 0.692042 1468.4 4.69204 1478.8 4.69204C 1489.2 4.69204 1489.2 0.692042 1499.6 0.692042C 1510 0.692042 1510 4.69204 1520.4 4.69204C 1530.8 4.69204 1530.8 0.692042 1541.2 0.692042C 1551.6 0.692042 1551.6 4.69204 1562 4.69204C 1572.4 4.69204 1572.4 0.692042 1582.8 0.692042C 1593.2 0.692042 1593.2 4.69204 1603.6 4.69204C 1614 4.69204 1614 0.692042 1624.4 0.692042C 1634.8 0.692042 1634.8 4.69204 1645.2 4.69204C 1655.6 4.69204 1655.6 0.692042 1666 0.692042C 1676.4 0.692042 1676.4 4.69204 1686.8 4.69204C 1697.2 4.69204 1697.2 0.692042 1707.6 0.692042C 1718 0.692042 1718 4.69204 1728.4 4.69204C 1738.8 4.69204 1738.8 0.692042 1749.2 0.692042C 1759.6 0.692042 1759.6 4.69204 1770 4.69204C 1780.4 4.69204 1780.4 0.692042 1790.8 0.692042C 1801.2 0.692042 1801.2 4.69204 1811.6 4.69204C 1822 4.69204 1822 0.692042 1832.4 0.692042C 1842.8 0.692042 1842.8 4.69204 1853.2 4.69204C 1863.6 4.69204 1863.6 0.692042 1874 0.692042C 1884.4 0.692042 1884.4 4.69204 1894.8 4.69204C 1905.2 4.69204 1905.2 0.692042 1915.7 0.692042C 1926.1 0.692042 1926.1 4.69204 1936.5 4.69204C 1946.9 4.69204 1946.9 0.692042 1957.3 0.692042C 1967.7 0.692042 1967.7 4.69204 1978.1 4.69204C 1988.5 4.69204 1988.5 0.692042 1999 0.692042C 2009.4 0.692042 2009.4 4.69204 2019.9 4.69204C 2030.3 4.69204 2030.3 0.692042 2040.8 0.692042C 2051.2 0.692042 2051.2 4.69204 2061.7 4.69204C 2072.1 4.69204 2072.1 0.692042 2082.6 0.692042C 2093.1 0.692042 2092.9 1.49204 2102.9 4.59204C 2106 5.59204 2105.5 5.89204 2105.5 9.19204C 2105.5 12.392 2101.5 12.392 2101.5 15.692C 2101.5 18.892 2105.5 18.892 2105.5 22.192C 2105.5 25.392 2101.5 25.392 2101.5 28.692C 2101.5 31.892 2105.5 31.892 2105.5 35.192C 2105.5 38.392 2101.5 38.392 2101.5 41.692C 2101.5 44.892 2105.5 44.892 2105.5 48.192C 2105.5 51.392 2101.5 51.392 2101.5 54.692C 2101.5 57.892 2105.5 57.892 2105.5 61.192C 2105.5 64.392 2101.5 64.392 2101.5 67.692C 2101.5 70.892 2105.5 70.892 2105.5 74.192C 2105.5 77.392 2101.5 77.392 2101.5 80.692C 2101.5 83.892 2105.5 83.892 2105.5 87.192C 2105.5 90.392 2101.5 90.392 2101.5 93.692C 2101.5 96.892 2105.5 96.892 2105.5 100.192C 2105.5 103.392 2101.5 103.392 2101.5 106.692C 2101.5 109.892 2105.5 109.892 2105.5 113.192C 2105.5 116.392 2101.5 116.392 2101.5 119.692C 2101.5 122.892 2105.5 122.892 2105.5 126.192C 2105.5 129.392 2101.5 129.392 2101.5 132.692C 2101.5 135.892 2105.5 135.892 2105.5 139.192C 2105.5 142.392 2101.5 142.392 2101.5 145.692C 2101.5 148.892 2105.5 148.892 2105.5 152.192C 2105.5 155.392 2101.5 155.392 2101.5 158.692C 2101.5 161.892 2105.5 161.892 2105.5 165.192C 2105.5 168.392 2101.5 168.392 2101.5 171.692C 2101.5 174.892 2105.5 174.892 2105.5 178.192C 2105.5 181.392 2101.5 181.392 2101.5 184.692C 2101.5 187.892 2105.5 187.892 2105.5 191.192C 2105.5 194.392 2101.5 194.392 2101.5 197.692C 2101.5 200.892 2105.5 200.892 2105.5 204.192C 2105.5 207.392 2101.5 207.392 2101.5 210.692C 2101.5 213.892 2105.5 213.892 2105.5 217.192C 2105.5 220.392 2101.5 220.392 2101.5 223.692C 2101.5 226.892 2105.5 226.892 2105.5 230.192C 2105.5 233.392 2101.5 233.392 2101.5 236.692C 2101.5 239.892 2105.5 239.892 2105.5 243.192C 2105.5 246.392 2101.5 246.392 2101.5 249.692C 2101.5 252.892 2105.5 252.892 2105.5 256.192C 2105.5 259.392 2101.5 259.392 2101.5 262.692C 2101.5 265.892 2105.5 265.892 2105.5 269.192C 2105.5 272.392 2101.5 272.392 2101.5 275.692C 2101.5 278.892 2105.5 278.892 2105.5 282.192C 2105.5 285.392 2101.5 285.392 2101.5 288.692C 2101.5 291.892 2105.5 291.892 2105.5 295.192C 2105.5 298.392 2101.5 298.392 2101.5 301.692C 2101.5 304.892 2105.5 304.892 2105.5 308.192C 2105.5 311.392 2101.5 311.392 2101.5 314.692C 2101.5 317.892 2105.5 317.892 2105.5 321.192C 2105.5 324.392 2101.5 324.392 2101.5 327.692C 2101.5 330.892 2105.5 330.892 2105.5 334.192C 2105.5 337.392 2101.5 337.392 2101.5 340.692C 2101.5 343.892 2105.5 343.892 2105.5 347.192C 2105.5 350.392 2101.5 350.392 2101.5 353.692C 2101.5 356.892 2105.5 356.892 2105.5 360.192C 2105.5 363.392 2101.5 363.392 2101.5 366.692C 2101.5 369.892 2105.5 369.892 2105.5 373.192C 2105.5 376.392 2101.5 376.392 2101.5 379.692C 2101.5 382.892 2105.5 382.892 2105.5 386.192C 2105.5 389.392 2101.5 389.392 2101.5 392.692C 2101.5 395.892 2105.5 395.892 2105.5 399.192C 2105.5 402.392 2101.5 402.392 2101.5 405.692C 2101.5 408.892 2105.5 408.892 2105.5 412.192C 2105.5 415.392 2101.5 415.392 2101.5 418.692C 2101.5 421.892 2105.5 421.892 2105.5 425.192C 2105.5 428.392 2101.5 428.392 2101.5 431.692C 2101.5 434.892 2105.5 434.892 2105.5 438.192C 2105.5 441.392 2101.5 441.392 2101.5 444.692C 2101.5 447.892 2105.5 447.892 2105.5 451.192C 2105.5 454.392 2101.5 454.392 2101.5 457.692C 2101.5 460.892 2105.5 460.892 2105.5 464.192C 2105.5 467.392 2101.5 467.392 2101.5 470.692C 2101.5 473.892 2105.5 473.892 2105.5 477.192C 2105.5 480.392 2101.5 480.392 2101.5 483.692C 2101.5 486.892 2105.5 486.892 2105.5 490.192C 2105.5 493.392 2101.5 493.392 2101.5 496.692C 2101.5 499.892 2105.5 499.892 2105.5 503.192C 2105.5 506.392 2101.5 506.392 2101.5 509.692C 2101.5 512.892 2105.5 512.892 2105.5 516.192C 2105.5 519.392 2101.5 519.392 2101.5 522.692C 2101.5 525.892 2105.5 525.892 2105.5 529.192C 2105.5 532.392 2101.5 532.392 2101.5 535.692C 2101.5 538.892 2105.5 538.892 2105.5 542.192C 2105.5 545.392 2101.5 545.392 2101.5 548.692C 2101.5 551.892 2105.5 551.892 2105.5 555.192C 2105.5 558.392 2101.5 558.392 2101.5 561.692C 2101.5 564.892 2105.5 564.892 2105.5 568.192C 2105.5 571.392 2101.5 571.392 2101.5 574.692C 2101.5 577.892 2105.5 577.892 2105.5 581.192C 2105.5 584.392 2101.5 584.392 2101.5 587.692C 2101.5 590.892 2105.5 590.892 2105.5 594.192C 2105.5 597.392 2101.5 597.392 2101.5 600.692C 2101.5 603.892 2105.5 603.892 2105.5 607.192C 2105.5 610.392 2101.5 610.392 2101.5 613.692C 2101.5 616.992 2105.5 616.892 2105.5 620.192C 2105.5 623.492 2101.5 623.392 2101.5 626.692C 2101.5 629.892 2105.5 629.892 2105.5 633.192C 2105.5 636.392 2101.5 636.392 2101.5 639.692C 2101.5 642.892 2105.5 642.892 2105.5 646.192C 2105.5 649.492 2100.7 650.092 2101.6 653.192C 2106.7 656.592 2111.1 659.092 2108 660.092Z"/>
</defs>
</svg>
