<svg width="190" height="163" viewBox="0 0 190 163" version="1.1" xmlns="http://www.w3.org/2000/svg" xmlns:xlink="http://www.w3.org/1999/xlink">
<title>Group</title>
<desc>Created using Figma</desc>
<g id="Canvas" transform="translate(-39440 -1746)">
<g id="Group">
<g id="Vector">
<use xlink:href="#path0_stroke" transform="translate(39460 1893.22)" fill="#18A29B"/>
</g>
<g id="Vector">
<use xlink:href="#path1_stroke" transform="translate(39579 1885.48)" fill="#18A29B"/>
</g>
<g id="Vector">
<use xlink:href="#path2_stroke" transform="translate(39483.5 1895)" fill="#18A29B"/>
</g>
<g id="Vector">
<use xlink:href="#path3_stroke" transform="translate(39508.3 1895)" fill="#18A29B"/>
</g>
<g id="Vector">
<use xlink:href="#path2_stroke" transform="translate(39533.1 1895)" fill="#18A29B"/>
</g>
<g id="Vector">
<use xlink:href="#path4_stroke" transform="translate(39470.3 1895)" fill="#18A29B"/>
</g>
<g id="Vector">
<use xlink:href="#path5_stroke" transform="translate(39558 1895)" fill="#18A29B"/>
</g>
<g id="Vector">
<use xlink:href="#path6_stroke" transform="translate(39441 1805.83)" fill="#18A29B"/>
</g>
<g id="Vector">
<use xlink:href="#path7_stroke" transform="translate(39511.2 1827.58)" fill="#18A29B"/>
</g>
<g id="Vector">
<use xlink:href="#path8_stroke" transform="translate(39461.8 1752.46)" fill="#18A29B"/>
</g>
<g id="Vector">
<use xlink:href="#path9_stroke" transform="translate(39496 1890.78)" fill="#18A29B"/>
</g>
<g id="Vector">
<use xlink:href="#path10_stroke" transform="translate(39496 1747)" fill="#18A29B"/>
</g>
<g id="Vector">
<use xlink:href="#path11_stroke" transform="translate(39541 1819.88)" fill="#18A29B"/>
</g>
<g id="Vector">
<use xlink:href="#path12_stroke" transform="translate(39541 1890.63)" fill="#18A29B"/>
</g>
<g id="Vector">
<use xlink:href="#path11_stroke" transform="translate(39541 1819.88)" fill="#18A29B"/>
</g>
<g id="Vector">
<use xlink:href="#path13_stroke" transform="translate(39541 1778.52)" fill="#18A29B"/>
</g>
<g id="Vector">
<use xlink:href="#path14_stroke" transform="translate(39550.2 1830.07)" fill="#18A29B"/>
</g>
<g id="Vector">
<use xlink:href="#path15_stroke" transform="translate(39509.3 1791.06)" fill="#18A29B"/>
</g>
<g id="Vector">
<use xlink:href="#path16_stroke" transform="translate(39443.5 1904.15)" fill="#18A29B"/>
</g>
<g id="Vector">
<use xlink:href="#path17_stroke" transform="translate(39607.2 1877.93)" fill="#18A29B"/>
</g>
<g id="Vector">
<use xlink:href="#path18_stroke" transform="translate(39463.2 1899.26)" fill="#18A29B"/>
</g>
<g id="Vector">
<use xlink:href="#path19_stroke" transform="translate(39542.3 1821.13)" fill="#18A29B"/>
</g>
</g>
</g>
<defs>
<path id="path0_stroke" d="M 12.011 15.2249C 12.2557 15.3529 12.5578 15.2583 12.6858 15.0136C 12.8138 14.7689 12.7193 14.4668 12.4746 14.3388L 12.011 15.2249ZM 5.2395 8.85162L 5.62164 8.52917L 5.62036 8.52767L 5.2395 8.85162ZM 3.95785e-07 0.00832631L 3.95785e-07 -0.491674C -0.167458 -0.491674 -0.323798 -0.407843 -0.416466 -0.268361C -0.509133 -0.128879 -0.525822 0.0477313 -0.460923 0.202103L 3.95785e-07 0.00832631ZM 124.659 0.00832631L 124.659 0.508326C 124.758 0.508326 124.854 0.478979 124.937 0.423998L 124.659 0.00832631ZM 115.84 5.57439L 116.125 5.98512L 116.126 5.98432L 115.84 5.57439ZM 107.097 12.4894C 106.894 12.6765 106.881 12.9928 107.068 13.1959C 107.255 13.399 107.571 13.4119 107.775 13.2248L 107.097 12.4894ZM 12.2428 14.7818C 12.4746 14.3388 12.4747 14.3388 12.4748 14.3389C 12.4748 14.3389 12.4748 14.3389 12.4748 14.3389C 12.4749 14.339 12.4749 14.3389 12.4748 14.3389C 12.4746 14.3388 12.4743 14.3386 12.4737 14.3383C 12.4726 14.3377 12.4705 14.3367 12.4677 14.3351C 12.462 14.3321 12.4529 14.3272 12.4406 14.3205C 12.4159 14.3071 12.3782 14.2864 12.3284 14.2582C 12.2288 14.2019 12.0808 14.1159 11.8917 13.9998C 11.5133 13.7674 10.9707 13.4143 10.3218 12.9359C 9.02333 11.9785 7.30317 10.5219 5.62163 8.52917L 4.85737 9.17408C 6.59967 11.2388 8.38116 12.7474 9.72836 13.7407C 10.4023 14.2376 10.9685 14.6063 11.3683 14.8519C 11.5683 14.9747 11.7266 15.0667 11.8362 15.1287C 11.891 15.1596 11.9335 15.1831 11.963 15.1991C 11.9777 15.2071 11.9891 15.2132 11.9972 15.2175C 12.0012 15.2197 12.0044 15.2214 12.0067 15.2226C 12.0078 15.2232 12.0088 15.2237 12.0095 15.2241C 12.0099 15.2243 12.0102 15.2244 12.0104 15.2245C 12.0105 15.2246 12.0107 15.2247 12.0108 15.2247C 12.0109 15.2248 12.011 15.2249 12.2428 14.7818ZM 5.62036 8.52767C 4.15063 6.79978 2.86066 4.62598 1.9336 2.87004C 1.4715 1.99477 1.10247 1.22891 0.84921 0.682421C 0.722622 0.409264 0.62507 0.191155 0.55939 0.0418714C 0.526554 -0.032764 0.501692 -0.0901764 0.485161 -0.128642C 0.476896 -0.147875 0.470714 -0.162369 0.466659 -0.171909C 0.464632 -0.176679 0.463137 -0.180211 0.462179 -0.182477C 0.4617 -0.183609 0.461356 -0.184426 0.461146 -0.184923C 0.461042 -0.185171 0.460971 -0.185339 0.460934 -0.185427C 0.460915 -0.185472 0.460913 -0.185477 0.460903 -0.185499C 0.46091 -0.185485 0.460924 -0.18545 3.95785e-07 0.00832631C -0.460923 0.202103 -0.460892 0.202178 -0.460852 0.202273C -0.460827 0.202332 -0.460778 0.202448 -0.460729 0.202565C -0.46063 0.2028 -0.460497 0.203116 -0.46033 0.203512C -0.459996 0.204304 -0.459527 0.205417 -0.458922 0.206848C -0.457712 0.209709 -0.455962 0.213842 -0.453677 0.21922C -0.449106 0.229974 -0.442395 0.245706 -0.433588 0.2662C -0.415974 0.307185 -0.389972 0.367223 -0.355937 0.444581C -0.287873 0.599286 -0.187647 0.823342 -0.0580963 1.10289C 0.200923 1.66181 0.577611 2.44353 1.04928 3.33692C 1.98977 5.1183 3.31955 7.36615 4.85864 9.17558L 5.62036 8.52767ZM 3.95785e-07 0.508326L 124.659 0.508326L 124.659 -0.491674L 3.95785e-07 -0.491674L 3.95785e-07 0.508326ZM 124.937 0.423998C 124.94 0.421521 124.959 0.409406 124.977 0.394679C 124.982 0.390658 124.996 0.380275 125.011 0.365843C 125.019 0.358117 125.038 0.338096 125.05 0.325503C 125.067 0.303575 125.112 0.234121 125.135 0.184723C 125.165 0.0668623 125.105 -0.245584 124.974 -0.396824C 124.861 -0.461882 124.678 -0.499933 124.62 -0.497503C 124.591 -0.493689 124.545 -0.484089 124.528 -0.479415C 124.517 -0.476028 124.498 -0.469711 124.491 -0.466857C 124.465 -0.457141 124.445 -0.447038 124.442 -0.445555C 124.435 -0.441864 124.428 -0.438451 124.424 -0.436087C 124.415 -0.431239 124.406 -0.42596 124.397 -0.42109C 124.363 -0.401831 124.307 -0.368931 124.234 -0.325758C 124.086 -0.238183 123.855 -0.10014 123.562 0.0769872C 122.975 0.431463 122.134 0.944463 121.192 1.52739C 119.312 2.69123 117.019 4.14128 115.553 5.16446L 116.126 5.98432C 117.566 4.97875 119.838 3.54173 121.718 2.3777C 122.657 1.7967 123.495 1.28557 124.079 0.932908C 124.371 0.756466 124.599 0.620189 124.743 0.534841C 124.816 0.491553 124.864 0.46334 124.889 0.449604C 124.895 0.446226 124.897 0.445013 124.897 0.445171C 124.897 0.445189 124.894 0.446707 124.889 0.448959C 124.889 0.449002 124.871 0.458121 124.847 0.467314C 124.84 0.470037 124.822 0.476252 124.811 0.479566C 124.795 0.484167 124.749 0.493723 124.72 0.497522C 124.662 0.499937 124.478 0.461899 124.366 0.396884C 124.234 0.245687 124.174 -0.0666874 124.205 -0.184447C 124.228 -0.233744 124.272 -0.303068 124.29 -0.324836C 124.301 -0.33727 124.32 -0.357103 124.328 -0.36461C 124.343 -0.378606 124.355 -0.388436 124.36 -0.391786C 124.375 -0.403828 124.387 -0.411371 124.381 -0.407346L 124.937 0.423998ZM 115.555 5.16366C 114.513 5.88704 112.386 7.73145 110.547 9.36898C 109.621 10.1931 108.759 10.973 108.128 11.5469C 107.812 11.8338 107.555 12.0693 107.376 12.2331C 107.287 12.315 107.217 12.379 107.17 12.4226C 107.146 12.4443 107.128 12.461 107.116 12.4722C 107.109 12.4779 107.105 12.4821 107.102 12.485C 107.1 12.4864 107.099 12.4875 107.098 12.4882C 107.098 12.4886 107.098 12.4889 107.097 12.4891C 107.097 12.4892 107.097 12.4892 107.097 12.4893C 107.097 12.4893 107.097 12.4894 107.436 12.8571C 107.775 13.2248 107.775 13.2248 107.775 13.2248C 107.775 13.2247 107.775 13.2247 107.775 13.2246C 107.775 13.2244 107.775 13.2242 107.776 13.2238C 107.776 13.2231 107.778 13.2221 107.779 13.2207C 107.782 13.2179 107.787 13.2137 107.793 13.2082C 107.805 13.1971 107.823 13.1805 107.846 13.1589C 107.893 13.1157 107.963 13.052 108.052 12.9704C 108.23 12.8073 108.486 12.5726 108.801 12.2865C 109.43 11.7143 110.289 10.9369 111.211 10.1159C 113.068 8.46321 115.144 6.66626 116.125 5.98512L 115.555 5.16366Z"/>
<path id="path1_stroke" d="M 5.69804 7.7509L 5.69804 8.2509C 5.75355 8.2509 5.80866 8.24166 5.86113 8.22355L 5.69804 7.7509ZM 28.1605 0L 28.3236 0.472652C 28.5544 0.392987 28.694 0.158185 28.6536 -0.0826854C 28.6132 -0.323556 28.4047 -0.5 28.1605 -0.5L 28.1605 0ZM 23.5 0L 23.5 -0.5C 23.4468 -0.5 23.3939 -0.491506 23.3434 -0.474839L 23.5 0ZM 0 7.7509L -0.156614 7.27606C -0.389786 7.35297 -0.532616 7.58779 -0.49367 7.83021C -0.454724 8.07263 -0.245527 8.2509 -5.2163e-17 8.2509L 0 7.7509ZM 5.86113 8.22355L 28.3236 0.472652L 27.9974 -0.472652L 5.53495 7.27825L 5.86113 8.22355ZM 28.1605 -0.5L 23.5 -0.5L 23.5 0.5L 28.1605 0.5L 28.1605 -0.5ZM 23.3434 -0.474839L -0.156614 7.27606L 0.156614 8.22574L 23.6566 0.474839L 23.3434 -0.474839ZM 0 8.2509L 5.69804 8.2509L 5.69804 7.2509L 0 7.2509L 0 8.2509Z"/>
<path id="path2_stroke" d="M 0 3.17501e-06L 0 -0.499997C -0.276142 -0.499997 -0.5 -0.276139 -0.5 3.17501e-06L 0 3.17501e-06ZM 22.9293 3.17501e-06L 23.4293 3.17501e-06C 23.4293 -0.276139 23.2055 -0.499997 22.9293 -0.499997L 22.9293 3.17501e-06ZM 22.9293 2.44491L 22.9293 2.94491C 23.2055 2.94491 23.4293 2.72105 23.4293 2.44491L 22.9293 2.44491ZM 0 2.44491L -0.5 2.44491C -0.5 2.72105 -0.276142 2.94491 1.11022e-16 2.94491L 0 2.44491ZM 0 0.500003L 22.9293 0.500003L 22.9293 -0.499997L 0 -0.499997L 0 0.500003ZM 22.4293 3.17501e-06L 22.4293 2.44491L 23.4293 2.44491L 23.4293 3.17501e-06L 22.4293 3.17501e-06ZM 22.9293 1.94491L 0 1.94491L 0 2.94491L 22.9293 2.94491L 22.9293 1.94491ZM 0.5 2.44491L 0.5 3.17501e-06L -0.5 3.17501e-06L -0.5 2.44491L 0.5 2.44491Z"/>
<path id="path3_stroke" d="M -1.58314e-06 3.17501e-06L -1.58314e-06 -0.499997C -0.276144 -0.499997 -0.500002 -0.276139 -0.500002 3.17501e-06L -1.58314e-06 3.17501e-06ZM 22.9293 3.17501e-06L 23.4293 3.17501e-06C 23.4293 -0.276139 23.2055 -0.499997 22.9293 -0.499997L 22.9293 3.17501e-06ZM 22.9293 2.44491L 22.9293 2.94491C 23.2055 2.94491 23.4293 2.72105 23.4293 2.44491L 22.9293 2.44491ZM -1.58314e-06 2.44491L -0.500002 2.44491C -0.500002 2.72105 -0.276144 2.94491 -1.58314e-06 2.94491L -1.58314e-06 2.44491ZM -1.58314e-06 0.500003L 22.9293 0.500003L 22.9293 -0.499997L -1.58314e-06 -0.499997L -1.58314e-06 0.500003ZM 22.4293 3.17501e-06L 22.4293 2.44491L 23.4293 2.44491L 23.4293 3.17501e-06L 22.4293 3.17501e-06ZM 22.9293 1.94491L -1.58314e-06 1.94491L -1.58314e-06 2.94491L 22.9293 2.94491L 22.9293 1.94491ZM 0.499998 2.44491L 0.499998 3.17501e-06L -0.500002 3.17501e-06L -0.500002 2.44491L 0.499998 2.44491Z"/>
<path id="path4_stroke" d="M 0 3.17501e-06L 0 -0.499997C -0.276142 -0.499997 -0.5 -0.276139 -0.5 3.17501e-06L 0 3.17501e-06ZM 11.4647 3.17501e-06L 11.9647 3.17501e-06C 11.9647 -0.276139 11.7408 -0.499997 11.4647 -0.499997L 11.4647 3.17501e-06ZM 11.4647 2.44491L 11.4647 2.94491C 11.7408 2.94491 11.9647 2.72105 11.9647 2.44491L 11.4647 2.44491ZM 0 2.44491L -0.5 2.44491C -0.5 2.72105 -0.276142 2.94491 1.11022e-16 2.94491L 0 2.44491ZM 0 0.500003L 11.4647 0.500003L 11.4647 -0.499997L 0 -0.499997L 0 0.500003ZM 10.9647 3.17501e-06L 10.9647 2.44491L 11.9647 2.44491L 11.9647 3.17501e-06L 10.9647 3.17501e-06ZM 11.4647 1.94491L 0 1.94491L 0 2.94491L 11.4647 2.94491L 11.4647 1.94491ZM 0.5 2.44491L 0.5 3.17501e-06L -0.5 3.17501e-06L -0.5 2.44491L 0.5 2.44491Z"/>
<path id="path5_stroke" d="M 0 3.17501e-06L 0 -0.499997C -0.276142 -0.499997 -0.5 -0.276139 -0.5 3.17501e-06L 0 3.17501e-06ZM 11.4647 3.17501e-06L 11.9647 3.17501e-06C 11.9647 -0.276139 11.7408 -0.499997 11.4647 -0.499997L 11.4647 3.17501e-06ZM 11.4647 2.44491L 11.4647 2.94491C 11.7408 2.94491 11.9647 2.72105 11.9647 2.44491L 11.4647 2.44491ZM 0 2.44491L -0.5 2.44491C -0.5 2.72105 -0.276142 2.94491 1.11022e-16 2.94491L 0 2.44491ZM 0 0.500003L 11.4647 0.500003L 11.4647 -0.499997L 0 -0.499997L 0 0.500003ZM 10.9647 3.17501e-06L 10.9647 2.44491L 11.9647 2.44491L 11.9647 3.17501e-06L 10.9647 3.17501e-06ZM 11.4647 1.94491L 0 1.94491L 0 2.94491L 11.4647 2.94491L 11.4647 1.94491ZM 0.5 2.44491L 0.5 3.17501e-06L -0.5 3.17501e-06L -0.5 2.44491L 0.5 2.44491Z"/>
<path id="path6_stroke" d="M 17.1192 -1.58751e-06L 17.3647 -0.435547C 17.2125 -0.521363 17.0266 -0.521494 16.8742 -0.435892C 16.7219 -0.35029 16.6253 -0.191375 16.6194 -0.0167371L 17.1192 -1.58751e-06ZM 55.8707 21.8481L 56.3698 21.8181C 56.3596 21.6487 56.2642 21.496 56.1163 21.4126L 55.8707 21.8481ZM 59.6577 84.7916L 59.5455 85.2789C 59.6991 85.3142 59.8604 85.2751 59.9807 85.1733C 60.101 85.0715 60.1663 84.9189 60.1568 84.7616L 59.6577 84.7916ZM 31.6445 79.6417L 31.5886 80.1385L 31.5897 80.1387L 31.6445 79.6417ZM 0 78.7053L -0.455398 78.4989C -0.527462 78.6579 -0.511403 78.8429 -0.413032 78.9871C -0.31466 79.1313 -0.148216 79.2138 0.0260951 79.2047L 0 78.7053ZM 13.2284 42.3958L 12.7385 42.296L 12.7383 42.2969L 13.2284 42.3958ZM 16.8736 0.435544L 55.6252 22.2837L 56.1163 21.4126L 17.3647 -0.435547L 16.8736 0.435544ZM 55.3716 21.8782L 59.1586 84.8216L 60.1568 84.7616L 56.3698 21.8181L 55.3716 21.8782ZM 59.6577 84.7916C 59.7699 84.3044 59.7698 84.3043 59.7697 84.3043C 59.7695 84.3043 59.7693 84.3042 59.769 84.3042C 59.7685 84.304 59.7677 84.3038 59.7666 84.3036C 59.7645 84.3031 59.7613 84.3024 59.7571 84.3014C 59.7487 84.2995 59.7363 84.2966 59.7197 84.2929C 59.6867 84.2853 59.6377 84.2741 59.5733 84.2594C 59.4445 84.2301 59.2543 84.1869 59.0085 84.1316C 58.5169 84.021 57.8029 83.8616 56.9122 83.6667C 55.131 83.277 52.643 82.7448 49.8157 82.1752C 44.1654 81.0368 37.1438 79.7455 31.6994 79.1447L 31.5897 80.1387C 36.9874 80.7343 43.9724 82.018 49.6182 83.1555C 52.4389 83.7238 54.9213 84.2547 56.6984 84.6436C 57.587 84.8381 58.2991 84.9969 58.7889 85.1072C 59.0338 85.1623 59.2232 85.2053 59.3512 85.2344C 59.4152 85.249 59.4639 85.2601 59.4965 85.2676C 59.5128 85.2713 59.5251 85.2742 59.5333 85.2761C 59.5374 85.277 59.5405 85.2777 59.5425 85.2782C 59.5435 85.2784 59.5443 85.2786 59.5448 85.2787C 59.5451 85.2788 59.5452 85.2788 59.5454 85.2788C 59.5455 85.2789 59.5455 85.2789 59.6577 84.7916ZM 31.7004 79.1448C 23.8164 78.2577 15.8854 78.0233 9.92892 78.0103C 6.94978 78.0037 4.46257 78.0526 2.71956 78.1031C 1.84801 78.1284 1.16243 78.1541 0.694334 78.1735C 0.460283 78.1831 0.280596 78.1913 0.159214 78.197C 0.0985219 78.1998 0.0524055 78.2021 0.0213568 78.2036C 0.0058324 78.2044 -0.00592514 78.205 -0.0138543 78.2054C -0.0178189 78.2056 -0.0208263 78.2057 -0.022869 78.2058C -0.0238904 78.2059 -0.0246705 78.2059 -0.0252085 78.206C -0.0254775 78.206 -0.0256992 78.206 -0.0258338 78.206C -0.0259948 78.206 -0.0260951 78.206 0 78.7053C 0.0260951 79.2047 0.0261163 79.2047 0.0261981 79.2047C 0.0263063 79.2046 0.0264486 79.2046 0.0266647 79.2046C 0.0270968 79.2046 0.0277709 79.2046 0.0286859 79.2045C 0.030516 79.2044 0.0333101 79.2043 0.0370603 79.2041C 0.0445608 79.2037 0.0558862 79.2031 0.070975 79.2024C 0.101153 79.2009 0.146383 79.1987 0.206175 79.1959C 0.325758 79.1902 0.503582 79.1822 0.735708 79.1726C 1.19997 79.1534 1.88141 79.1278 2.74853 79.1027C 4.48285 79.0524 6.95955 79.0038 9.92673 79.0103C 15.8629 79.0232 23.7542 79.257 31.5886 80.1385L 31.7004 79.1448ZM 0 78.7053C 0.455398 78.9118 0.45545 78.9117 0.455542 78.9114C 0.455627 78.9113 0.45576 78.911 0.455929 78.9106C 0.456268 78.9098 0.456768 78.9087 0.457428 78.9073C 0.458749 78.9044 0.460709 78.9 0.463302 78.8943C 0.468486 78.8828 0.476196 78.8658 0.48636 78.8432C 0.506689 78.7982 0.536837 78.7312 0.576233 78.6434C 0.655024 78.4679 0.770811 78.209 0.919033 77.875C 1.21547 77.2071 1.64167 76.239 2.16115 75.0372C 3.20002 72.6339 4.6123 69.2953 6.1059 65.5543C 9.08851 58.0837 12.4117 48.9684 13.7186 42.4947L 12.7383 42.2969C 11.4514 48.672 8.16035 57.7115 5.17719 65.1835C 3.68791 68.9137 2.27941 72.2433 1.24323 74.6404C 0.725181 75.8389 0.300288 76.804 0.00501304 77.4693C -0.142622 77.802 -0.257846 78.0596 -0.336102 78.234C -0.37523 78.3212 -0.405115 78.3876 -0.425188 78.432C -0.435224 78.4543 -0.442807 78.4711 -0.447866 78.4823C -0.450395 78.4879 -0.452294 78.4921 -0.453552 78.4948C -0.454181 78.4962 -0.45465 78.4973 -0.454958 78.4979C -0.455112 78.4983 -0.455222 78.4985 -0.455299 78.4987C -0.455368 78.4988 -0.455398 78.4989 0 78.7053ZM 13.7184 42.4956C 15.2041 35.2032 16.1784 24.5747 16.7815 15.7896C 17.0833 11.3928 17.2926 7.45026 17.4265 4.60691C 17.4934 3.18516 17.5415 2.03806 17.5729 1.2462C 17.5886 0.850261 17.6 0.543124 17.6076 0.334859C 17.6114 0.230726 17.6142 0.151309 17.6161 0.0978692C 17.617 0.071149 17.6177 0.0509228 17.6182 0.0373478C 17.6184 0.0305603 17.6186 0.0254356 17.6187 0.0219934C 17.6188 0.0202723 17.6188 0.0189718 17.6188 0.0180944C 17.6189 0.0176557 17.6189 0.0173156 17.6189 0.0170959C 17.6189 0.0168619 17.6189 0.0167339 17.1192 -1.58751e-06C 16.6194 -0.0167371 16.6194 -0.0166523 16.6194 -0.0164615C 16.6194 -0.0162563 16.6194 -0.0159596 16.6194 -0.0155498C 16.6194 -0.0147303 16.6193 -0.0134879 16.6193 -0.0118251C 16.6192 -0.00849942 16.619 -0.00349195 16.6188 0.00317765C 16.6183 0.0165169 16.6176 0.0365045 16.6167 0.0629833C 16.6149 0.115941 16.6121 0.194863 16.6083 0.298489C 16.6007 0.505744 16.5893 0.811816 16.5737 1.20664C 16.5424 1.99628 16.4944 3.14088 16.4276 4.55988C 16.294 7.39802 16.0851 11.3332 15.7838 15.7211C 15.1808 24.5056 14.2097 35.075 12.7385 42.296L 13.7184 42.4956Z"/>
<path id="path7_stroke" d="M 7.36643 0L 7.59241 -0.44602C 7.43762 -0.524445 7.25324 -0.517008 7.10527 -0.426372C 6.9573 -0.335737 6.8669 -0.174863 6.86643 -0.00134047L 7.36643 0ZM 32.0077 12.4847L 32.5054 12.4374C 32.4892 12.2667 32.3866 12.1161 32.2336 12.0386L 32.0077 12.4847ZM 36.884 63.8278L 36.772 64.3151C 36.9285 64.3511 37.0928 64.3097 37.2136 64.2038C 37.3344 64.0979 37.397 63.9404 37.3818 63.7805L 36.884 63.8278ZM 19.5574 60.6546L 19.5017 61.1515L 19.5033 61.1517L 19.5574 60.6546ZM 1.58314e-06 60.0824L -0.476523 59.931C -0.526232 60.0874 -0.49598 60.2583 -0.395583 60.3882C -0.295186 60.5181 -0.137433 60.5904 0.0264922 60.5817L 1.58314e-06 60.0824ZM 6.27703 31.9399L 6.77507 31.9842L 6.77534 31.981L 6.27703 31.9399ZM 7.14045 0.44602L 31.7817 12.9307L 32.2336 12.0386L 7.59241 -0.44602L 7.14045 0.44602ZM 31.5099 12.5319L 36.3863 63.8751L 37.3818 63.7805L 32.5054 12.4374L 31.5099 12.5319ZM 36.884 63.8278C 36.996 63.3405 36.996 63.3405 36.9959 63.3405C 36.9958 63.3405 36.9957 63.3404 36.9955 63.3404C 36.9951 63.3403 36.9946 63.3402 36.994 63.34C 36.9926 63.3397 36.9907 63.3393 36.988 63.3387C 36.9828 63.3375 36.975 63.3357 36.9648 63.3333C 36.9443 63.3287 36.9138 63.3217 36.8738 63.3126C 36.7939 63.2944 36.676 63.2677 36.5236 63.2335C 36.2189 63.165 35.7763 63.0664 35.2245 62.9459C 34.1209 62.7049 32.5796 62.3759 30.8287 62.0241C 27.3313 61.3214 22.9811 60.5243 19.6114 60.1576L 19.5033 61.1517C 22.8256 61.5132 27.1388 62.3027 30.6317 63.0045C 32.3759 63.355 33.9116 63.6827 35.0111 63.9229C 35.5608 64.043 36.0014 64.1411 36.3044 64.2092C 36.4559 64.2432 36.573 64.2697 36.6521 64.2877C 36.6916 64.2967 36.7217 64.3036 36.7418 64.3082C 36.7519 64.3105 36.7595 64.3122 36.7645 64.3134C 36.7671 64.314 36.7689 64.3144 36.7702 64.3147C 36.7708 64.3148 36.7713 64.3149 36.7716 64.315C 36.7717 64.315 36.7718 64.315 36.7719 64.3151C 36.772 64.3151 36.772 64.3151 36.884 63.8278ZM 19.613 60.1577C 14.7119 59.6087 9.80282 59.4654 6.12229 59.4589C 4.28116 59.4556 2.74552 59.4866 1.66957 59.5184C 1.13156 59.5343 0.708386 59.5504 0.419308 59.5626C 0.274766 59.5687 0.163741 59.5738 0.0886411 59.5774C 0.0510909 59.5792 0.0225211 59.5806 0.00323265 59.5816C -0.00641159 59.5821 -0.0137356 59.5824 -0.0187017 59.5827C -0.0211848 59.5828 -0.0230784 59.5829 -0.0243778 59.583C -0.0250275 59.583 -0.0255287 59.583 -0.0258808 59.5831C -0.0260568 59.5831 -0.0262089 59.5831 -0.026297 59.5831C -0.0264117 59.5831 -0.026489 59.5831 1.58314e-06 60.0824C 0.0264922 60.5817 0.0264896 60.5817 0.0265244 60.5817C 0.0265858 60.5817 0.0266578 60.5817 0.0267804 60.5817C 0.0270256 60.5817 0.0274197 60.5816 0.0279621 60.5816C 0.029047 60.5816 0.0307251 60.5815 0.0329919 60.5814C 0.0375254 60.5811 0.0444132 60.5808 0.0536178 60.5803C 0.0720271 60.5794 0.099703 60.578 0.136345 60.5763C 0.209629 60.5728 0.318775 60.5677 0.461376 60.5617C 0.746585 60.5497 1.16559 60.5338 1.69914 60.518C 2.76633 60.4864 4.2914 60.4556 6.12051 60.4589C 9.78047 60.4653 14.65 60.6081 19.5017 61.1515L 19.613 60.1577ZM 1.58314e-06 60.0824C 0.476526 60.2338 0.476557 60.2337 0.476608 60.2336C 0.476651 60.2334 0.476722 60.2332 0.476809 60.2329C 0.476983 60.2324 0.477236 60.2316 0.477568 60.2305C 0.478232 60.2284 0.479212 60.2253 0.480503 60.2213C 0.483084 60.2131 0.486909 60.201 0.491941 60.185C 0.502006 60.1531 0.516902 60.1057 0.536341 60.0435C 0.575217 59.9191 0.632265 59.7354 0.705179 59.4977C 0.851003 59.0223 1.0603 58.3307 1.31463 57.4646C 1.82323 55.7325 2.51213 53.3017 3.23358 50.5057C 4.67476 44.9204 6.25254 37.8525 6.77505 31.9842L 5.779 31.8956C 5.26398 37.6796 3.70325 44.683 2.2653 50.2559C 1.54718 53.0389 0.861365 55.4589 0.35514 57.1829C 0.10205 58.0448 -0.10609 58.7325 -0.250854 59.2044C -0.323234 59.4404 -0.379766 59.6224 -0.418147 59.7452C -0.437337 59.8066 -0.451989 59.8533 -0.461814 59.8844C -0.466727 59.9 -0.470433 59.9118 -0.472896 59.9195C -0.474128 59.9234 -0.475049 59.9263 -0.475655 59.9283C -0.475958 59.9292 -0.476182 59.9299 -0.476327 59.9304C -0.476399 59.9306 -0.476448 59.9308 -0.476485 59.9309C -0.476514 59.931 -0.476523 59.931 1.58314e-06 60.0824ZM 6.77534 31.981C 7.29538 25.671 7.56797 17.6737 7.71068 11.2603C 7.78206 8.05224 7.82099 5.23793 7.84208 3.22556C 7.85263 2.21935 7.85872 1.41356 7.86216 0.859195C 7.86389 0.582013 7.86495 0.367683 7.86559 0.222583C 7.86591 0.150033 7.86612 0.0947898 7.86625 0.0576505C 7.86631 0.0390808 7.86636 0.0250371 7.86639 0.0156189C 7.8664 0.0109098 7.86641 0.00735706 7.86642 0.00497317C 7.86642 0.00378123 7.86642 0.0028815 7.86643 0.00227553C 7.86643 0.00197255 7.86643 0.00173877 7.86643 0.00158709C 7.86643 0.00142696 7.86643 0.00134047 7.36643 0C 6.86643 -0.00134047 6.86643 -0.00127933 6.86643 -0.00114456C 6.86643 -0.00100135 6.86643 -0.000793001 6.86643 -0.000506983C 6.86643 6.50387e-05 6.86643 0.000930734 6.86642 0.00208855C 6.86642 0.00440418 6.86641 0.00788827 6.86639 0.0125284C 6.86636 0.0218086 6.86632 0.0357129 6.86625 0.0541416C 6.86612 0.0909991 6.86591 0.145954 6.8656 0.21821C 6.86497 0.362722 6.8639 0.576435 6.86218 0.852974C 6.85874 1.40606 6.85267 2.21042 6.84214 3.21509C 6.82108 5.22447 6.7822 8.03475 6.71092 11.2381C 6.56831 17.6474 6.29619 25.6201 5.77871 31.8988L 6.77534 31.981Z"/>
<path id="path8_stroke" d="M 0 49.7305L -0.345043 49.3687C -0.454795 49.4733 -0.511122 49.6221 -0.498174 49.7732C -0.485227 49.9243 -0.404406 50.0614 -0.278449 50.1458L 0 49.7305ZM 34.9127 73.1393L 34.6343 73.5546C 34.7924 73.6606 34.997 73.6676 35.162 73.5727C 35.327 73.4778 35.4238 73.2974 35.4117 73.1074L 34.9127 73.1393ZM 30.2439 1.98438e-07L 30.7429 -0.0318526C 30.7275 -0.273 30.5418 -0.468634 30.3018 -0.496632C 30.0618 -0.524631 29.8361 -0.376982 29.7656 -0.145853L 30.2439 1.98438e-07ZM 17.171 29.6511L 16.7468 29.3864L 16.7455 29.3886L 17.171 29.6511ZM -0.278449 50.1458L 34.6343 73.5546L 35.1912 72.724L 0.278449 49.3152L -0.278449 50.1458ZM 35.4117 73.1074L 30.7429 -0.0318526L 29.7449 0.031853L 34.4137 73.1711L 35.4117 73.1074ZM 30.2439 1.98438e-07C 29.7656 -0.145853 29.7656 -0.145838 29.7656 -0.145759C 29.7656 -0.145647 29.7655 -0.145503 29.7654 -0.145278C 29.7653 -0.144828 29.7651 -0.14412 29.7648 -0.143155C 29.7642 -0.141225 29.7633 -0.138267 29.7621 -0.134293C 29.7596 -0.126343 29.7559 -0.114325 29.751 -0.0983197C 29.7411 -0.0663087 29.7262 -0.0183492 29.7065 0.0449065C 29.6669 0.171419 29.6077 0.359111 29.5295 0.602766C 29.373 1.09009 29.1405 1.8012 28.8367 2.69438C 28.2291 4.4809 27.3368 6.99499 26.1988 9.90305C 23.921 15.7236 20.6658 23.1039 16.7468 29.3864L 17.5953 29.9157C 21.5615 23.5575 24.8427 16.1123 27.13 10.2675C 28.2745 7.34286 29.172 4.81432 29.7835 3.01637C 30.0892 2.11732 30.3236 1.40075 30.4816 0.908439C 30.5607 0.662278 30.6206 0.472169 30.6609 0.343334C 30.681 0.278917 30.6963 0.229816 30.7065 0.196685C 30.7116 0.18012 30.7155 0.167547 30.7181 0.159047C 30.7194 0.154798 30.7204 0.151567 30.721 0.149364C 30.7214 0.148263 30.7216 0.147419 30.7218 0.146833C 30.7219 0.14654 30.722 0.146295 30.722 0.146149C 30.7221 0.145969 30.7221 0.145853 30.2439 1.98438e-07ZM 16.7455 29.3886C 13.9965 33.8454 9.731 38.8363 6.13675 42.7262C 4.34253 44.668 2.72108 46.3296 1.54836 47.5056C 0.962066 48.0935 0.488106 48.5599 0.161 48.879C -0.00254899 49.0385 -0.129372 49.1612 -0.215155 49.2439C -0.258045 49.2853 -0.290675 49.3166 -0.312503 49.3375C -0.323417 49.348 -0.331631 49.3559 -0.337077 49.3611C -0.3398 49.3637 -0.34183 49.3656 -0.343161 49.3669C -0.343826 49.3675 -0.344316 49.368 -0.34463 49.3683C -0.344787 49.3684 -0.344891 49.3685 -0.344969 49.3686C -0.345028 49.3687 -0.345043 49.3687 0 49.7305C 0.345043 50.0924 0.345117 50.0923 0.345235 50.0922C 0.345333 50.0921 0.345496 50.092 0.345692 50.0918C 0.346085 50.0914 0.346655 50.0909 0.3474 50.0902C 0.348889 50.0887 0.35108 50.0866 0.353964 50.0839C 0.359731 50.0784 0.368269 50.0702 0.379511 50.0594C 0.401995 50.0379 0.435294 50.0059 0.478868 49.9639C 0.566015 49.8799 0.694266 49.7558 0.859301 49.5948C 1.18936 49.2728 1.6666 48.8032 2.25644 48.2117C 3.43598 47.0289 5.06653 45.358 6.87122 43.4049C 10.4748 39.5049 14.7948 34.456 17.5966 29.9135L 16.7455 29.3886Z"/>
<path id="path9_stroke" d="M 0.5 0C 0.5 -0.276142 0.276142 -0.5 0 -0.5C -0.276142 -0.5 -0.5 -0.276142 -0.5 0L 0.5 0ZM -0.5 1.71663C -0.5 1.99278 -0.276142 2.21663 0 2.21663C 0.276142 2.21663 0.5 1.99278 0.5 1.71663L -0.5 1.71663ZM -0.5 0L -0.5 1.71663L 0.5 1.71663L 0.5 0L -0.5 0Z"/>
<path id="path10_stroke" d="M 0.5 1.24024e-08C 0.5 -0.276142 0.276142 -0.5 0 -0.5C -0.276142 -0.5 -0.5 -0.276142 -0.5 1.24024e-08L 0.5 1.24024e-08ZM -0.5 50.1987C -0.5 50.4749 -0.276142 50.6987 0 50.6987C 0.276142 50.6987 0.5 50.4749 0.5 50.1987L -0.5 50.1987ZM -0.5 1.24024e-08L -0.5 50.1987L 0.5 50.1987L 0.5 1.24024e-08L -0.5 1.24024e-08Z"/>
<path id="path11_stroke" d="M 0.499997 -1.58751e-06C 0.499997 -0.276144 0.276139 -0.500002 -3.05176e-06 -0.500002C -0.276145 -0.500002 -0.500003 -0.276144 -0.500003 -1.58751e-06L 0.499997 -1.58751e-06ZM -0.500003 17.3745C -0.500003 17.6506 -0.276145 17.8745 -3.05176e-06 17.8745C 0.276139 17.8745 0.499997 17.6506 0.499997 17.3745L -0.500003 17.3745ZM -0.500003 -1.58751e-06L -0.500003 17.3745L 0.499997 17.3745L 0.499997 -1.58751e-06L -0.500003 -1.58751e-06Z"/>
<path id="path12_stroke" d="M 0.499997 6.35002e-06C 0.499997 -0.276136 0.276139 -0.499994 -3.05176e-06 -0.499994C -0.276145 -0.499994 -0.500003 -0.276136 -0.500003 6.35002e-06L 0.499997 6.35002e-06ZM -0.500003 1.87269C -0.500003 2.14883 -0.276145 2.37269 -3.05176e-06 2.37269C 0.276139 2.37269 0.499997 2.14883 0.499997 1.87269L -0.500003 1.87269ZM -0.500003 6.35002e-06L -0.500003 1.87269L 0.499997 1.87269L 0.499997 6.35002e-06L -0.500003 6.35002e-06Z"/>
<path id="path13_stroke" d="M 0.499997 3.96876e-07C 0.499997 -0.276142 0.276139 -0.5 -3.05176e-06 -0.5C -0.276145 -0.5 -0.500003 -0.276142 -0.500003 3.96876e-07L 0.499997 3.96876e-07ZM -0.500003 13.369C -0.500003 13.6451 -0.276145 13.869 -3.05176e-06 13.869C 0.276139 13.869 0.499997 13.6451 0.499997 13.369L -0.500003 13.369ZM -0.500003 3.96876e-07L -0.500003 13.369L 0.499997 13.369L 0.499997 3.96876e-07L -0.500003 3.96876e-07Z"/>
<path id="path14_stroke" d="M 0 0L 0.363939 -0.342853C 0.207845 -0.508547 -0.040467 -0.547889 -0.240134 -0.438561C -0.439802 -0.329233 -0.540418 -0.098835 -0.484905 0.121932L 0 0ZM 5.70639 30.1712L 6.20417 30.1242L 6.20415 30.124L 5.70639 30.1712ZM 4.04635 56.8052L 3.55535 56.7107C 3.52193 56.8845 3.58283 57.063 3.71549 57.18C 3.84815 57.2971 4.03281 57.3354 4.20107 57.2806L 4.04635 56.8052ZM 21.3211 53.3719L 21.3678 53.8697L 21.3686 53.8696L 21.3211 53.3719ZM 50.8008 53.925L 50.6051 54.3852C 50.8229 54.4778 51.0757 54.405 51.211 54.2109C 51.3463 54.0168 51.327 53.7544 51.1647 53.5822L 50.8008 53.925ZM 0 0C -0.484905 0.121932 -0.484893 0.121978 -0.484864 0.122093C -0.484831 0.122224 -0.484785 0.122408 -0.48472 0.122669C -0.484588 0.123191 -0.484388 0.123988 -0.484119 0.125059C -0.483581 0.127201 -0.482769 0.13044 -0.481685 0.134763C -0.479518 0.143409 -0.476267 0.156394 -0.471963 0.173624C -0.463355 0.208084 -0.450534 0.259527 -0.433743 0.32721C -0.400162 0.462577 -0.350704 0.662903 -0.287319 0.922259C -0.160549 1.44098 0.0219196 2.19578 0.244489 3.13924C 0.689655 5.02627 1.29511 7.66742 1.93614 10.6834C 3.21931 16.7205 4.64083 24.2402 5.20863 30.2185L 6.20415 30.124C 5.63067 24.0858 4.199 16.5199 2.91429 10.4755C 2.27139 7.45071 1.66423 4.80214 1.21777 2.90964C 0.994531 1.96333 0.811434 1.20591 0.684092 0.684855C 0.62042 0.424323 0.570685 0.22287 0.536837 0.0864308C 0.519913 0.0182107 0.506961 -0.0337572 0.498224 -0.0687312C 0.493856 -0.0862182 0.490542 -0.0994569 0.488312 -0.108355C 0.487196 -0.112803 0.486353 -0.116167 0.485783 -0.118434C 0.485499 -0.119567 0.485283 -0.120426 0.485137 -0.12101C 0.485063 -0.121301 0.485005 -0.121532 0.484969 -0.121678C 0.484928 -0.12184 0.484905 -0.121932 0 0ZM 5.20861 30.2183C 5.77462 36.2036 5.36346 42.8237 4.80726 47.9601C 4.52945 50.5255 4.21611 52.7152 3.97231 54.263C 3.85043 55.0367 3.74597 55.6498 3.67208 56.0689C 3.63514 56.2785 3.60585 56.4395 3.58584 56.5479C 3.57584 56.6021 3.56816 56.6431 3.56301 56.6704C 3.56043 56.684 3.55849 56.6943 3.5572 56.701C 3.55656 56.7044 3.55608 56.7069 3.55577 56.7085C 3.55562 56.7093 3.55551 56.7099 3.55543 56.7103C 3.5554 56.7105 3.55538 56.7106 3.55536 56.7107C 3.55535 56.7107 3.55535 56.7107 4.04635 56.8052C 4.53735 56.8996 4.53737 56.8995 4.53741 56.8993C 4.53743 56.8992 4.53747 56.899 4.53752 56.8987C 4.53762 56.8982 4.53776 56.8975 4.53795 56.8965C 4.53831 56.8946 4.53885 56.8918 4.53955 56.8881C 4.54095 56.8808 4.543 56.8699 4.54569 56.8557C 4.55107 56.8271 4.55899 56.7849 4.56922 56.7294C 4.5897 56.6185 4.61947 56.4548 4.6569 56.2425C 4.73175 55.818 4.83723 55.1989 4.96013 54.4186C 5.20592 52.8581 5.52158 50.6522 5.80144 48.0677C 6.36058 42.9043 6.77944 36.2074 6.20417 30.1242L 5.20861 30.2183ZM 4.04635 56.8052C 4.20107 57.2806 4.20104 57.2806 4.20104 57.2806C 4.20108 57.2806 4.20111 57.2806 4.20119 57.2806C 4.20135 57.2805 4.20163 57.2804 4.20203 57.2803C 4.20282 57.2801 4.20409 57.2797 4.20583 57.2791C 4.20932 57.278 4.21469 57.2762 4.22192 57.2739C 4.23639 57.2693 4.2583 57.2623 4.28748 57.253C 4.34583 57.2346 4.43322 57.2072 4.54813 57.1719C 4.77796 57.1013 5.11783 56.9992 5.5556 56.8737C 6.43121 56.6227 7.69807 56.2785 9.25908 55.9065C 12.3823 55.1624 16.677 54.3091 21.3678 53.8697L 21.2745 52.8741C 16.5238 53.319 12.1811 54.1824 9.02731 54.9338C 7.4498 55.3096 6.16824 55.6579 5.28006 55.9124C 4.83593 56.0397 4.49006 56.1437 4.25462 56.2159C 4.1369 56.2521 4.04678 56.2803 3.98578 56.2996C 3.95527 56.3093 3.93205 56.3167 3.9163 56.3218C 3.90842 56.3243 3.90241 56.3262 3.89829 56.3276C 3.89623 56.3282 3.89465 56.3287 3.89354 56.3291C 3.89298 56.3293 3.89255 56.3294 3.89223 56.3295C 3.89207 56.3296 3.89192 56.3296 3.89184 56.3296C 3.89172 56.3297 3.89164 56.3297 4.04635 56.8052ZM 21.3686 53.8696C 26.5298 53.378 33.2676 53.2563 39.0237 53.388C 41.9007 53.4538 44.5256 53.5827 46.5797 53.7594C 47.6071 53.8477 48.4864 53.9475 49.1805 54.0563C 49.8885 54.1673 50.3618 54.2817 50.6051 54.3852L 50.9964 53.4649C 50.6287 53.3086 50.0467 53.1799 49.3353 53.0684C 48.6099 52.9547 47.7056 52.8525 46.6653 52.763C 44.584 52.5841 41.937 52.4544 39.0466 52.3882C 33.2677 52.2561 26.4877 52.3774 21.2737 52.8741L 21.3686 53.8696ZM 51.1647 53.5822L 0.363939 -0.342853L -0.363939 0.342853L 50.4368 54.2679L 51.1647 53.5822Z"/>
<path id="path15_stroke" d="M 7.26268 4.68175L 7.21449 4.18407C 6.98423 4.20637 6.79933 4.38371 6.76745 4.61284L 7.26268 4.68175ZM 55.6114 1.58751e-06L 56.0685 -0.202601C 55.9812 -0.399538 55.7776 -0.518433 55.5632 -0.497671L 55.6114 1.58751e-06ZM 63.1334 14.7735L 62.7064 15.0336L 62.7073 15.035L 63.1334 14.7735ZM 71.9524 28.3506L 71.8488 28.8397C 72.0487 28.8821 72.2544 28.7984 72.368 28.6285C 72.4817 28.4586 72.4804 28.2366 72.3649 28.068L 71.9524 28.3506ZM 33.4602 27.0501L 33.396 26.5542L 33.3957 26.5543L 33.4602 27.0501ZM -1.58314e-06 39.0145L -0.481669 38.8804C -0.535604 39.0741 -0.468318 39.2812 -0.31087 39.4062C -0.153423 39.5311 0.0635661 39.5497 0.239933 39.4532L -1.58314e-06 39.0145ZM 4.40948 21.8481L 3.92083 21.7422L 3.92039 21.7443L 4.40948 21.8481ZM 7.31087 5.17942L 55.6595 0.497674L 55.5632 -0.497671L 7.21449 4.18407L 7.31087 5.17942ZM 55.6114 1.58751e-06C 55.1542 0.202604 55.1543 0.202658 55.1543 0.202747C 55.1543 0.202821 55.1544 0.202943 55.1545 0.203092C 55.1546 0.203391 55.1548 0.203824 55.155 0.204391C 55.1555 0.205527 55.1563 0.207199 55.1573 0.209404C 55.1592 0.213813 55.1621 0.22035 55.166 0.228968C 55.1736 0.246205 55.185 0.27177 55.2 0.3053C 55.23 0.372358 55.2743 0.471277 55.3319 0.599147C 55.4472 0.854882 55.6157 1.22645 55.829 1.69057C 56.2557 2.61872 56.8618 3.91745 57.5801 5.4004C 59.0151 8.36296 60.9039 12.0736 62.7064 15.0336L 63.5605 14.5135C 61.7835 11.5952 59.9112 7.91911 58.4801 4.96447C 57.7653 3.48881 57.1621 2.19633 56.7376 1.27291C 56.5254 0.811251 56.3579 0.441948 56.2436 0.188259C 56.1864 0.0614166 56.1426 -0.0365149 56.113 -0.102629C 56.0982 -0.135686 56.0871 -0.160788 56.0796 -0.177571C 56.0759 -0.185963 56.0731 -0.192274 56.0712 -0.196461C 56.0703 -0.198555 56.0696 -0.200117 56.0691 -0.201142C 56.0689 -0.201655 56.0687 -0.202033 56.0686 -0.202276C 56.0686 -0.202398 56.0685 -0.202479 56.0685 -0.20254C 56.0685 -0.202587 56.0685 -0.202601 55.6114 1.58751e-06ZM 62.7073 15.035C 64.7864 18.4229 66.9945 21.8224 68.6822 24.3738C 69.5261 25.6498 70.2403 26.7143 70.7436 27.4599C 70.9952 27.8327 71.1942 28.1258 71.3303 28.3258C 71.3983 28.4258 71.4507 28.5026 71.486 28.5543C 71.5037 28.5802 71.5171 28.5999 71.5262 28.6131C 71.5307 28.6197 71.5341 28.6247 71.5364 28.6281C 71.5376 28.6297 71.5384 28.631 71.539 28.6318C 71.5393 28.6323 71.5395 28.6326 71.5397 28.6328C 71.5397 28.6329 71.5398 28.633 71.5398 28.6331C 71.5399 28.6331 71.5399 28.6332 71.9524 28.3506C 72.3649 28.068 72.3649 28.068 72.3648 28.0679C 72.3648 28.0679 72.3647 28.0678 72.3647 28.0677C 72.3645 28.0675 72.3643 28.0672 72.3641 28.0668C 72.3635 28.066 72.3627 28.0648 72.3616 28.0632C 72.3593 28.0599 72.356 28.055 72.3516 28.0485C 72.3427 28.0355 72.3294 28.0161 72.3119 27.9904C 72.2768 27.9391 72.2248 27.8628 72.1571 27.7633C 72.0216 27.5642 71.8234 27.2721 71.5725 26.9004C 71.0706 26.1569 70.3582 25.0951 69.5162 23.8221C 67.8319 21.2757 65.6305 17.8866 63.5596 14.512L 62.7073 15.035ZM 71.9524 28.3506C 72.056 27.8614 72.0559 27.8614 72.0556 27.8613C 72.0555 27.8613 72.0552 27.8612 72.0548 27.8612C 72.0542 27.861 72.0532 27.8608 72.052 27.8606C 72.0495 27.8601 72.0459 27.8593 72.0412 27.8583C 72.0318 27.8564 72.018 27.8535 71.9998 27.8497C 71.9634 27.8422 71.9095 27.8313 71.8387 27.8171C 71.6969 27.7888 71.4873 27.7477 71.2139 27.6965C 70.667 27.5942 69.8647 27.4512 68.8399 27.2878C 66.7903 26.9612 63.8498 26.5533 60.2803 26.227C 53.1439 25.5747 43.4819 25.2475 33.396 26.5542L 33.5244 27.5459C 43.5146 26.2517 53.0987 26.5747 60.1893 27.2229C 63.7334 27.5469 66.6516 27.9517 68.6825 28.2754C 69.6979 28.4372 70.4912 28.5786 71.0299 28.6795C 71.2992 28.7299 71.5048 28.7701 71.6427 28.7977C 71.7116 28.8115 71.7636 28.8221 71.7981 28.8292C 71.8153 28.8327 71.8282 28.8354 71.8367 28.8372C 71.8409 28.8381 71.8441 28.8387 71.8461 28.8392C 71.8471 28.8394 71.8478 28.8395 71.8483 28.8396C 71.8485 28.8397 71.8486 28.8397 71.8487 28.8397C 71.8488 28.8397 71.8488 28.8397 71.9524 28.3506ZM 33.3957 26.5543C 25.7279 27.5515 17.3132 30.5637 10.8348 33.3133C 7.59138 34.69 4.82472 36.0045 2.86846 36.9752C 1.89021 37.4606 1.1143 37.8601 0.582396 38.1386C 0.316438 38.2778 0.111461 38.3868 -0.0273245 38.4612C -0.0967182 38.4983 -0.149566 38.5268 -0.185218 38.5461C -0.203044 38.5558 -0.216571 38.5631 -0.225718 38.5681C -0.230291 38.5706 -0.233769 38.5725 -0.236143 38.5738C -0.237329 38.5745 -0.238239 38.5749 -0.238872 38.5753C -0.239188 38.5755 -0.239455 38.5756 -0.239613 38.5757C -0.239809 38.5758 -0.239936 38.5759 -1.58314e-06 39.0145C 0.239933 39.4532 0.239945 39.4532 0.240027 39.4532C 0.240147 39.4531 0.240299 39.453 0.240538 39.4529C 0.241017 39.4526 0.241774 39.4522 0.242806 39.4516C 0.244871 39.4505 0.248039 39.4488 0.252301 39.4465C 0.260824 39.4418 0.27372 39.4348 0.290908 39.4255C 0.325285 39.4069 0.376829 39.3791 0.44489 39.3426C 0.581013 39.2697 0.783194 39.1622 1.04623 39.0245C 1.57232 38.749 2.34176 38.3528 3.31292 37.871C 5.25549 36.9071 8.00392 35.6012 11.2255 34.2339C 17.6774 31.4954 25.9927 28.5254 33.5247 27.5459L 33.3957 26.5543ZM -1.58314e-06 39.0145C 0.481666 39.1487 0.48168 39.1486 0.481707 39.1485C 0.481732 39.1485 0.481771 39.1483 0.481821 39.1481C 0.481921 39.1478 0.482071 39.1472 0.482268 39.1465C 0.482664 39.1451 0.483253 39.143 0.484034 39.1402C 0.485595 39.1346 0.487921 39.1262 0.490993 39.1152C 0.497137 39.0931 0.506262 39.0602 0.51821 39.0172C 0.542104 38.931 0.577285 38.8041 0.622474 38.6405C 0.712851 38.3134 0.843263 37.8399 1.00347 37.2543C 1.32388 36.083 1.76355 34.4626 2.24056 32.6665C 3.19361 29.0778 4.29905 24.7749 4.89857 21.952L 3.92039 21.7443C 3.32676 24.5395 2.22746 28.8198 1.27406 32.4098C 0.797842 34.203 0.358851 35.8208 0.0389119 36.9904C -0.121051 37.5752 -0.251236 38.0478 -0.341413 38.3742C -0.386501 38.5374 -0.421586 38.664 -0.445388 38.7498C -0.45729 38.7927 -0.46637 38.8254 -0.47247 38.8473C -0.475521 38.8583 -0.477825 38.8666 -0.479365 38.8721C -0.480135 38.8749 -0.480714 38.877 -0.481099 38.8783C -0.481291 38.879 -0.481435 38.8796 -0.48153 38.8799C -0.481578 38.8801 -0.481613 38.8802 -0.481636 38.8803C -0.481659 38.8804 -0.481669 38.8804 -1.58314e-06 39.0145ZM 4.89813 21.9541C 5.55002 18.9471 6.26524 14.6426 6.81648 11.0985C 7.09238 9.32455 7.32769 7.73792 7.49403 6.59474C 7.57721 6.02312 7.64315 5.5623 7.6883 5.2443C 7.71089 5.0853 7.72827 4.96199 7.74002 4.87838C 7.74589 4.83658 7.75036 4.8047 7.75336 4.78325C 7.75486 4.77252 7.75599 4.7644 7.75675 4.75895C 7.75713 4.75622 7.75742 4.75416 7.75761 4.75278C 7.75771 4.75209 7.75778 4.75156 7.75783 4.75121C 7.75785 4.75103 7.75787 4.75089 7.75788 4.75081C 7.7579 4.75071 7.7579 4.75066 7.26268 4.68175C 6.76745 4.61284 6.76744 4.61287 6.76743 4.61294C 6.76742 4.61303 6.76741 4.61314 6.76738 4.61331C 6.76734 4.61363 6.76727 4.61413 6.76717 4.6148C 6.76699 4.61613 6.76671 4.61813 6.76634 4.6208C 6.76559 4.62615 6.76447 4.63416 6.76299 4.64478C 6.76002 4.66601 6.75559 4.69767 6.74975 4.73924C 6.73806 4.82238 6.72075 4.94521 6.69824 5.1037C 6.65322 5.4207 6.58744 5.88038 6.50445 6.45075C 6.33846 7.59155 6.10364 9.17485 5.82836 10.9448C 5.27723 14.4883 4.56585 18.7669 3.92083 21.7422L 4.89813 21.9541Z"/>
<path id="path16_stroke" d="M 146.169 6.35002e-06C 146.169 -0.276136 145.945 -0.499994 145.669 -0.499994C 145.392 -0.499994 145.169 -0.276136 145.169 6.35002e-06L 146.169 6.35002e-06ZM 134.963 6.35002e-06C 134.963 -0.276136 134.739 -0.499994 134.463 -0.499994C 134.187 -0.499994 133.963 -0.276136 133.963 6.35002e-06L 134.963 6.35002e-06ZM 123.758 6.35002e-06C 123.758 -0.276136 123.534 -0.499994 123.258 -0.499994C 122.982 -0.499994 122.758 -0.276136 122.758 6.35002e-06L 123.758 6.35002e-06ZM 112.553 6.35002e-06C 112.553 -0.276136 112.329 -0.499994 112.053 -0.499994C 111.777 -0.499994 111.553 -0.276136 111.553 6.35002e-06L 112.553 6.35002e-06ZM 101.347 6.35002e-06C 101.347 -0.276136 101.124 -0.499994 100.847 -0.499994C 100.571 -0.499994 100.347 -0.276136 100.347 6.35002e-06L 101.347 6.35002e-06ZM 90.1422 6.35002e-06C 90.1422 -0.276136 89.9183 -0.499994 89.6422 -0.499994C 89.3661 -0.499994 89.1422 -0.276136 89.1422 6.35002e-06L 90.1422 6.35002e-06ZM 78.9369 6.35002e-06C 78.9369 -0.276136 78.7131 -0.499994 78.4369 -0.499994C 78.1608 -0.499994 77.9369 -0.276136 77.9369 6.35002e-06L 78.9369 6.35002e-06ZM 67.7317 6.35002e-06C 67.7317 -0.276136 67.5078 -0.499994 67.2317 -0.499994C 66.9555 -0.499994 66.7317 -0.276136 66.7317 6.35002e-06L 67.7317 6.35002e-06ZM 56.5264 6.35002e-06C 56.5264 -0.276136 56.3025 -0.499994 56.0264 -0.499994C 55.7502 -0.499994 55.5264 -0.276136 55.5264 6.35002e-06L 56.5264 6.35002e-06ZM 45.3211 6.35002e-06C 45.3211 -0.276136 45.0972 -0.499994 44.8211 -0.499994C 44.545 -0.499994 44.3211 -0.276136 44.3211 6.35002e-06L 45.3211 6.35002e-06ZM 34.1158 6.35002e-06C 34.1158 -0.276136 33.892 -0.499994 33.6158 -0.499994C 33.3397 -0.499994 33.1158 -0.276136 33.1158 6.35002e-06L 34.1158 6.35002e-06ZM 22.9105 6.35002e-06C 22.9105 -0.276136 22.6867 -0.499994 22.4105 -0.499994C 22.1344 -0.499994 21.9105 -0.276136 21.9105 6.35002e-06L 22.9105 6.35002e-06ZM 11.7053 6.35002e-06C 11.7053 -0.276136 11.4814 -0.499994 11.2053 -0.499994C 10.9291 -0.499994 10.7053 -0.276136 10.7053 6.35002e-06L 11.7053 6.35002e-06ZM 0.5 6.35002e-06C 0.5 -0.276136 0.276142 -0.499994 4.94731e-08 -0.499994C -0.276142 -0.499994 -0.5 -0.276136 -0.5 6.35002e-06L 0.5 6.35002e-06ZM 145.169 6.35002e-06C 145.169 0.85009 144.663 1.66179 143.737 2.28325C 142.812 2.90347 141.511 3.29742 140.066 3.29742L 140.066 4.29742C 141.682 4.29742 143.182 3.85905 144.294 3.11377C 145.403 2.36972 146.169 1.28272 146.169 6.35002e-06L 145.169 6.35002e-06ZM 140.066 3.29742C 138.624 3.29742 137.324 2.89212 136.397 2.26497C 135.466 1.63479 134.963 0.82194 134.963 6.35002e-06L 133.963 6.35002e-06C 133.963 1.25885 134.731 2.3447 135.837 3.09304C 136.946 3.8444 138.447 4.29742 140.066 4.29742L 140.066 3.29742ZM 133.963 6.35002e-06C 133.963 0.850091 133.458 1.66179 132.531 2.28325C 131.606 2.90347 130.306 3.29742 128.861 3.29742L 128.861 4.29742C 130.476 4.29742 131.977 3.85905 133.088 3.11377C 134.198 2.36972 134.963 1.28272 134.963 6.35002e-06L 133.963 6.35002e-06ZM 128.861 3.29742C 127.392 3.29742 126.092 2.89148 125.174 2.2658C 124.252 1.63798 123.758 0.825721 123.758 6.35002e-06L 122.758 6.35002e-06C 122.758 1.25507 123.509 2.34151 124.611 3.0922C 125.715 3.84503 127.217 4.29742 128.861 4.29742L 128.861 3.29742ZM 122.758 6.35002e-06C 122.758 0.850091 122.253 1.66179 121.326 2.28325C 120.401 2.90347 119.101 3.29742 117.655 3.29742L 117.655 4.29742C 119.271 4.29742 120.772 3.85905 121.883 3.11377C 122.992 2.36972 123.758 1.28272 123.758 6.35002e-06L 122.758 6.35002e-06ZM 117.655 3.29742C 116.186 3.29742 114.887 2.89148 113.968 2.2658C 113.047 1.63798 112.553 0.825721 112.553 6.35002e-06L 111.553 6.35002e-06C 111.553 1.25507 112.304 2.34151 113.405 3.0922C 114.51 3.84503 116.012 4.29742 117.655 4.29742L 117.655 3.29742ZM 111.553 6.35002e-06C 111.553 0.850092 111.047 1.66179 110.121 2.28325C 109.196 2.90347 107.895 3.29742 106.45 3.29742L 106.45 4.29742C 108.066 4.29742 109.566 3.85905 110.678 3.11377C 111.787 2.36972 112.553 1.28272 112.553 6.35002e-06L 111.553 6.35002e-06ZM 106.45 3.29742C 104.981 3.29742 103.681 2.89148 102.763 2.2658C 101.842 1.63798 101.347 0.825721 101.347 6.35002e-06L 100.347 6.35002e-06C 100.347 1.25507 101.098 2.34151 102.2 3.0922C 103.305 3.84503 104.807 4.29742 106.45 4.29742L 106.45 3.29742ZM 100.347 6.35002e-06C 100.347 0.850091 99.8421 1.66179 98.9154 2.28325C 97.9906 2.90347 96.69 3.29742 95.2448 3.29742L 95.2448 4.29742C 96.8604 4.29742 98.3611 3.85905 99.4724 3.11377C 100.582 2.36972 101.347 1.28272 101.347 6.35002e-06L 100.347 6.35002e-06ZM 95.2448 3.29742C 93.7757 3.29742 92.4761 2.89148 91.5578 2.2658C 90.6364 1.63798 90.1422 0.825721 90.1422 6.35002e-06L 89.1422 6.35002e-06C 89.1422 1.25507 89.893 2.34151 90.9948 3.0922C 92.0997 3.84503 93.6014 4.29742 95.2448 4.29742L 95.2448 3.29742ZM 89.1422 6.35002e-06C 89.1422 0.850091 88.6368 1.66179 87.7102 2.28325C 86.7853 2.90347 85.4847 3.29742 84.0396 3.29742L 84.0396 4.29742C 85.6551 4.29742 87.1558 3.85905 88.2671 3.11377C 89.3766 2.36972 90.1422 1.28272 90.1422 6.35002e-06L 89.1422 6.35002e-06ZM 84.0396 3.29742C 82.5705 3.29742 81.2709 2.89148 80.3526 2.2658C 79.4311 1.63798 78.9369 0.825722 78.9369 6.35002e-06L 77.9369 6.35002e-06C 77.9369 1.25507 78.6877 2.34151 79.7895 3.0922C 80.8944 3.84503 82.3961 4.29742 84.0396 4.29742L 84.0396 3.29742ZM 77.9369 6.35002e-06C 77.9369 0.850091 77.4315 1.66179 76.5049 2.28325C 75.58 2.90347 74.2794 3.29742 72.8343 3.29742L 72.8343 4.29742C 74.4499 4.29742 75.9506 3.85905 77.0619 3.11377C 78.1713 2.36972 78.9369 1.28272 78.9369 6.35002e-06L 77.9369 6.35002e-06ZM 72.8343 3.29742C 71.3652 3.29742 70.0656 2.89148 69.1473 2.2658C 68.2259 1.63798 67.7317 0.825721 67.7317 6.35002e-06L 66.7317 6.35002e-06C 66.7317 1.25507 67.4825 2.34151 68.5842 3.0922C 69.6891 3.84503 71.1908 4.29742 72.8343 4.29742L 72.8343 3.29742ZM 66.7317 6.35002e-06C 66.7317 0.850091 66.2263 1.66179 65.2996 2.28325C 64.3748 2.90347 63.0741 3.29742 61.629 3.29742L 61.629 4.29742C 63.2446 4.29742 64.7453 3.85905 65.8566 3.11377C 66.9661 2.36972 67.7317 1.28272 67.7317 6.35002e-06L 66.7317 6.35002e-06ZM 61.629 3.29742C 60.1872 3.29742 58.8866 2.89212 57.9602 2.26497C 57.0294 1.63479 56.5264 0.82194 56.5264 6.35002e-06L 55.5264 6.35002e-06C 55.5264 1.25885 56.2943 2.3447 57.3996 3.09304C 58.5094 3.8444 60.0102 4.29742 61.629 4.29742L 61.629 3.29742ZM 55.5264 6.35002e-06C 55.5264 0.850091 55.021 1.66179 54.0943 2.28325C 53.1695 2.90347 51.8689 3.29742 50.4237 3.29742L 50.4237 4.29742C 52.0393 4.29742 53.54 3.85905 54.6513 3.11377C 55.7608 2.36972 56.5264 1.28272 56.5264 6.35002e-06L 55.5264 6.35002e-06ZM 50.4237 3.29742C 48.9819 3.29742 47.6813 2.89212 46.755 2.26497C 45.8242 1.63479 45.3211 0.82194 45.3211 6.35002e-06L 44.3211 6.35002e-06C 44.3211 1.25885 45.089 2.3447 46.1943 3.09304C 47.3041 3.8444 48.8049 4.29742 50.4237 4.29742L 50.4237 3.29742ZM 44.3211 6.35002e-06C 44.3211 0.850091 43.8157 1.66179 42.8891 2.28325C 41.9642 2.90347 40.6636 3.29742 39.2185 3.29742L 39.2185 4.29742C 40.834 4.29742 42.3347 3.85905 43.446 3.11377C 44.5555 2.36972 45.3211 1.28272 45.3211 6.35002e-06L 44.3211 6.35002e-06ZM 39.2185 3.29742C 37.7494 3.29742 36.4497 2.89148 35.5315 2.2658C 34.61 1.63798 34.1158 0.825721 34.1158 6.35002e-06L 33.1158 6.35002e-06C 33.1158 1.25507 33.8666 2.34151 34.9684 3.0922C 36.0733 3.84503 37.575 4.29742 39.2185 4.29742L 39.2185 3.29742ZM 33.1158 6.35002e-06C 33.1158 0.850091 32.6104 1.66179 31.6838 2.28325C 30.7589 2.90347 29.4583 3.29742 28.0132 3.29742L 28.0132 4.29742C 29.6288 4.29742 31.1294 3.85905 32.2408 3.11377C 33.3502 2.36972 34.1158 1.28272 34.1158 6.35002e-06L 33.1158 6.35002e-06ZM 28.0132 3.29742C 26.5713 3.29742 25.2708 2.89212 24.3444 2.26497C 23.4136 1.63479 22.9105 0.82194 22.9105 6.35002e-06L 21.9105 6.35002e-06C 21.9105 1.25885 22.6785 2.3447 23.7838 3.09304C 24.8936 3.8444 26.3943 4.29742 28.0132 4.29742L 28.0132 3.29742ZM 21.9105 6.35002e-06C 21.9105 0.850091 21.4052 1.66179 20.4785 2.28325C 19.5537 2.90347 18.253 3.29742 16.8079 3.29742L 16.8079 4.29742C 18.4235 4.29742 19.9242 3.85905 21.0355 3.11377C 22.145 2.36972 22.9105 1.28272 22.9105 6.35002e-06L 21.9105 6.35002e-06ZM 16.8079 3.29742C 15.3661 3.29742 14.0655 2.89212 13.1391 2.26497C 12.2083 1.63479 11.7053 0.82194 11.7053 6.35002e-06L 10.7053 6.35002e-06C 10.7053 1.25885 11.4732 2.3447 12.5785 3.09304C 13.6883 3.8444 15.1891 4.29742 16.8079 4.29742L 16.8079 3.29742ZM 10.7053 6.35002e-06C 10.7053 0.850091 10.1999 1.66179 9.27323 2.28325C 8.3484 2.90347 7.04775 3.29742 5.60264 3.29742L 5.60264 4.29742C 7.21822 4.29742 8.7189 3.85905 9.83021 3.11377C 10.9397 2.36972 11.7053 1.28272 11.7053 6.35002e-06L 10.7053 6.35002e-06ZM 5.60264 3.29742C 4.16079 3.29742 2.86021 2.89212 1.93387 2.26497C 1.00306 1.63479 0.5 0.82194 0.5 6.35002e-06L -0.5 6.35002e-06C -0.5 1.25885 0.267912 2.3447 1.37325 3.09304C 2.48305 3.8444 3.98379 4.29742 5.60264 4.29742L 5.60264 3.29742Z"/>
<path id="path17_stroke" d="M -0.16323 7.0702C -0.424244 7.16034 -0.56276 7.44501 -0.472614 7.70603C -0.382468 7.96704 -0.0977969 8.10556 0.163217 8.01541L -0.16323 7.0702ZM 22.0031 0.472609C 22.2641 0.382463 22.4027 0.0977921 22.3125 -0.163222C 22.2224 -0.424236 21.9377 -0.562752 21.6767 -0.472606L 22.0031 0.472609ZM 0.163217 8.01541L 22.0031 0.472609L 21.6767 -0.472606L -0.16323 7.0702L 0.163217 8.01541Z"/>
<path id="path18_stroke" d="M -3.95785e-07 -0.500012C -0.276143 -0.500012 -0.5 -0.276155 -0.5 -1.2207e-05C -0.5 0.27613 -0.276143 0.499988 -3.95785e-07 0.499988L -3.95785e-07 -0.500012ZM 112.053 0.499988C 112.329 0.499988 112.553 0.27613 112.553 -1.2207e-05C 112.553 -0.276155 112.329 -0.500012 112.053 -0.500012L 112.053 0.499988ZM -3.95785e-07 0.499988L 112.053 0.499988L 112.053 -0.500012L -3.95785e-07 -0.500012L -3.95785e-07 0.499988Z"/>
<path id="path19_stroke" d="M 0.374713 -0.331043C 0.191881 -0.53799 -0.124097 -0.55754 -0.331044 -0.374708C -0.537992 -0.191877 -0.557541 0.124102 -0.37471 0.331049L 0.374713 -0.331043ZM 6.47296 8.08193C 6.65579 8.28888 6.97177 8.30843 7.17871 8.1256C 7.38566 7.94277 7.40521 7.62679 7.22238 7.41984L 6.47296 8.08193ZM -0.37471 0.331049L 6.47296 8.08193L 7.22238 7.41984L 0.374713 -0.331043L -0.37471 0.331049Z"/>
</defs>
</svg>
