<svg width="139" height="149" viewBox="0 0 139 149" version="1.1" xmlns="http://www.w3.org/2000/svg" xmlns:xlink="http://www.w3.org/1999/xlink">
<title>Group</title>
<desc>Created using Figma</desc>
<g id="Canvas" transform="translate(-39078 -1760)">
<g id="Group">
<g id="Vector">
<use xlink:href="#path0_stroke" transform="translate(39094.4 1894.68)" fill="#18A29B"/>
</g>
<g id="Vector">
<use xlink:href="#path1_stroke" transform="translate(39079 1904.44)" fill="#18A29B"/>
</g>
<g id="Vector">
<use xlink:href="#path2_stroke" transform="translate(39157.7 1761)" fill="#18A29B"/>
</g>
<g id="Vector">
<use xlink:href="#path3_stroke" transform="translate(39123.5 1761)" fill="#18A29B"/>
</g>
<g id="Vector">
<use xlink:href="#path4_stroke" transform="translate(39160.1 1775.98)" fill="#18A29B"/>
</g>
<g id="Vector">
<use xlink:href="#path5_stroke" transform="translate(39111.9 1892.39)" fill="#18A29B"/>
</g>
</g>
</g>
<defs>
<path id="path0_stroke" d="M 1.39737 13.6723C 1.59235 13.8679 1.90893 13.8683 2.10447 13.6733C 2.30001 13.4784 2.30046 13.1618 2.10547 12.9662L 1.39737 13.6723ZM 0 11.5629L -0.435545 11.3173C -0.545626 11.5126 -0.512321 11.7572 -0.354054 11.9159L 0 11.5629ZM 6.51918 -5.95564e-06L 6.51918 -0.500006C 6.33872 -0.500006 6.17226 -0.402764 6.08363 -0.245567L 6.51918 -5.95564e-06ZM 109.61 -5.95564e-06L 110.102 0.0903255C 110.128 -0.055652 110.089 -0.205997 109.994 -0.320033C 109.899 -0.434068 109.758 -0.500006 109.61 -0.500006L 109.61 -5.95564e-06ZM 106.545 5.75706L 106.952 6.04714L 106.955 6.04324L 106.545 5.75706ZM 100.754 10.8161C 100.531 10.9778 100.48 11.2904 100.642 11.5142C 100.804 11.738 101.116 11.7884 101.34 11.6266L 100.754 10.8161ZM 2.10547 12.9662L 0.354054 11.2098L -0.354054 11.9159L 1.39737 13.6723L 2.10547 12.9662ZM 0.435545 11.8085L 6.95472 0.245555L 6.08363 -0.245567L -0.435545 11.3173L 0.435545 11.8085ZM 6.51918 0.499994L 109.61 0.499994L 109.61 -0.500006L 6.51918 -0.500006L 6.51918 0.499994ZM 109.61 -5.95564e-06C 109.118 -0.0903374 109.118 -0.0905817 109.118 -0.090819C 109.118 -0.0908886 109.118 -0.0911186 109.118 -0.0912578C 109.118 -0.0915361 109.118 -0.0917857 109.118 -0.0920069C 109.118 -0.0924491 109.118 -0.092777 109.118 -0.0929906C 109.119 -0.0934177 109.119 -0.0933871 109.118 -0.0928982C 109.118 -0.0919204 109.118 -0.0891085 109.117 -0.0844565C 109.115 -0.075153 109.111 -0.0584861 109.105 -0.0344067C 109.093 0.0137501 109.072 0.0915728 109.037 0.199453C 108.969 0.415212 108.848 0.75125 108.643 1.21065C 108.231 2.12961 107.481 3.54158 106.135 5.47087L 106.955 6.04324C 108.332 4.06945 109.115 2.60288 109.555 1.61908C 109.775 1.12711 109.91 0.755706 109.991 0.501874C 110.031 0.374958 110.058 0.277446 110.075 0.208967C 110.083 0.174729 110.09 0.147753 110.094 0.127992C 110.096 0.118113 110.098 0.110037 110.099 0.103761C 110.1 0.100623 110.1 0.097935 110.1 0.0956959C 110.101 0.0945764 110.101 0.0935691 110.101 0.0926741C 110.101 0.0922266 110.101 0.0918071 110.101 0.0914157C 110.101 0.0912199 110.101 0.0909474 110.101 0.0908495C 110.101 0.090584 110.102 0.0903255 109.61 -5.95564e-06ZM 106.137 5.46698C 105.073 6.96146 103.729 8.29945 102.642 9.26872C 102.1 9.75194 101.626 10.1404 101.288 10.4075C 101.119 10.541 100.985 10.6441 100.893 10.7133C 100.847 10.7479 100.812 10.7741 100.788 10.7913C 100.776 10.8 100.768 10.8064 100.762 10.8105C 100.759 10.8126 100.757 10.8141 100.756 10.815C 100.755 10.8155 100.755 10.8158 100.755 10.816C 100.754 10.8161 100.754 10.8162 100.754 10.8162C 100.754 10.8162 100.754 10.8162 100.754 10.8162C 100.754 10.8161 100.754 10.8161 101.047 11.2214C 101.34 11.6266 101.34 11.6266 101.34 11.6265C 101.34 11.6265 101.34 11.6264 101.34 11.6264C 101.341 11.6262 101.341 11.6261 101.341 11.6259C 101.342 11.6254 101.342 11.6249 101.343 11.6242C 101.345 11.6228 101.348 11.6208 101.352 11.6183C 101.359 11.6132 101.369 11.6058 101.382 11.5962C 101.408 11.577 101.446 11.5488 101.495 11.512C 101.592 11.4385 101.733 11.3307 101.908 11.1921C 102.259 10.9149 102.749 10.5136 103.308 10.015C 104.423 9.0205 105.827 7.62634 106.952 6.04713L 106.137 5.46698Z"/>
<path id="path1_stroke" d="M 137.5 -5.95564e-06C 137.5 -0.276148 137.276 -0.500006 137 -0.500006C 136.724 -0.500006 136.5 -0.276148 136.5 -5.95564e-06L 137.5 -5.95564e-06ZM 126.991 -5.95564e-06C 126.991 -0.276148 126.768 -0.500006 126.491 -0.500006C 126.215 -0.500006 125.991 -0.276148 125.991 -5.95564e-06L 126.991 -5.95564e-06ZM 116.483 -5.95564e-06C 116.483 -0.276148 116.259 -0.500006 115.983 -0.500006C 115.707 -0.500006 115.483 -0.276148 115.483 -5.95564e-06L 116.483 -5.95564e-06ZM 105.974 -5.95564e-06C 105.974 -0.276148 105.751 -0.500006 105.474 -0.500006C 105.198 -0.500006 104.974 -0.276148 104.974 -5.95564e-06L 105.974 -5.95564e-06ZM 95.4659 -5.95564e-06C 95.4659 -0.276148 95.2421 -0.500006 94.9659 -0.500006C 94.6898 -0.500006 94.4659 -0.276148 94.4659 -5.95564e-06L 95.4659 -5.95564e-06ZM 84.9574 -5.95564e-06C 84.9574 -0.276148 84.7335 -0.500006 84.4574 -0.500006C 84.1812 -0.500006 83.9574 -0.276148 83.9574 -5.95564e-06L 84.9574 -5.95564e-06ZM 74.4489 -5.95564e-06C 74.4489 -0.276148 74.225 -0.500006 73.9489 -0.500006C 73.6727 -0.500006 73.4489 -0.276148 73.4489 -5.95564e-06L 74.4489 -5.95564e-06ZM 63.9403 -5.95564e-06C 63.9403 -0.276148 63.7165 -0.500006 63.4403 -0.500006C 63.1642 -0.500006 62.9403 -0.276148 62.9403 -5.95564e-06L 63.9403 -5.95564e-06ZM 53.4318 -5.95564e-06C 53.4318 -0.276148 53.208 -0.500006 52.9318 -0.500006C 52.6557 -0.500006 52.4318 -0.276148 52.4318 -5.95564e-06L 53.4318 -5.95564e-06ZM 42.6314 -5.95564e-06C 42.6314 -0.276148 42.4075 -0.500006 42.1314 -0.500006C 41.8552 -0.500006 41.6314 -0.276148 41.6314 -5.95564e-06L 42.6314 -5.95564e-06ZM 32.1229 -5.95564e-06C 32.1229 -0.276148 31.899 -0.500006 31.6229 -0.500006C 31.3467 -0.500006 31.1229 -0.276148 31.1229 -5.95564e-06L 32.1229 -5.95564e-06ZM 21.6143 -5.95564e-06C 21.6143 -0.276148 21.3905 -0.500006 21.1143 -0.500006C 20.8382 -0.500006 20.6143 -0.276148 20.6143 -5.95564e-06L 21.6143 -5.95564e-06ZM 11.0085 -5.95564e-06C 11.0085 -0.276148 10.7847 -0.500006 10.5085 -0.500006C 10.2324 -0.500006 10.0085 -0.276148 10.0085 -5.95564e-06L 11.0085 -5.95564e-06ZM 0.5 -5.95564e-06C 0.5 -0.276148 0.276142 -0.500006 2.8998e-09 -0.500006C -0.276142 -0.500006 -0.5 -0.276148 -0.5 -5.95564e-06L 0.5 -5.95564e-06ZM 136.5 -5.95564e-06C 136.5 0.783867 136.034 1.53661 135.171 2.11565C 134.309 2.69347 133.096 3.06157 131.746 3.06157L 131.746 4.06157C 133.266 4.06157 134.68 3.64905 135.728 2.94616C 136.774 2.2445 137.5 1.21645 137.5 -5.95564e-06L 136.5 -5.95564e-06ZM 131.746 3.06157C 130.373 3.06157 129.161 2.68229 128.306 2.09942C 127.447 1.51441 126.991 0.761111 126.991 -5.95564e-06L 125.991 -5.95564e-06C 125.991 1.19042 126.704 2.21791 127.742 2.9258C 128.784 3.63583 130.199 4.06157 131.746 4.06157L 131.746 3.06157ZM 125.991 -5.95564e-06C 125.991 0.783867 125.526 1.53661 124.662 2.11565C 123.801 2.69347 122.587 3.06157 121.237 3.06157L 121.237 4.06157C 122.758 4.06157 124.171 3.64905 125.219 2.94616C 126.265 2.2445 126.991 1.21645 126.991 -5.95564e-06L 125.991 -5.95564e-06ZM 121.237 3.06157C 119.865 3.06157 118.652 2.68229 117.797 2.09942C 116.938 1.51441 116.483 0.761111 116.483 -5.95564e-06L 115.483 -5.95564e-06C 115.483 1.19042 116.195 2.21791 117.234 2.9258C 118.276 3.63583 119.69 4.06157 121.237 4.06157L 121.237 3.06157ZM 115.483 -5.95564e-06C 115.483 0.783866 115.017 1.53661 114.154 2.11565C 113.292 2.69347 112.079 3.06157 110.729 3.06157L 110.729 4.06157C 112.249 4.06157 113.663 3.64905 114.711 2.94616C 115.757 2.2445 116.483 1.21645 116.483 -5.95564e-06L 115.483 -5.95564e-06ZM 110.729 3.06157C 109.356 3.06157 108.144 2.68229 107.288 2.09942C 106.43 1.51441 105.974 0.761111 105.974 -5.95564e-06L 104.974 -5.95564e-06C 104.974 1.19042 105.687 2.21791 106.725 2.9258C 107.767 3.63583 109.182 4.06157 110.729 4.06157L 110.729 3.06157ZM 104.974 -5.95564e-06C 104.974 0.783866 104.509 1.53661 103.645 2.11565C 102.784 2.69347 101.57 3.06157 100.22 3.06157L 100.22 4.06157C 101.741 4.06157 103.154 3.64905 104.202 2.94616C 105.248 2.2445 105.974 1.21645 105.974 -5.95564e-06L 104.974 -5.95564e-06ZM 100.22 3.06157C 98.8479 3.06157 97.6353 2.68229 96.78 2.09942C 95.9214 1.51441 95.4659 0.761112 95.4659 -5.95564e-06L 94.4659 -5.95564e-06C 94.4659 1.19042 95.178 2.21791 96.2169 2.9258C 97.2588 3.63583 98.6734 4.06157 100.22 4.06157L 100.22 3.06157ZM 94.4659 -5.95564e-06C 94.4659 0.783866 94 1.53661 93.1367 2.11565C 92.2751 2.69347 91.0616 3.06157 89.7116 3.06157L 89.7116 4.06157C 91.2321 4.06157 92.6457 3.64905 93.6937 2.94616C 94.7399 2.2445 95.4659 1.21645 95.4659 -5.95564e-06L 94.4659 -5.95564e-06ZM 89.7116 3.06157C 88.3393 3.06157 87.1268 2.68229 86.2714 2.09942C 85.4129 1.51441 84.9574 0.761111 84.9574 -5.95564e-06L 83.9574 -5.95564e-06C 83.9574 1.19042 84.6695 2.21791 85.7083 2.9258C 86.7503 3.63583 88.1649 4.06157 89.7116 4.06157L 89.7116 3.06157ZM 83.9574 -5.95564e-06C 83.9574 0.783866 83.4915 1.53661 82.6281 2.11565C 81.7666 2.69347 80.5531 3.06157 79.2031 3.06157L 79.2031 4.06157C 80.7236 4.06157 82.1371 3.64905 83.1852 2.94616C 84.2313 2.2445 84.9574 1.21645 84.9574 -5.95564e-06L 83.9574 -5.95564e-06ZM 79.2031 3.06157C 77.8308 3.06157 76.6183 2.68229 75.7629 2.09942C 74.9044 1.51441 74.4489 0.761111 74.4489 -5.95564e-06L 73.4489 -5.95564e-06C 73.4489 1.19042 74.1609 2.21791 75.1998 2.9258C 76.2418 3.63583 77.6564 4.06157 79.2031 4.06157L 79.2031 3.06157ZM 73.4489 -5.95564e-06C 73.4489 0.783867 72.983 1.53661 72.1196 2.11565C 71.2581 2.69347 70.0446 3.06157 68.6946 3.06157L 68.6946 4.06157C 70.215 4.06157 71.6286 3.64905 72.6766 2.94616C 73.7228 2.2445 74.4489 1.21645 74.4489 -5.95564e-06L 73.4489 -5.95564e-06ZM 68.6946 3.06157C 67.3223 3.06157 66.1098 2.68229 65.2544 2.09942C 64.3959 1.51441 63.9403 0.761111 63.9403 -5.95564e-06L 62.9403 -5.95564e-06C 62.9403 1.19042 63.6524 2.21791 64.6913 2.9258C 65.7333 3.63583 67.1479 4.06157 68.6946 4.06157L 68.6946 3.06157ZM 62.9403 -5.95564e-06C 62.9403 0.783866 62.4745 1.53661 61.6111 2.11565C 60.7496 2.69347 59.536 3.06157 58.1861 3.06157L 58.1861 4.06157C 59.7065 4.06157 61.1201 3.64905 62.1681 2.94616C 63.2143 2.2445 63.9403 1.21645 63.9403 -5.95564e-06L 62.9403 -5.95564e-06ZM 58.1861 3.06157C 56.8138 3.06157 55.6012 2.68229 54.7459 2.09942C 53.8873 1.51441 53.4318 0.761111 53.4318 -5.95564e-06L 52.4318 -5.95564e-06C 52.4318 1.19042 53.1439 2.21791 54.1828 2.9258C 55.2247 3.63583 56.6394 4.06157 58.1861 4.06157L 58.1861 3.06157ZM 52.4318 -5.95564e-06C 52.4318 0.783866 51.9659 1.53661 51.1026 2.11565C 50.241 2.69347 49.0275 3.06157 47.6776 3.06157L 47.6776 4.06157C 49.198 4.06157 50.6116 3.64905 51.6596 2.94616C 52.7058 2.2445 53.4318 1.21645 53.4318 -5.95564e-06L 52.4318 -5.95564e-06ZM 47.6776 3.06157C 46.3293 3.06157 45.0364 2.68193 44.0943 2.08937C 43.1397 1.48895 42.6314 0.733 42.6314 -5.95564e-06L 41.6314 -5.95564e-06C 41.6314 1.21853 42.4609 2.24337 43.5619 2.93585C 44.6753 3.6362 46.1555 4.06157 47.6776 4.06157L 47.6776 3.06157ZM 41.6314 -5.95564e-06C 41.6314 0.783866 41.1655 1.53661 40.3021 2.11565C 39.4406 2.69347 38.2271 3.06157 36.8771 3.06157L 36.8771 4.06157C 38.3976 4.06157 39.8111 3.64905 40.8592 2.94616C 41.9053 2.2445 42.6314 1.21645 42.6314 -5.95564e-06L 41.6314 -5.95564e-06ZM 36.8771 3.06157C 35.5304 3.06157 34.317 2.68293 33.4539 2.09859C 32.5864 1.51122 32.1229 0.75733 32.1229 -5.95564e-06L 31.1229 -5.95564e-06C 31.1229 1.1942 31.8512 2.2211 32.8933 2.92664C 33.9398 3.6352 35.3534 4.06157 36.8771 4.06157L 36.8771 3.06157ZM 31.1229 -5.95564e-06C 31.1229 0.783866 30.657 1.53661 29.7936 2.11565C 28.9321 2.69347 27.7186 3.06157 26.3686 3.06157L 26.3686 4.06157C 27.889 4.06157 29.3026 3.64905 30.3506 2.94616C 31.3968 2.2445 32.1229 1.21645 32.1229 -5.95564e-06L 31.1229 -5.95564e-06ZM 26.3686 3.06157C 25.0219 3.06157 23.8084 2.68293 22.9454 2.09859C 22.0779 1.51122 21.6143 0.75733 21.6143 -5.95564e-06L 20.6143 -5.95564e-06C 20.6143 1.1942 21.3427 2.2211 22.3848 2.92664C 23.4313 3.6352 24.8449 4.06157 26.3686 4.06157L 26.3686 3.06157ZM 20.6143 -5.95564e-06C 20.6143 0.783866 20.1485 1.53661 19.2851 2.11565C 18.4236 2.69347 17.21 3.06157 15.8601 3.06157L 15.8601 4.06157C 17.3805 4.06157 18.7941 3.64905 19.8421 2.94616C 20.8883 2.2445 21.6143 1.21645 21.6143 -5.95564e-06L 20.6143 -5.95564e-06ZM 15.8601 3.06157C 14.5129 3.06157 13.2728 2.68259 12.3834 2.09535C 11.4871 1.50355 11.0085 0.749024 11.0085 -5.95564e-06L 10.0085 -5.95564e-06C 10.0085 1.20251 10.7706 2.22877 11.8324 2.92987C 12.9012 3.63553 14.3369 4.06157 15.8601 4.06157L 15.8601 3.06157ZM 10.0085 -5.95564e-06C 10.0085 0.783866 9.54264 1.53661 8.67928 2.11565C 7.81775 2.69347 6.60421 3.06157 5.25426 3.06157L 5.25426 4.06157C 6.7747 4.06157 8.18828 3.64905 9.23629 2.94616C 10.2825 2.2445 11.0085 1.21645 11.0085 -5.95564e-06L 10.0085 -5.95564e-06ZM 5.25426 3.06157C 3.90758 3.06157 2.6941 2.68293 1.83106 2.09859C 0.963562 1.51122 0.5 0.75733 0.5 -5.95564e-06L -0.5 -5.95564e-06C -0.5 1.1942 0.228377 2.2211 1.27041 2.92664C 2.31691 3.6352 3.73056 4.06157 5.25426 4.06157L 5.25426 3.06157Z"/>
<path id="path2_stroke" d="M -0.499994 5.81605e-09L -0.499994 130.9L 0.500006 130.9L 0.500006 5.81605e-09L -0.499994 5.81605e-09Z"/>
<path id="path3_stroke" d="M 31.9148 5.81605e-09L 32.4148 5.81605e-09C 32.4148 -0.251125 32.2285 -0.46329 31.9795 -0.495794C 31.7305 -0.528298 31.496 -0.371056 31.4315 -0.128345L 31.9148 5.81605e-09ZM 31.9148 120.166L 31.9148 120.666C 32.1909 120.666 32.4148 120.442 32.4148 120.166L 31.9148 120.166ZM 0 120.166L -0.483247 120.038C -0.523098 120.188 -0.490988 120.348 -0.396341 120.471C -0.301694 120.594 -0.155251 120.666 1.07302e-16 120.666L 0 120.166ZM 31.4148 5.81605e-09L 31.4148 120.166L 32.4148 120.166L 32.4148 5.81605e-09L 31.4148 5.81605e-09ZM 31.9148 119.666L 0 119.666L 0 120.666L 31.9148 120.666L 31.9148 119.666ZM 0.483247 120.295L 32.398 0.128345L 31.4315 -0.128345L -0.483247 120.038L 0.483247 120.295Z"/>
<path id="path4_stroke" d="M 0 0L 0.226798 -0.445604C 0.0717945 -0.524495 -0.113069 -0.517171 -0.261344 -0.426262C -0.409619 -0.335354 -0.5 -0.173925 -0.5 -4.9472e-17L 0 0ZM 0 105.237L -0.5 105.237C -0.5 105.513 -0.276142 105.737 1.11022e-16 105.737L 0 105.237ZM 50.9371 105.237L 50.9371 105.737C 51.1797 105.737 51.3873 105.563 51.4295 105.324L 50.9371 105.237ZM 45.7315 47.6664L 46.194 47.4764C 46.191 47.469 46.1878 47.4617 46.1844 47.4545L 45.7315 47.6664ZM -0.5 0L -0.5 105.237L 0.5 105.237L 0.5 0L -0.5 0ZM 0 105.737L 50.9371 105.737L 50.9371 104.737L 0 104.737L 0 105.737ZM 50.9371 105.237C 51.4295 105.324 51.4296 105.324 51.4296 105.323C 51.4297 105.323 51.4298 105.323 51.4299 105.322C 51.4301 105.321 51.4303 105.319 51.4307 105.317C 51.4314 105.313 51.4325 105.307 51.4338 105.299C 51.4366 105.283 51.4406 105.26 51.4458 105.229C 51.4561 105.168 51.4713 105.077 51.4905 104.957C 51.5289 104.718 51.5837 104.365 51.6494 103.908C 51.7809 102.992 51.9564 101.657 52.1332 99.9737C 52.4866 96.6075 52.8453 91.8473 52.8667 86.2666C 52.9096 75.1127 51.6057 60.6461 46.194 47.4764L 45.2691 47.8565C 50.6104 60.8548 51.9093 75.1735 51.8667 86.2628C 51.8454 91.8037 51.4893 96.5297 51.1386 99.8692C 50.9633 101.539 50.7895 102.861 50.6596 103.765C 50.5947 104.217 50.5407 104.565 50.5032 104.799C 50.4844 104.915 50.4697 105.004 50.4597 105.063C 50.4547 105.092 50.4509 105.114 50.4484 105.129C 50.4472 105.136 50.4462 105.142 50.4456 105.145C 50.4453 105.147 50.4451 105.148 50.4449 105.149C 50.4449 105.149 50.4448 105.15 50.4448 105.15C 50.4448 105.15 50.4448 105.15 50.9371 105.237ZM 46.1844 47.4545C 38.6485 31.3564 27.1584 19.3842 17.5637 11.4408C 12.7649 7.46777 8.43579 4.49891 5.30462 2.52233C 3.7389 1.53395 2.4723 0.793431 1.59578 0.299308C 1.15751 0.0522402 0.816717 -0.133247 0.584775 -0.257333C 0.468803 -0.319377 0.380039 -0.366073 0.319904 -0.397443C 0.289836 -0.413129 0.266925 -0.424983 0.251348 -0.433008C 0.24356 -0.437021 0.237605 -0.440077 0.233506 -0.442176C 0.231456 -0.443226 0.229871 -0.444036 0.228752 -0.444607C 0.228192 -0.444893 0.227704 -0.445142 0.227424 -0.445285C 0.227052 -0.445474 0.226798 -0.445604 0 0C -0.226798 0.445604 -0.226818 0.445594 -0.226721 0.445643C -0.226532 0.445739 -0.226319 0.445848 -0.225943 0.44604C -0.225191 0.446424 -0.223973 0.447046 -0.222292 0.447907C -0.21893 0.449629 -0.213715 0.452304 -0.20667 0.455934C -0.19258 0.463194 -0.171167 0.474272 -0.14261 0.489169C -0.0854949 0.518964 0.000197444 0.564038 0.11305 0.624412C 0.338756 0.745163 0.673088 0.92711 1.10471 1.17043C 1.96796 1.65707 3.22023 2.38912 4.77082 3.36794C 7.87228 5.32577 12.1656 8.26986 16.926 12.211C 26.4499 20.0959 37.8255 31.9569 45.2787 47.8784L 46.1844 47.4545Z"/>
<path id="path5_stroke" d="M 60.2159 2.29306C 60.2159 2.5692 60.4398 2.79306 60.7159 2.79306C 60.9921 2.79306 61.2159 2.5692 61.2159 2.29306L 60.2159 2.29306ZM 60.7159 2.97782e-06L 61.2159 2.97782e-06C 61.2159 -0.276139 60.9921 -0.499997 60.7159 -0.499997L 60.7159 2.97782e-06ZM 9.29226 2.97782e-06L 9.29226 -0.499997C 9.25189 -0.499997 9.21166 -0.495107 9.17247 -0.485435L 9.29226 2.97782e-06ZM -0.119792 1.80762C -0.387892 1.87378 -0.551597 2.14475 -0.485438 2.41285C -0.419279 2.68095 -0.148308 2.84465 0.119792 2.7785L -0.119792 1.80762ZM 61.2159 2.29306L 61.2159 2.97782e-06L 60.2159 2.97782e-06L 60.2159 2.29306L 61.2159 2.29306ZM 60.7159 -0.499997L 9.29226 -0.499997L 9.29226 0.500003L 60.7159 0.500003L 60.7159 -0.499997ZM 9.17247 -0.485435L -0.119792 1.80762L 0.119792 2.7785L 9.41205 0.485441L 9.17247 -0.485435Z"/>
</defs>
</svg>
