<?xml version="1.0" encoding="UTF-8"?>
<!DOCTYPE svg PUBLIC "-//W3C//DTD SVG 1.1//EN" "http://www.w3.org/Graphics/SVG/1.1/DTD/svg11.dtd">
<!-- Creator: CorelDRAW 2018 -->
<svg xmlns="http://www.w3.org/2000/svg" xml:space="preserve" width="1440px" height="15px" version="1.1" style="shape-rendering:geometricPrecision; text-rendering:geometricPrecision; image-rendering:optimizeQuality; fill-rule:evenodd; clip-rule:evenodd"
viewBox="0 0 2270.66 23.06"
 xmlns:xlink="http://www.w3.org/1999/xlink">
 <defs>
  <style type="text/css">
   <![CDATA[
    .fil0 {fill:#EBF5F4}
   ]]>
  </style>
 </defs>
 <g id="Слой_x0020_1">
  <metadata id="CorelCorpID_0Corel-Layer"/>
  <g id="wave-border-gray.1ab0d9326098.svg">
   <g id="Canvas">
    <g id="Group">
     <g id="Group_0">
      <g id="Vector">
       <g>
        <path class="fil0" d="M0 22.17l0.09 -22.06 23.12 4.18c11.24,0 11.24,-4.29 22.47,-4.29 11.24,0 11.24,4.29 22.48,4.29 11.23,0 11.23,-4.29 22.47,-4.29 11.24,0 11.24,4.29 22.47,4.29 11.24,0 11.24,-4.29 22.47,-4.29 11.24,0 11.24,4.29 22.48,4.29 11.23,0 11.23,-4.29 22.47,-4.29 11.24,0 11.24,4.29 22.47,4.29 11.24,0 11.24,-4.29 22.48,-4.29 11.23,0 11.23,4.29 22.47,4.29 11.23,0 11.23,-4.29 22.47,-4.29 11.24,0 11.24,4.29 22.47,4.29 11.24,0 11.24,-4.29 22.48,-4.29 11.23,0 11.23,4.29 22.47,4.29 11.24,0 11.24,-4.29 22.47,-4.29 11.24,0 11.24,4.29 22.48,4.29 11.23,0 11.23,-4.29 22.47,-4.29 11.23,0 11.23,4.29 22.47,4.29 11.24,0 11.24,-4.29 22.47,-4.29 11.24,0 11.24,4.29 22.48,4.29 11.23,0 11.23,-4.29 22.47,-4.29 11.24,0 11.24,4.29 22.47,4.29 11.24,0 11.24,-4.29 22.48,-4.29 11.23,0 11.23,4.29 22.47,4.29 11.23,0 11.23,-4.29 22.47,-4.29 11.24,0 11.24,4.29 22.47,4.29 11.24,0 11.24,-4.29 22.48,-4.29 11.23,0 11.23,4.29 22.47,4.29 11.24,0 11.24,-4.29 22.47,-4.29 11.24,0 11.24,4.29 22.47,4.29 11.24,0 11.24,-4.29 22.48,-4.29 11.23,0 11.23,4.29 22.47,4.29 11.24,0 11.24,-4.29 22.47,-4.29 11.24,0 11.24,4.29 22.48,4.29 11.23,0 11.23,-4.29 22.47,-4.29 11.24,0 11.24,4.29 22.47,4.29 11.24,0 11.24,-4.29 22.47,-4.29 11.24,0 11.24,4.29 22.48,4.29 11.23,0 11.23,-4.29 22.47,-4.29 11.24,0 11.24,4.29 22.47,4.29 11.24,0 11.24,-4.29 22.48,-4.29 11.23,0 11.23,4.29 22.47,4.29 11.23,0 11.23,-4.29 22.47,-4.29 11.24,0 11.24,4.29 22.47,4.29 11.24,0 11.24,-4.29 22.48,-4.29 11.23,0 11.23,4.29 22.47,4.29 11.24,0 11.24,-4.29 22.48,-4.29 11.22,0 11.22,4.29 22.46,4.29 11.24,0 11.24,-4.29 22.47,-4.29 11.24,0 11.24,4.29 22.48,4.29 11.23,0 11.23,-4.29 22.47,-4.29 11.24,0 11.24,4.29 22.47,4.29 11.24,0 11.24,-4.29 22.48,-4.29 11.23,0 11.23,4.29 22.47,4.29 11.24,0 11.24,-4.29 22.47,-4.29 11.24,0 11.24,4.29 22.48,4.29 11.23,0 11.23,-4.29 22.47,-4.29 11.24,0 11.24,4.29 22.47,4.29 11.24,0 11.24,-4.29 22.48,-4.29 11.23,0 11.23,4.29 22.47,4.29 11.24,0 11.24,-4.29 22.47,-4.29 11.24,0 11.24,4.29 22.48,4.29 11.23,0 11.23,-4.29 22.47,-4.29 11.24,0 11.24,4.29 22.47,4.29 11.24,0 11.24,-4.29 22.47,-4.29 11.24,0 11.24,4.29 22.48,4.29 11.23,0 11.23,-4.29 22.47,-4.29 11.24,0 11.24,4.29 22.47,4.29 11.24,0 11.24,-4.29 22.48,-4.29 11.23,0 11.23,4.29 22.47,4.29 11.24,0 11.24,-4.29 22.47,-4.29 11.24,0 11.24,4.29 22.48,4.29 11.23,0 11.23,-4.29 22.47,-4.29 11.24,0 11.24,4.29 22.47,4.29 11.24,0 11.24,-4.29 22.48,-4.29 11.23,0 11.23,4.29 22.47,4.29 11.24,0 11.24,-4.29 22.47,-4.29 11.24,0 11.24,4.29 22.48,4.29 11.23,0 11.23,-4.29 22.47,-4.29 11.24,0 11.24,4.29 22.46,4.29 11.24,0 11.24,-4.29 22.47,-4.29 11.24,0 11.24,4.29 22.48,4.29 11.23,0 11.23,-4.29 22.47,-4.29 11.24,0 11.24,4.29 22.47,4.29 11.24,0 11.24,-4.29 22.48,-4.29 11.23,0 11.23,4.29 22.47,4.29 11.24,0 11.24,-4.29 22.47,-4.29 11.24,0 11.24,4.29 22.48,4.29 11.23,0 11.23,-4.29 22.47,-4.29 11.24,0 11.24,4.29 22.47,4.29 11.24,0 11.24,-4.29 22.58,-4.29 11.24,0 11.24,4.29 22.48,4.29 11.23,0 11.23,-4.29 22.47,-4.29 11.24,0 11.24,4.29 22.47,4.29 11.24,0 11.24,-4.29 22.58,-4.29 11.24,0 11.24,4.29 22.59,4.29 11.23,0 11.23,-4.29 22.58,-4.29 11.23,0 11.23,4.29 22.58,4.29 11.23,0 11.23,-4.29 22.58,-4.29l21.93 4.18 0.05 5.04 0.01 6.87 -0.02 6.97 -2270.64 -0.89z"/>
       </g>
      </g>
     </g>
    </g>
   </g>
  </g>
 </g>
</svg>
