<?xml version="1.0" standalone="no"?>
<!DOCTYPE svg PUBLIC "-//W3C//DTD SVG 20010904//EN"
 "http://www.w3.org/TR/2001/REC-SVG-20010904/DTD/svg10.dtd">
<svg version="1.0" xmlns="http://www.w3.org/2000/svg"
 width="1020.000000pt" height="336.000000pt" viewBox="0 0 1020.000000 336.000000"
 preserveAspectRatio="xMidYMid meet">

<g transform="translate(0.000000,336.000000) scale(0.100000,-0.100000)"
fill="#000000" stroke="none">
<path d="M3435 2413 c-44 -23 -65 -44 -86 -85 -37 -72 -14 -218 38 -246 17
-10 18 -6 15 59 -6 108 4 157 43 196 23 23 42 33 64 33 35 0 41 18 13 43 -23
21 -48 21 -87 0z"/>
<path d="M3820 2365 l0 -65 35 0 c33 0 35 2 35 35 l0 35 125 0 125 0 0 30 0
30 -160 0 -160 0 0 -65z"/>
<path d="M4240 2350 l0 -80 35 0 35 0 0 50 0 49 61 3 61 3 -22 28 c-20 25 -27
27 -96 27 l-74 0 0 -80z"/>
<path d="M4700 2365 l0 -65 34 0 c32 0 35 3 38 33 3 31 5 32 51 35 50 3 60 18
31 46 -11 12 -35 16 -85 16 l-69 0 0 -65z"/>
<path d="M5160 2293 l0 -138 40 63 c37 59 40 68 40 137 l0 75 -40 0 -40 0 0
-137z"/>
<path d="M5480 2236 c0 -106 -3 -221 -6 -255 l-7 -61 42 0 41 0 0 255 0 255
-35 0 -35 0 0 -194z"/>
<path d="M5775 2416 c-37 -16 -92 -77 -101 -111 -12 -50 0 -163 22 -192 38
-50 44 -42 44 62 0 138 32 195 109 195 35 0 38 6 15 38 -17 25 -45 27 -89 8z"/>
<path d="M6160 2250 l0 -180 35 0 35 0 0 180 0 180 -35 0 -35 0 0 -180z"/>
<path d="M6470 2255 l0 -175 30 0 30 0 0 -140 0 -140 35 0 35 0 0 73 c0 39 3
82 6 95 6 20 3 22 -30 22 l-36 0 0 220 0 220 -35 0 -35 0 0 -175z"/>
<path d="M6700 2365 l0 -65 34 0 c32 0 35 3 38 33 l3 32 123 3 122 3 0 29 0
30 -160 0 -160 0 0 -65z"/>
<path d="M7120 2365 l0 -65 35 0 35 0 0 65 0 65 -35 0 -35 0 0 -65z"/>
<path d="M7440 2236 c0 -106 -3 -221 -6 -255 l-7 -61 42 0 41 0 0 255 0 255
-35 0 -35 0 0 -194z"/>
<path d="M7580 2400 c0 -28 3 -30 35 -30 32 0 35 2 35 30 0 28 -3 30 -35 30
-32 0 -35 -2 -35 -30z"/>
<path d="M7750 2236 c0 -106 -3 -221 -6 -255 l-7 -61 42 0 41 0 0 225 0 225
75 0 75 0 0 30 0 30 -110 0 -110 0 0 -194z"/>
<path d="M8070 2350 l0 -80 35 0 35 0 0 50 0 50 60 0 c33 0 60 3 60 8 0 4 -7
18 -16 30 -13 20 -24 22 -95 22 l-79 0 0 -80z"/>
<path d="M8540 2375 l0 -55 35 0 35 0 0 55 0 55 -35 0 -35 0 0 -55z"/>
<path d="M8970 2236 c0 -106 -3 -221 -6 -255 l-7 -61 42 0 41 0 0 255 0 255
-35 0 -35 0 0 -194z"/>
<path d="M3640 2379 c12 -42 13 -39 -5 -39 -18 0 -18 1 -4 -39 10 -27 15 -31
49 -31 38 0 38 1 30 29 -11 41 -25 63 -54 90 l-25 24 9 -34z"/>
<path d="M4963 2324 c-8 -66 -8 -92 2 -110 l12 -24 26 24 c49 45 48 122 -2
170 l-28 27 -10 -87z"/>
<path d="M4525 2390 c4 -6 3 -45 -1 -87 -5 -62 -11 -81 -31 -101 -25 -24 -27
-25 -139 -19 l-114 6 0 -73 c0 -40 -3 -101 -6 -135 l-7 -61 42 0 41 0 0 100 0
100 85 0 c50 0 99 6 119 14 87 36 114 160 50 236 -24 28 -53 43 -39 20z"/>
<path d="M5978 2370 c3 -22 0 -30 -10 -30 -13 0 -13 -6 -4 -35 10 -32 14 -35
48 -35 28 0 38 4 38 15 0 30 -52 115 -70 115 -4 0 -5 -13 -2 -30z"/>
<path d="M8360 2350 c-2 -90 -9 -123 -33 -148 -22 -24 -25 -24 -139 -19 l-118
6 0 -73 c0 -40 -3 -101 -6 -135 l-7 -61 42 0 41 0 0 100 0 100 91 0 c144 0
199 43 199 154 0 50 -4 60 -35 94 l-34 37 -1 -55z"/>
<path d="M1240 2280 l0 -40 600 0 600 0 0 40 0 40 -600 0 -600 0 0 -40z"/>
<path d="M5310 2167 c-59 -96 -66 -104 -70 -80 -5 26 -7 24 -43 -36 -23 -39
-37 -75 -37 -97 0 -33 1 -34 38 -34 37 0 38 1 110 119 71 117 73 121 70 178
l-3 58 -65 -108z"/>
<path d="M8540 2156 l0 -86 35 0 35 0 0 50 0 50 60 0 c64 0 70 6 43 38 -14 16
-36 22 -95 27 l-78 7 0 -86z"/>
<path d="M4700 2150 l0 -80 34 0 c34 0 35 1 38 43 l3 42 53 3 c52 3 57 7 46
36 -4 12 -20 16 -55 16 -27 0 -49 5 -49 10 0 6 -16 10 -35 10 l-35 0 0 -80z"/>
<path d="M3820 2146 l0 -76 35 0 c34 0 35 1 35 40 l0 40 105 0 105 0 0 30 0
30 -79 0 c-43 0 -106 3 -140 6 l-61 7 0 -77z"/>
<path d="M6700 2146 l0 -76 35 0 c34 0 35 1 35 40 l0 40 110 0 110 0 0 30 0
30 -84 0 c-45 0 -111 3 -145 6 l-61 7 0 -77z"/>
<path d="M7120 2133 c0 -50 -3 -118 -6 -152 l-7 -61 42 0 41 0 0 115 0 115 75
0 75 0 0 30 c0 30 0 30 -57 30 -32 0 -82 3 -110 6 l-53 7 0 -90z"/>
<path d="M8823 2134 c-3 -86 -22 -131 -59 -140 -15 -4 -73 -4 -130 0 l-104 7
0 -42 0 -42 123 5 c107 4 130 8 168 29 l44 24 3 96 c2 88 1 96 -20 116 l-23
22 -2 -75z"/>
<path d="M4975 2104 c-10 -113 -18 -118 -161 -111 l-114 6 0 -41 0 -40 118 4
c135 5 182 21 212 70 35 57 19 152 -29 177 -17 10 -19 5 -26 -65z"/>
<path d="M3627 2041 c-25 -56 -56 -66 -165 -54 -48 6 -89 9 -91 7 -8 -7 24
-36 60 -55 53 -27 133 -25 189 4 49 25 75 56 89 105 l10 32 -38 0 c-34 0 -39
-4 -54 -39z"/>
<path d="M5970 2059 c0 -11 -14 -34 -30 -51 l-31 -30 -87 6 c-48 4 -96 10
-107 13 -18 5 -17 3 5 -22 93 -103 300 -56 326 74 6 31 6 31 -35 31 -35 0 -41
-3 -41 -21z"/>
<path d="M3810 1961 l0 -41 165 0 165 0 0 35 0 35 -104 0 c-56 0 -131 3 -165
6 l-61 7 0 -42z"/>
<path d="M6150 1961 l0 -41 145 0 145 0 0 35 0 35 -84 0 c-45 0 -111 3 -145 6
l-61 7 0 -42z"/>
<path d="M6690 1961 l0 -41 165 0 165 0 0 35 0 35 -104 0 c-56 0 -131 3 -165
6 l-61 7 0 -42z"/>
<path d="M2440 1680 l0 -40 100 0 100 0 0 40 0 40 -100 0 -100 0 0 -40z"/>
<path d="M7470 1413 c0 -102 2 -184 4 -182 2 2 18 28 35 57 30 52 31 56 31
182 l0 130 -35 0 -35 0 0 -187z"/>
<path d="M7930 1260 l0 -340 -50 0 -50 0 0 -40 0 -40 85 0 85 0 0 380 0 380
-35 0 -35 0 0 -340z"/>
<path d="M8510 1413 c0 -102 2 -184 4 -182 2 2 18 28 35 57 30 52 31 56 31
182 l0 130 -35 0 -35 0 0 -187z"/>
<path d="M8970 1260 l0 -340 -50 0 -50 0 0 -40 0 -40 85 0 85 0 0 380 0 380
-35 0 -35 0 0 -340z"/>
<path d="M4510 1533 c-46 -24 -68 -65 -80 -154 -17 -124 6 -245 56 -291 18
-16 19 -13 16 106 -5 142 6 194 51 242 25 27 43 37 80 42 l48 7 -29 28 c-38
37 -94 45 -142 20z"/>
<path d="M5544 1541 c-62 -27 -89 -121 -81 -277 3 -74 10 -111 25 -141 40 -78
47 -64 47 91 0 125 3 147 22 189 24 51 64 77 123 77 36 0 38 9 5 40 -27 25
-104 37 -141 21z"/>
<path d="M6544 1541 c-62 -27 -89 -121 -81 -277 3 -74 10 -111 25 -141 40 -78
47 -64 47 91 0 124 3 147 22 189 24 52 64 77 123 77 36 0 38 9 5 40 -27 25
-104 37 -141 21z"/>
<path d="M3450 1435 l0 -105 35 0 35 0 0 70 0 70 71 0 c61 0 70 2 65 16 -3 9
-6 17 -6 20 0 16 -69 34 -130 34 l-70 0 0 -105z"/>
<path d="M5890 1539 c0 -2 7 -26 15 -53 8 -27 15 -53 15 -58 0 -4 -27 -8 -61
-8 -52 0 -60 -2 -55 -16 3 -9 6 -24 6 -35 0 -17 8 -19 90 -19 l90 0 -6 28
c-12 52 -46 120 -70 143 -13 12 -24 21 -24 18z"/>
<path d="M6890 1536 c0 -4 4 -15 9 -24 4 -9 11 -34 15 -54 l7 -38 -62 0 c-52
0 -60 -2 -55 -16 3 -9 6 -24 6 -35 0 -17 8 -19 90 -19 l90 0 -6 28 c-12 52
-46 120 -70 143 -13 12 -24 19 -24 15z"/>
<path d="M3857 1499 c25 -111 -9 -211 -91 -266 -64 -43 -103 -53 -218 -53
l-98 0 0 -130 0 -130 -55 0 -55 0 0 -40 0 -40 90 0 90 0 0 129 0 128 106 7
c133 9 198 32 252 90 81 88 78 243 -7 320 l-21 19 7 -34z"/>
<path d="M4881 1481 c42 -114 34 -291 -19 -399 -32 -66 -106 -135 -169 -156
-59 -20 -186 -21 -244 -1 l-44 15 39 -35 c51 -45 124 -69 212 -69 208 1 339
176 321 428 -7 99 -35 179 -82 232 l-34 39 20 -54z"/>
<path d="M7605 1153 l-131 -228 -52 -3 -52 -3 0 -40 0 -40 86 3 87 3 99 173
99 173 -3 95 -3 96 -130 -229z"/>
<path d="M8645 1152 l-130 -231 -52 -1 -53 0 0 -40 0 -41 87 3 87 3 98 173 99
174 -3 95 -3 95 -130 -230z"/>
<path d="M1440 1280 l0 -40 500 0 500 0 0 40 0 40 -500 0 -500 0 0 -40z"/>
<path d="M5889 1068 c-20 -49 -67 -97 -123 -126 -67 -34 -228 -44 -291 -18
l-39 17 24 -27 c59 -62 172 -93 278 -74 138 24 220 100 247 228 l7 32 -45 0
c-41 0 -46 -3 -58 -32z"/>
<path d="M6889 1068 c-20 -49 -67 -97 -123 -126 -67 -34 -228 -44 -291 -18
l-40 17 29 -30 c46 -48 119 -74 206 -74 93 -1 144 14 207 57 50 34 95 106 108
174 l7 32 -45 0 c-41 0 -46 -3 -58 -32z"/>
<path d="M1040 880 l0 -40 800 0 800 0 0 40 0 40 -800 0 -800 0 0 -40z"/>
</g>
</svg>
