<svg width="166" height="33" viewBox="0 0 166 33" version="1.1" xmlns="http://www.w3.org/2000/svg" xmlns:xlink="http://www.w3.org/1999/xlink">
<title>header__logo</title>
<desc>Created using Figma</desc>
<g id="Canvas" transform="translate(-29878 6047)">
<g id="header__logo">
<g id="Group">
<g id="Group">
<g id="Vector">
<use xlink:href="#path0_fill" transform="translate(29898.6 -6042.45)" fill="#FFFFFF"/>
</g>
<g id="Vector">
<use xlink:href="#path1_fill" transform="translate(29878.5 -6047)" fill="#FFFFFF"/>
</g>
</g>
<g id="Group">
<g id="Vector">
<use xlink:href="#path2_fill" transform="translate(29885 -6030.67)" fill="#FFFFFF"/>
</g>
<g id="Vector">
<use xlink:href="#path3_fill" transform="translate(29923.4 -6041.6)" fill="#FFFFFF"/>
</g>
<g id="Vector">
<use xlink:href="#path4_fill" transform="translate(29947 -6024.4)" fill="#FFFFFF"/>
</g>
<g id="Vector">
<use xlink:href="#path5_fill" transform="translate(29952.9 -6024.25)" fill="#FFFFFF"/>
</g>
<g id="Vector">
<use xlink:href="#path6_fill" transform="translate(29959.7 -6024.4)" fill="#FFFFFF"/>
</g>
<g id="Vector">
<use xlink:href="#path7_fill" transform="translate(29965.7 -6024.4)" fill="#FFFFFF"/>
</g>
<g id="Vector">
<use xlink:href="#path8_fill" transform="translate(29973.2 -6024.25)" fill="#FFFFFF"/>
</g>
<g id="Vector">
<use xlink:href="#path9_fill" transform="translate(29980.4 -6024.25)" fill="#FFFFFF"/>
</g>
<g id="Vector">
<use xlink:href="#path10_fill" transform="translate(29992.2 -6024.25)" fill="#FFFFFF"/>
</g>
<g id="Vector">
<use xlink:href="#path11_fill" transform="translate(29999 -6024.4)" fill="#FFFFFF"/>
</g>
<g id="Vector">
<use xlink:href="#path12_fill" transform="translate(30005.2 -6024.25)" fill="#FFFFFF"/>
</g>
<g id="Vector">
<use xlink:href="#path13_fill" transform="translate(30013.9 -6024.25)" fill="#FFFFFF"/>
</g>
</g>
</g>
</g>
</g>
<defs>
<path id="path0_fill" fill-rule="evenodd" d="M 0.0725803 7.79968L 20.1048 -1.1668e-06C 20.1048 -1.1668e-06 20.6129 0.458805 20.6129 1.22348C 20.6129 2.06462 20.6855 19.8815 20.6855 19.8815C 20.6855 19.8815 20.758 20.8756 19.8145 21.4109C 18.871 21.9462 14.7339 24.2402 14.7339 24.2402C 14.7339 24.2402 14.2984 24.546 13.6451 24.546L 13.6451 12.3113C 13.6451 12.3113 13.5726 11.6995 12.9919 11.623C 12.7016 11.623 12.5564 11.776 12.4113 11.9289C 12.3387 12.0819 2.25 27.1459 2.25 27.1459C 2.25 27.1459 1.45161 28.3694 0.0725803 28.3694L -5.53746e-07 28.3694L 0.0725803 7.79968Z"/>
<path id="path1_fill" fill-rule="evenodd" d="M -6.92182e-08 4.55406C -6.92182e-08 4.55406 0.362903 4.17172 1.08871 4.01879C 1.74193 3.94232 17.7822 0.271884 17.7822 0.271884C 17.7822 0.271884 19.8145 -0.339855 22.5 0.271884C 25.1855 0.883624 39.4838 4.17172 39.4838 4.17172C 39.4838 4.17172 39.9919 4.32466 40.2096 4.55406L 20.1774 12.3537L -6.92182e-08 4.55406Z"/>
<path id="path2_fill" fill-rule="evenodd" d="M 8.05645 10.476L 1.16129 0.229402C 1.16129 0.229402 1.01613 -5.43334e-15 0.653225 -5.43334e-15C 0.290322 -5.43334e-15 -1.28929e-15 0.229403 -1.28929e-15 0.688208L -1.28929e-15 12.923C -1.28929e-15 12.923 0.435483 12.9995 1.23387 12.6936C 2.03226 12.4642 8.05645 10.476 8.05645 10.476Z"/>
<path id="path3_fill" fill-rule="evenodd" d="M 62.2016 3.44104L 68.5886 3.44104L 68.5886 9.32903L 62.2016 9.32903L 62.2016 3.44104ZM 29.3226 3.44104L 35.7096 3.44104L 35.7096 9.32903L 29.3226 9.32903L 29.3226 3.44104ZM 107.564 0.305869L 107.564 3.7469L 111.919 3.7469L 111.919 12.7701L 116.274 12.7701L 116.274 3.7469L 120.629 3.7469L 120.629 0.305869L 107.564 0.305869ZM 91.1612 0.305869L 91.1612 12.7701L 95.3709 12.7701L 101.758 5.35272L 101.758 12.7701L 106.113 12.7701L 106.113 0.305869L 101.613 0.305869L 95.5161 7.34087L 95.5161 0.305869L 91.1612 0.305869ZM 84.8467 3.7469L 79.9112 3.7469C 79.9112 5.58212 79.9112 7.49381 79.9112 9.32903C 79.9112 11.2407 78.9677 12.7701 76.6451 12.7701L 74.6128 12.7701L 73.9596 12.7701L 73.9596 9.17609L 74.6128 9.17609L 75.5564 9.17609C 75.5564 7.34087 75.5564 5.58212 75.5564 3.7469C 75.5564 1.83522 76.4999 0.305869 78.8225 0.305869L 89.2015 0.305869L 89.2015 12.7701L 84.8467 12.7701L 84.8467 3.7469ZM 69.6774 5.834e-07L 61.1129 5.834e-07C 58.7903 5.834e-07 57.8467 1.52935 57.8467 3.44104L 57.8467 9.32903C 57.8467 11.2407 58.7903 12.7701 61.1129 12.7701L 69.6774 12.7701C 71.9999 12.7701 72.9435 11.2407 72.9435 9.32903L 72.9435 3.44104C 72.9435 1.45288 71.9999 5.834e-07 69.6774 5.834e-07ZM 41.9516 0.305869L 41.9516 12.7701L 46.3064 12.7701L 46.3064 8.02908L 51.6048 8.02908L 51.6048 12.7701L 55.9596 12.7701L 55.9596 0.305869L 51.6048 0.305869L 51.6048 4.20571L 46.3064 4.20571L 46.3064 0.305869L 41.9516 0.305869ZM 36.7984 5.834e-07L 28.2338 5.834e-07C 25.8387 5.834e-07 24.9677 1.52935 24.9677 3.44104L 24.9677 9.32903C 24.9677 11.2407 25.9113 12.7701 28.2338 12.7701L 36.7984 12.7701C 39.1935 12.7701 40.0645 11.2407 40.0645 9.32903L 40.0645 3.44104C 40.0645 1.45288 39.1209 5.834e-07 36.7984 5.834e-07ZM 17.0564 0.152936L 23.0806 0.152936L 23.0806 12.7701L 18.7258 12.7701L 18.7258 5.12332L 11.5403 15.5994L 4.35484 5.12332L 4.35484 12.7701L 1.10749e-06 12.7701L 1.10749e-06 0.152936L 6.02419 0.152936L 11.4677 8.48788L 17.0564 0.152936Z"/>
<path id="path4_fill" fill-rule="evenodd" d="M 4.93548 6.49973C 4.71774 6.65267 4.42741 6.72913 4.13709 6.8056C 3.77419 6.88207 3.48387 6.88207 3.12097 6.88207C 2.68548 6.88207 2.32258 6.8056 1.95967 6.72914C 1.59677 6.5762 1.23387 6.42326 0.94355 6.11739C 0.653227 5.81152 0.435485 5.50566 0.290323 5.04685C 0.145162 4.58805 1.03143e-14 4.05277 1.03143e-14 3.44103C 1.03143e-14 2.82929 0.0725817 2.21755 0.290323 1.83522C 0.508065 1.37641 0.725807 1.07054 1.01613 0.764672C 1.30645 0.458802 1.66936 0.305871 2.03226 0.152936C 2.39516 1.16224e-06 2.75806 -2.3336e-06 3.12097 -2.3336e-06C 3.48387 -2.3336e-06 3.84677 2.33018e-06 4.13709 0.0764698C 4.42741 0.152937 4.64516 0.152935 4.79032 0.229402L 4.49999 1.29995C 4.35483 1.22348 4.13709 1.14701 3.91935 1.14701C 3.70161 1.14701 3.48387 1.07054 3.12097 1.07054C 2.54032 1.07054 2.10484 1.22348 1.81451 1.60582C 1.45161 1.98816 1.30645 2.52342 1.30645 3.36457C 1.30645 3.67044 1.37903 4.05278 1.45161 4.28218C 1.52419 4.58805 1.66935 4.81745 1.81451 4.97038C 1.95968 5.19978 2.17742 5.35272 2.39516 5.42919C 2.6129 5.50566 2.90322 5.58212 3.26613 5.58212C 3.55645 5.58212 3.84677 5.58212 3.99193 5.50566C 4.20967 5.42919 4.35483 5.35272 4.49999 5.27625L 4.93548 6.49973Z"/>
<path id="path5_fill" fill-rule="evenodd" d="M 5.44354 1.14701L 3.41129 1.14701L 3.41129 6.5762L 2.03226 6.5762L 2.03226 1.14701L -1.10749e-06 1.14701L -1.10749e-06 1.1668e-06L 5.44354 1.1668e-06L 5.44354 1.14701Z"/>
<path id="path6_fill" fill-rule="evenodd" d="M 2.03225 1.14701C 1.88709 1.14701 1.74193 1.14701 1.66935 1.14701C 1.52419 1.14701 1.45161 1.14701 1.37903 1.14701L 1.37903 3.2881C 1.37903 3.2881 1.45161 3.2881 1.52419 3.2881C 1.59677 3.2881 1.66935 3.2881 1.66935 3.2881C 1.74193 3.2881 1.81452 3.2881 1.81452 3.2881L 1.95967 3.2881C 2.10484 3.2881 2.32258 3.2881 2.46774 3.21163C 2.6129 3.21163 2.83064 3.13516 2.9758 3.0587C 3.12097 2.98223 3.19355 2.82929 3.33871 2.67636C 3.41129 2.52342 3.48387 2.29402 3.48387 2.06462C 3.48387 1.83522 3.41129 1.68228 3.33871 1.52935C 3.26613 1.37641 3.12096 1.29995 3.04838 1.22348C 2.90322 1.14701 2.75806 1.07054 2.6129 1.07054C 2.39516 1.14701 2.25 1.14701 2.03225 1.14701ZM 1.10749e-06 0.229402C 0.290323 0.152935 0.580642 0.152937 0.943545 0.0764698C 1.30645 0.0764698 1.59677 -2.3336e-06 1.95967 -2.3336e-06C 2.32258 -2.3336e-06 2.68548 2.33018e-06 2.9758 0.0764698C 3.33871 0.152937 3.62903 0.2294 3.91935 0.382335C 4.20968 0.53527 4.42741 0.764673 4.57257 1.07054C 4.71774 1.37641 4.8629 1.75875 4.8629 2.21755C 4.8629 2.59989 4.79032 2.98223 4.64516 3.2881C 4.5 3.59397 4.28225 3.82337 4.06451 3.97631C 3.84677 4.12924 3.55645 4.28218 3.19355 4.35865C 2.90323 4.43511 2.54032 4.51158 2.17742 4.51158C 2.17742 4.51158 2.10483 4.51158 2.03225 4.51158C 1.95967 4.51158 1.8871 4.51158 1.81452 4.51158C 1.74194 4.51158 1.66935 4.51158 1.59677 4.51158C 1.52419 4.51158 1.45161 4.51158 1.45161 4.51158L 1.45161 6.8056L 0.0725806 6.8056L 0.0725806 0.229402L 1.10749e-06 0.229402Z"/>
<path id="path7_fill" fill-rule="evenodd" d="M 1.37903 3.44103C 1.37903 3.7469 1.37903 4.05278 1.45161 4.35865C 1.52419 4.66452 1.59677 4.89392 1.74193 5.04685C 1.88709 5.27626 2.03226 5.42919 2.25 5.50566C 2.46774 5.58213 2.68548 5.65859 2.90322 5.65859C 3.41129 5.65859 3.77419 5.50566 4.06452 5.12332C 4.35484 4.74098 4.49999 4.20571 4.49999 3.36457C 4.49999 3.0587 4.5 2.75283 4.42742 2.44696C 4.35484 2.14109 4.28225 1.91169 4.13709 1.75875C 3.99193 1.52935 3.84677 1.37642 3.70161 1.29995C 3.48387 1.14701 3.26613 1.14701 2.97581 1.14701C 2.46774 1.14701 2.10483 1.29995 1.81451 1.68228C 1.52419 2.06462 1.37903 2.67636 1.37903 3.44103ZM -2.21498e-06 3.44103C -2.21498e-06 2.37049 0.290325 1.52935 0.798389 0.917611C 1.30645 0.305871 2.03226 -2.3336e-06 2.97581 -2.3336e-06C 3.48387 -2.3336e-06 3.91936 0.0764675 4.28226 0.229402C 4.64516 0.382337 4.93548 0.611741 5.2258 0.917611C 5.44354 1.22348 5.66128 1.60582 5.80644 1.98816C 5.95161 2.44696 5.9516 2.90576 5.9516 3.36457C 5.9516 4.43511 5.66129 5.35272 5.15322 5.88799C 4.64516 6.49973 3.91935 6.8056 2.97581 6.8056C 2.46774 6.8056 2.03226 6.72914 1.66935 6.5762C 1.30645 6.42327 1.01613 6.19386 0.725804 5.88799C 0.508062 5.58213 0.290323 5.19979 0.145162 4.81745C 0.0725817 4.43511 -2.21498e-06 3.97631 -2.21498e-06 3.44103Z"/>
<path id="path8_fill" fill-rule="evenodd" d="M 4.06452 2.90576L 4.13709 2.06462L 3.62903 2.98223L 1.01612 6.5762L 0 6.5762L 0 1.1668e-06L 1.37903 1.1668e-06L 1.37903 3.59397L 1.30645 4.51158L 1.37903 4.51158L 1.81451 3.59397L 4.42742 1.1668e-06L 5.44354 1.1668e-06L 5.44354 6.5762L 4.06452 6.5762L 4.06452 2.90576Z"/>
<path id="path9_fill" fill-rule="evenodd" d="M 5.44354 3.21163L 5.5887 1.83522L 5.51613 1.83522L 5.08064 2.90576L 3.62903 5.35272L 3.19354 5.35272L 1.59677 2.90576L 1.16129 1.83522L 1.08871 1.83522L 1.30645 3.13517L 1.30645 6.5762L 0 6.5762L 0 1.1668e-06L 1.23387 1.1668e-06L 3.12097 2.98223L 3.48387 3.74691L 3.77419 2.98223L 5.5887 1.1668e-06L 6.82257 1.1668e-06L 6.82257 6.5762L 5.44354 6.5762L 5.44354 3.21163Z"/>
<path id="path10_fill" fill-rule="evenodd" d="M 1.74194 3.74691L 1.37904 3.74691L 1.37904 6.5762L -2.21498e-06 6.5762L -2.21498e-06 1.1668e-06L 1.37904 1.1668e-06L 1.37904 2.90576L 1.66935 2.75283L 3.62903 1.1668e-06L 5.15322 1.1668e-06L 3.12097 2.75283L 2.6129 3.13517L 3.12097 3.5175L 5.44354 6.5762L 3.77419 6.5762L 1.74194 3.74691Z"/>
<path id="path11_fill" fill-rule="evenodd" d="M 2.03225 1.14701C 1.88709 1.14701 1.74193 1.14701 1.66935 1.14701C 1.52419 1.14701 1.45161 1.14701 1.37903 1.14701L 1.37903 3.2881C 1.37903 3.2881 1.45161 3.2881 1.52419 3.2881C 1.59677 3.2881 1.66935 3.2881 1.66935 3.2881C 1.74193 3.2881 1.81452 3.2881 1.81452 3.2881L 1.95968 3.2881C 2.10484 3.2881 2.32258 3.2881 2.46774 3.21163C 2.6129 3.21163 2.83064 3.13516 2.9758 3.0587C 3.12096 2.98223 3.19354 2.82929 3.3387 2.67636C 3.41129 2.52342 3.48386 2.29402 3.48386 2.06462C 3.48386 1.83522 3.41129 1.68228 3.3387 1.52935C 3.26612 1.37641 3.12097 1.29995 3.04839 1.22348C 2.90323 1.14701 2.75806 1.07054 2.6129 1.07054C 2.32258 1.14701 2.17741 1.14701 2.03225 1.14701ZM 4.42997e-06 0.229402C 0.290327 0.152935 0.58064 0.152937 0.943543 0.0764698C 1.30645 0.0764698 1.59678 -2.3336e-06 1.95968 -2.3336e-06C 2.32258 -2.3336e-06 2.68548 2.33018e-06 2.9758 0.0764698C 3.26612 0.152937 3.62903 0.2294 3.91935 0.382335C 4.20967 0.53527 4.42741 0.764673 4.57257 1.07054C 4.71773 1.37641 4.8629 1.75875 4.8629 2.21755C 4.8629 2.59989 4.79032 2.98223 4.64516 3.2881C 4.5 3.59397 4.28225 3.82337 4.06451 3.97631C 3.84677 4.12924 3.55645 4.28218 3.19355 4.35865C 2.90322 4.43511 2.54032 4.51158 2.17742 4.51158C 2.17742 4.51158 2.10483 4.51158 2.03225 4.51158C 1.95967 4.51158 1.8871 4.51158 1.81452 4.51158C 1.74194 4.51158 1.66936 4.51158 1.59678 4.51158C 1.52419 4.51158 1.45162 4.51158 1.45162 4.51158L 1.45162 6.8056L 0.0725784 6.8056L 0.0725784 0.229402L 4.42997e-06 0.229402Z"/>
<path id="path12_fill" fill-rule="evenodd" d="M 5.44354 1.1668e-06L 6.82258 1.1668e-06L 6.82258 6.5762L 5.44354 6.5762L 5.44354 1.1668e-06ZM 2.03226 5.58212C 2.39516 5.58212 2.68548 5.50566 2.97581 5.35272C 3.19355 5.19979 3.33871 4.89392 3.33871 4.51158C 3.33871 4.28218 3.33871 4.12924 3.26612 3.97631C 3.19354 3.82337 3.12097 3.7469 2.97581 3.67043C 2.83065 3.59397 2.75806 3.5175 2.54032 3.5175C 2.39516 3.5175 2.25 3.44104 2.03226 3.44104C 1.95968 3.44104 1.81451 3.44104 1.66935 3.44104C 1.52419 3.44104 1.45162 3.44103 1.37904 3.5175L 1.37904 5.50565C 1.45162 5.50565 1.52419 5.50565 1.66935 5.58212C 1.81451 5.58212 1.8871 5.58212 2.03226 5.58212ZM 0.0725828 1.1668e-06L 1.45161 1.1668e-06L 1.45161 2.37049C 1.52419 2.37049 1.66935 2.37049 1.81451 2.29402C 1.95967 2.29402 2.10484 2.29402 2.25 2.29402C 2.6129 2.29402 2.90323 2.29402 3.19355 2.37049C 3.48387 2.44696 3.77419 2.52343 3.99193 2.67636C 4.20967 2.8293 4.42741 3.0587 4.49999 3.36457C 4.64515 3.67044 4.71774 3.9763 4.71774 4.43511C 4.71774 5.19978 4.49999 5.81153 3.99193 6.19386C 3.48387 6.5762 2.83065 6.72913 1.8871 6.72913C 1.81452 6.72913 1.66936 6.72913 1.52419 6.72913C 1.37903 6.72913 1.23387 6.72913 1.01613 6.72913C 0.870971 6.72913 0.653221 6.72913 0.50806 6.65267C 0.362899 6.65267 0.145159 6.5762 -2.21498e-06 6.5762L -2.21498e-06 1.1668e-06L 0.0725828 1.1668e-06Z"/>
<path id="path13_fill" fill-rule="evenodd" d="M 5.44355 3.21163L 5.58871 1.83522L 5.51612 1.83522L 5.08065 2.90576L 3.55645 5.35272L 3.12096 5.35272L 1.59678 2.90576L 1.16129 1.83522L 1.08871 1.83522L 1.30645 3.13517L 1.30645 6.5762L 4.42997e-06 6.5762L 4.42997e-06 1.1668e-06L 1.23387 1.1668e-06L 3.12096 2.98223L 3.41129 3.74691L 3.48386 3.74691L 3.77419 2.98223L 5.51612 1.1668e-06L 6.74999 1.1668e-06L 6.74999 6.5762L 5.44355 6.5762L 5.44355 3.21163Z"/>
</defs>
</svg>
