<svg xmlns="http://www.w3.org/2000/svg" viewBox="0 0 50.72 39.98"><defs><style>.cls-1{fill:#00090a;}.cls-2{fill:#fffaf7;}.cls-3{fill:#7d7e6c;}.cls-4{fill:#28967f;}</style></defs><title>Asset 1</title><g id="Layer_2" data-name="Layer 2"><g id="Layer_1-2" data-name="Layer 1"><g id="Canvas"><g id="Group"><g id="Group-2" data-name="Group"><g id="Vector"><path id="path0_fill" data-name="path0 fill" class="cls-1" d="M25.39,15,50,5.5A2.11,2.11,0,0,1,50.63,7c0,1,.09,22.62.09,22.62a2.06,2.06,0,0,1-1.07,1.85c-1.16.65-6.24,3.43-6.24,3.43a2.53,2.53,0,0,1-1.34.37V20.42a1,1,0,0,0-.8-.83.92.92,0,0,0-.71.37c-.09.19-12.49,18.44-12.49,18.44a3.49,3.49,0,0,1-2.68,1.48H25.3Z"/></g><g id="Vector-2" data-name="Vector"><path id="path1_fill" data-name="path1 fill" class="cls-2" d="M25.43,15,.63,5.5A2.11,2.11,0,0,0,0,7V29.69a1.89,1.89,0,0,0,1,1.85C2.15,32.19,7.23,35,7.23,35a3.58,3.58,0,0,0,1.43.37V20.52a.84.84,0,0,1,.71-.83,1.06,1.06,0,0,1,.71.28c.09.19,12.49,18.44,12.49,18.44A3.76,3.76,0,0,0,25.25,40h.09Z"/></g><g id="Vector-3" data-name="Vector"><path id="path2_fill" data-name="path2 fill" class="cls-3" d="M.6,5.52a2.72,2.72,0,0,1,1.34-.65C2.74,4.78,22.45.33,22.45.33a12.56,12.56,0,0,1,5.8,0L49.12,5.06a2.55,2.55,0,0,1,.89.46L25.4,15Z"/></g></g><g id="Group-3" data-name="Group"><g id="Vector-4" data-name="Vector"><path id="path3_fill" data-name="path3 fill" class="cls-1" d="M18.5,32.5,10,20.08a.74.74,0,0,0-.62-.28.76.76,0,0,0-.8.83V35.46a3.21,3.21,0,0,0,1.52-.28C11.1,34.91,18.5,32.5,18.5,32.5Z"/></g><g id="Vector-5" data-name="Vector"><path id="path4_fill" data-name="path4 fill" class="cls-4" d="M32.2,32.5l8.38-12.33a.77.77,0,0,1,.71-.37.82.82,0,0,1,.8.83V35.46a2.79,2.79,0,0,1-1.16-.09C40.49,35.19,32.2,32.5,32.2,32.5Z"/></g></g></g></g></g></g></svg>