<svg width="204" height="40" viewBox="0 0 204 40" version="1.1" xmlns="http://www.w3.org/2000/svg" xmlns:xlink="http://www.w3.org/1999/xlink">
<title>Group</title>
<desc>Created using Figma</desc>
<g id="Canvas" transform="translate(-20330 11037)">
<g id="Group">
<g id="Group">
<g id="Vector">
<use xlink:href="#path0_fill" transform="translate(20355.3 -11031.5)" fill="#00090A"/>
</g>
<g id="Vector">
<use xlink:href="#path1_fill" transform="translate(20330 -11031.5)" fill="#FFFAF7"/>
</g>
<g id="Vector">
<use xlink:href="#path2_fill" transform="translate(20330.6 -11037)" fill="#7D7E6C"/>
</g>
</g>
<g id="Group">
<g id="Vector">
<use xlink:href="#path3_fill" transform="translate(20338.6 -11017.2)" fill="#00090A"/>
</g>
<g id="Vector">
<use xlink:href="#path4_fill" transform="translate(20362.2 -11017.2)" fill="#28967F"/>
</g>
<g id="Vector">
<use xlink:href="#path5_fill" transform="translate(20385.8 -11030.5)" fill="#28967F"/>
</g>
<g id="Vector">
<use xlink:href="#path6_fill" transform="translate(20414.8 -11009.6)" fill="#00090A"/>
</g>
<g id="Vector">
<use xlink:href="#path7_fill" transform="translate(20422.1 -11009.4)" fill="#00090A"/>
</g>
<g id="Vector">
<use xlink:href="#path8_fill" transform="translate(20430.4 -11009.6)" fill="#00090A"/>
</g>
<g id="Vector">
<use xlink:href="#path9_fill" transform="translate(20437.8 -11009.6)" fill="#00090A"/>
</g>
<g id="Vector">
<use xlink:href="#path10_fill" transform="translate(20446.9 -11009.4)" fill="#00090A"/>
</g>
<g id="Vector">
<use xlink:href="#path11_fill" transform="translate(20455.9 -11009.4)" fill="#00090A"/>
</g>
<g id="Vector">
<use xlink:href="#path12_fill" transform="translate(20470.3 -11009.4)" fill="#00090A"/>
</g>
<g id="Vector">
<use xlink:href="#path13_fill" transform="translate(20478.7 -11009.6)" fill="#00090A"/>
</g>
<g id="Vector">
<use xlink:href="#path14_fill" transform="translate(20486.4 -11009.4)" fill="#00090A"/>
</g>
<g id="Vector">
<use xlink:href="#path15_fill" transform="translate(20497 -11009.4)" fill="#00090A"/>
</g>
</g>
</g>
</g>
<defs>
<path id="path0_fill" fill-rule="evenodd" d="M 0.0891952 9.45417L 24.7072 -1.41431e-06C 24.7072 -1.41431e-06 25.3315 0.556128 25.3315 1.48301C 25.3315 2.50258 25.4207 24.0989 25.4207 24.0989C 25.4207 24.0989 25.5099 25.3038 24.3504 25.9526C 23.1908 26.6014 18.1067 29.3821 18.1067 29.3821C 18.1067 29.3821 17.5715 29.7528 16.7688 29.7528L 16.7688 14.9228C 16.7688 14.9228 16.6796 14.1813 15.966 14.0886C 15.6092 14.0886 15.4308 14.2739 15.2524 14.4593C 15.1632 14.6447 2.76506 32.9042 2.76506 32.9042C 2.76506 32.9042 1.78391 34.3872 0.0891952 34.3872L -6.80508e-07 34.3872L 0.0891952 9.45417Z"/>
<path id="path1_fill" fill-rule="evenodd" d="M 25.4306 9.45417L 0.634245 -1.41431e-06C 0.634245 -1.41431e-06 0.0098764 0.556128 0.0098764 1.48301C 0.0098764 1.5757 0.0098764 1.94645 0.0098764 2.50257L 0.0098764 2.78064C 0.0098764 7.60041 0.0098764 24.1916 0.0098764 24.1916C 0.0098764 24.1916 -0.168515 25.3965 0.991027 26.0453C 2.15057 26.6941 7.23471 29.4748 7.23471 29.4748C 7.23471 29.4748 7.94828 29.8455 8.66184 29.8455L 8.66184 15.0154C 8.66184 15.0154 8.66184 14.2739 9.3754 14.1813C 9.73219 14.1813 9.99977 14.3666 10.089 14.4593C 10.1782 14.6447 22.5763 32.9042 22.5763 32.9042C 22.5763 32.9042 23.5575 34.3872 25.2522 34.4799L 25.3414 34.4799L 25.4306 9.45417Z"/>
<path id="path2_fill" fill-rule="evenodd" d="M -8.50635e-08 5.52008C -8.50635e-08 5.52008 0.445977 5.05664 1.33793 4.87127C 2.14069 4.77858 21.8529 0.329557 21.8529 0.329557C 21.8529 0.329557 24.3504 -0.411946 27.6506 0.329557C 30.9508 1.07106 48.5224 5.05664 48.5224 5.05664C 48.5224 5.05664 49.1467 5.24202 49.4143 5.52008L 24.7963 14.9743L -8.50635e-08 5.52008Z"/>
<path id="path3_fill" fill-rule="evenodd" d="M 9.9007 12.6982L 1.42713 0.278063C 1.42713 0.278063 1.24874 -6.58588e-15 0.802759 -6.58588e-15C 0.356782 -6.58588e-15 -1.58443e-15 0.278065 -1.58443e-15 0.834193L -1.58443e-15 15.6643C -1.58443e-15 15.6643 0.535173 15.757 1.51632 15.3862C 2.49747 15.1081 9.9007 12.6982 9.9007 12.6982Z"/>
<path id="path4_fill" fill-rule="evenodd" d="M 0 12.6982L 8.38438 0.370753C 8.38438 0.370753 8.56277 -6.58588e-15 9.09794 -6.58588e-15C 9.54392 -6.58588e-15 9.9007 0.370753 9.9007 0.834193L 9.9007 15.6643C 9.9007 15.6643 9.18714 15.757 8.74116 15.5716C 8.29518 15.3862 0 12.6982 0 12.6982Z"/>
<path id="path5_fill" fill-rule="evenodd" d="M 76.4406 4.17096L 84.2897 4.17096L 84.2897 11.3079L 76.4406 11.3079L 76.4406 4.17096ZM 36.035 4.17096L 43.8842 4.17096L 43.8842 11.3079L 36.035 11.3079L 36.035 4.17096ZM 132.188 0.37075L 132.188 4.54171L 137.539 4.54171L 137.539 15.4789L 142.891 15.4789L 142.891 4.54171L 148.243 4.54171L 148.243 0.37075L 132.188 0.37075ZM 112.03 0.37075L 112.03 15.4789L 117.203 15.4789L 125.052 6.48816L 125.052 15.4789L 130.404 15.4789L 130.404 0.37075L 124.874 0.37075L 117.381 8.89804L 117.381 0.37075L 112.03 0.37075ZM 104.27 4.54171L 98.2042 4.54171C 98.2042 6.76622 98.2042 9.08342 98.2042 11.3079C 98.2042 13.6251 97.0447 15.4789 94.1904 15.4789L 91.693 15.4789L 90.8902 15.4789L 90.8902 11.1226L 91.693 11.1226L 92.8525 11.1226C 92.8525 8.89804 92.8525 6.76622 92.8525 4.54171C 92.8525 2.22451 94.0121 0.37075 96.8663 0.37075L 109.621 0.37075L 109.621 15.4789L 104.27 15.4789L 104.27 4.54171ZM 85.6277 7.07153e-07L 75.1026 7.07153e-07C 72.2484 7.07153e-07 71.0888 1.85376 71.0888 4.17096L 71.0888 11.3079C 71.0888 13.6251 72.2484 15.4789 75.1026 15.4789L 85.6277 15.4789C 88.4819 15.4789 89.6415 13.6251 89.6415 11.3079L 89.6415 4.17096C 89.6415 1.76107 88.4819 7.07153e-07 85.6277 7.07153e-07ZM 51.555 0.37075L 51.555 15.4789L 56.9067 15.4789L 56.9067 9.73223L 63.418 9.73223L 63.418 15.4789L 68.7697 15.4789L 68.7697 0.37075L 63.418 0.37075L 63.418 5.09784L 56.9067 5.09784L 56.9067 0.37075L 51.555 0.37075ZM 45.2221 7.07153e-07L 34.6971 7.07153e-07C 31.7536 7.07153e-07 30.6833 1.85376 30.6833 4.17096L 30.6833 11.3079C 30.6833 13.6251 31.8428 15.4789 34.6971 15.4789L 45.2221 15.4789C 48.1656 15.4789 49.2359 13.6251 49.2359 11.3079L 49.2359 4.17096C 49.2359 1.76107 48.0764 7.07153e-07 45.2221 7.07153e-07ZM 20.9609 0.185377L 28.3642 0.185377L 28.3642 15.4789L 23.0124 15.4789L 23.0124 6.21009L 14.1821 18.9083L 5.35173 6.21009L 5.35173 15.4789L 1.36102e-06 15.4789L 1.36102e-06 0.185377L 7.40322 0.185377L 14.0929 10.2884L 20.9609 0.185377Z"/>
<path id="path6_fill" fill-rule="evenodd" d="M 6.0653 7.87847C 5.79771 8.06385 5.44092 8.15654 5.08414 8.24923C 4.63816 8.34191 4.28139 8.34191 3.83541 8.34191C 3.30024 8.34191 2.85425 8.24923 2.40828 8.15654C 1.9623 7.97116 1.51633 7.78578 1.15954 7.41503C 0.802762 7.04428 0.535174 6.67354 0.356783 6.11741C 0.178392 5.56128 1.26754e-14 4.91246 1.26754e-14 4.17095C 1.26754e-14 3.42945 0.0891969 2.68795 0.356783 2.22451C 0.62437 1.66838 0.891956 1.29763 1.24874 0.926877C 1.60552 0.556125 2.0515 0.370753 2.49748 0.185377C 2.94345 1.40878e-06 3.38943 -2.82861e-06 3.83541 -2.82861e-06C 4.28139 -2.82861e-06 4.72736 2.82447e-06 5.08414 0.0926908C 5.44092 0.185379 5.70851 0.185376 5.8869 0.278064L 5.53012 1.5757C 5.35173 1.48301 5.08415 1.39032 4.81656 1.39032C 4.54897 1.39032 4.28139 1.29763 3.83541 1.29763C 3.12185 1.29763 2.58667 1.48301 2.22989 1.94645C 1.78391 2.40989 1.60552 3.0587 1.60552 4.07827C 1.60552 4.44902 1.69471 4.91246 1.78391 5.19053C 1.87311 5.56128 2.0515 5.83934 2.22989 6.02471C 2.40828 6.30278 2.67587 6.48816 2.94345 6.58085C 3.21104 6.67354 3.56782 6.76622 4.0138 6.76622C 4.37058 6.76622 4.72736 6.76622 4.90575 6.67353C 5.17334 6.58085 5.35173 6.48815 5.53012 6.39547L 6.0653 7.87847Z"/>
<path id="path7_fill" fill-rule="evenodd" d="M 6.68966 1.39032L 4.19219 1.39032L 4.19219 7.97116L 2.49748 7.97116L 2.49748 1.39032L -1.36102e-06 1.39032L -1.36102e-06 1.41431e-06L 6.68966 1.41431e-06L 6.68966 1.39032Z"/>
<path id="path8_fill" fill-rule="evenodd" d="M 2.49747 1.39032C 2.31908 1.39032 2.14069 1.39032 2.05149 1.39032C 1.8731 1.39032 1.78391 1.39032 1.69472 1.39032L 1.69472 3.98558C 1.69472 3.98558 1.78391 3.98558 1.87311 3.98558C 1.9623 3.98558 2.05149 3.98558 2.05149 3.98558C 2.14069 3.98558 2.22989 3.98558 2.22989 3.98558L 2.40828 3.98558C 2.58667 3.98558 2.85426 3.98558 3.03265 3.8929C 3.21104 3.8929 3.47862 3.8002 3.65702 3.70752C 3.83541 3.61483 3.9246 3.42945 4.10299 3.24408C 4.19219 3.0587 4.28138 2.78064 4.28138 2.50258C 4.28138 2.22451 4.19219 2.03913 4.10299 1.85376C 4.0138 1.66838 3.83541 1.5757 3.74621 1.48301C 3.56782 1.39032 3.38943 1.29763 3.21104 1.29763C 2.94345 1.39032 2.76506 1.39032 2.49747 1.39032ZM 1.36102e-06 0.278064C 0.356783 0.185376 0.713561 0.185379 1.15954 0.0926908C 1.60552 0.0926908 1.9623 -2.82861e-06 2.40828 -2.82861e-06C 2.85425 -2.82861e-06 3.30023 2.82447e-06 3.65702 0.0926908C 4.10299 0.185379 4.45978 0.278061 4.81656 0.463437C 5.17334 0.648813 5.44092 0.926878 5.61931 1.29763C 5.7977 1.66838 5.9761 2.13182 5.9761 2.68795C 5.9761 3.15139 5.88691 3.61483 5.70851 3.98558C 5.53012 4.35633 5.26253 4.6344 4.99495 4.81978C 4.72736 5.00515 4.37058 5.19053 3.9246 5.28322C 3.56782 5.3759 3.12184 5.46859 2.67587 5.46859C 2.67587 5.46859 2.58667 5.46859 2.49747 5.46859C 2.40828 5.46859 2.31908 5.46859 2.22989 5.46859C 2.14069 5.46859 2.0515 5.46859 1.9623 5.46859C 1.8731 5.46859 1.78391 5.46859 1.78391 5.46859L 1.78391 8.24923L 0.0891955 8.24923L 0.0891955 0.278064L 1.36102e-06 0.278064Z"/>
<path id="path9_fill" fill-rule="evenodd" d="M 1.69471 4.17096C 1.69471 4.54171 1.69471 4.91246 1.78391 5.28322C 1.8731 5.65397 1.9623 5.93203 2.14069 6.11741C 2.31908 6.39547 2.49748 6.58085 2.76506 6.67353C 3.03265 6.76622 3.30023 6.85891 3.56782 6.85891C 4.19219 6.85891 4.63817 6.67353 4.99495 6.21009C 5.35173 5.74665 5.53012 5.09784 5.53012 4.07827C 5.53012 3.70752 5.53012 3.33677 5.44093 2.96602C 5.35173 2.59526 5.26253 2.3172 5.08414 2.13182C 4.90575 1.85376 4.72736 1.66838 4.54897 1.5757C 4.28139 1.39032 4.0138 1.39032 3.65702 1.39032C 3.03265 1.39032 2.58667 1.5757 2.22988 2.03914C 1.8731 2.50258 1.69471 3.24408 1.69471 4.17096ZM -2.72203e-06 4.17096C -2.72203e-06 2.87332 0.356785 1.85376 0.981153 1.11226C 1.60552 0.370753 2.49748 -2.82861e-06 3.65702 -2.82861e-06C 4.28139 -2.82861e-06 4.81656 0.092688 5.26254 0.278064C 5.70852 0.46344 6.06529 0.741505 6.42207 1.11226C 6.68966 1.48301 6.95725 1.94645 7.13564 2.40989C 7.31403 2.96602 7.31403 3.52214 7.31403 4.07827C 7.31403 5.3759 6.95725 6.48816 6.33288 7.13697C 5.70852 7.87848 4.81656 8.24923 3.65702 8.24923C 3.03265 8.24923 2.49747 8.15654 2.0515 7.97117C 1.60552 7.78579 1.24873 7.50773 0.891952 7.13697C 0.624366 6.76622 0.356783 6.30278 0.178392 5.83934C 0.0891969 5.3759 -2.72203e-06 4.81977 -2.72203e-06 4.17096Z"/>
<path id="path10_fill" fill-rule="evenodd" d="M 4.99495 3.52214L 5.08414 2.50257L 4.45978 3.61483L 1.24873 7.97116L 0 7.97116L 0 1.41431e-06L 1.69471 1.41431e-06L 1.69471 4.35633L 1.60552 5.46859L 1.69471 5.46859L 2.22989 4.35633L 5.44093 1.41431e-06L 6.68966 1.41431e-06L 6.68966 7.97116L 4.99495 7.97116L 4.99495 3.52214Z"/>
<path id="path11_fill" fill-rule="evenodd" d="M 6.68966 3.89289L 6.86805 2.22451L 6.77886 2.22451L 6.24369 3.52214L 4.45978 6.48816L 3.9246 6.48816L 1.9623 3.52214L 1.42713 2.22451L 1.33793 2.22451L 1.60552 3.80021L 1.60552 7.97116L 0 7.97116L 0 1.41431e-06L 1.51632 1.41431e-06L 3.83541 3.61483L 4.28139 4.54171L 4.63816 3.61483L 6.86805 1.41431e-06L 8.38437 1.41431e-06L 8.38437 7.97116L 6.68966 7.97116L 6.68966 3.89289Z"/>
<path id="path12_fill" fill-rule="evenodd" d="M 2.1407 4.54171L 1.69472 4.54171L 1.69472 7.97116L -2.72203e-06 7.97116L -2.72203e-06 1.41431e-06L 1.69472 1.41431e-06L 1.69472 3.52214L 2.0515 3.33677L 4.45977 1.41431e-06L 6.33288 1.41431e-06L 3.83541 3.33677L 3.21104 3.80021L 3.83541 4.26365L 6.68966 7.97116L 4.63816 7.97116L 2.1407 4.54171Z"/>
<path id="path13_fill" fill-rule="evenodd" d="M 2.49747 1.39032C 2.31908 1.39032 2.14069 1.39032 2.05149 1.39032C 1.8731 1.39032 1.78391 1.39032 1.69471 1.39032L 1.69471 3.98558C 1.69471 3.98558 1.78391 3.98558 1.8731 3.98558C 1.9623 3.98558 2.05149 3.98558 2.05149 3.98558C 2.14069 3.98558 2.22989 3.98558 2.22989 3.98558L 2.40828 3.98558C 2.58667 3.98558 2.85426 3.98558 3.03265 3.8929C 3.21104 3.8929 3.47862 3.8002 3.65701 3.70752C 3.8354 3.61483 3.9246 3.42945 4.10299 3.24408C 4.19219 3.0587 4.28138 2.78064 4.28138 2.50258C 4.28138 2.22451 4.19219 2.03913 4.10299 1.85376C 4.01379 1.66838 3.83541 1.5757 3.74621 1.48301C 3.56782 1.39032 3.38943 1.29763 3.21104 1.29763C 2.85425 1.39032 2.67586 1.39032 2.49747 1.39032ZM 5.44406e-06 0.278064C 0.356787 0.185376 0.713559 0.185379 1.15954 0.0926908C 1.60551 0.0926908 1.9623 -2.82861e-06 2.40828 -2.82861e-06C 2.85426 -2.82861e-06 3.30023 2.82447e-06 3.65701 0.0926908C 4.01379 0.185379 4.45978 0.278061 4.81656 0.463437C 5.17334 0.648813 5.44092 0.926878 5.61931 1.29763C 5.7977 1.66838 5.9761 2.13182 5.9761 2.68795C 5.9761 3.15139 5.8869 3.61483 5.70851 3.98558C 5.53012 4.35633 5.26253 4.6344 4.99495 4.81978C 4.72736 5.00515 4.37058 5.19053 3.9246 5.28322C 3.56782 5.3759 3.12185 5.46859 2.67587 5.46859C 2.67587 5.46859 2.58666 5.46859 2.49747 5.46859C 2.40827 5.46859 2.31909 5.46859 2.22989 5.46859C 2.1407 5.46859 2.0515 5.46859 1.9623 5.46859C 1.87311 5.46859 1.78392 5.46859 1.78392 5.46859L 1.78392 8.24923L 0.0891928 8.24923L 0.0891928 0.278064L 5.44406e-06 0.278064Z"/>
<path id="path14_fill" fill-rule="evenodd" d="M 6.68966 1.41431e-06L 8.38438 1.41431e-06L 8.38438 7.97116L 6.68966 7.97116L 6.68966 1.41431e-06ZM 2.49747 6.76622C 2.94345 6.76622 3.30024 6.67353 3.65702 6.48816C 3.92461 6.30278 4.103 5.93203 4.103 5.46859C 4.103 5.19053 4.10299 5.00515 4.0138 4.81977C 3.9246 4.6344 3.83541 4.54171 3.65702 4.44902C 3.47863 4.35633 3.38943 4.26365 3.12184 4.26365C 2.94345 4.26365 2.76506 4.17096 2.49747 4.17096C 2.40828 4.17096 2.22989 4.17096 2.0515 4.17096C 1.87311 4.17096 1.78392 4.17096 1.69472 4.26365L 1.69472 6.67353C 1.78392 6.67353 1.87311 6.67353 2.0515 6.76622C 2.22989 6.76622 2.31908 6.76622 2.49747 6.76622ZM 0.0891982 1.41431e-06L 1.78391 1.41431e-06L 1.78391 2.87333C 1.8731 2.87333 2.05149 2.87333 2.22988 2.78064C 2.40828 2.78064 2.58667 2.78064 2.76506 2.78064C 3.21104 2.78064 3.56783 2.78064 3.92461 2.87333C 4.28139 2.96601 4.63816 3.0587 4.90575 3.24408C 5.17334 3.42946 5.44092 3.70752 5.53012 4.07827C 5.70851 4.44902 5.79771 4.81977 5.79771 5.3759C 5.79771 6.30278 5.53012 7.04428 4.90575 7.50772C 4.28138 7.97116 3.47863 8.15654 2.31909 8.15654C 2.22989 8.15654 2.0515 8.15654 1.87311 8.15654C 1.69472 8.15654 1.51633 8.15654 1.24874 8.15654C 1.07035 8.15654 0.802754 8.15654 0.624363 8.06385C 0.445972 8.06385 0.178388 7.97116 -2.72203e-06 7.97116L -2.72203e-06 1.41431e-06L 0.0891982 1.41431e-06Z"/>
<path id="path15_fill" fill-rule="evenodd" d="M 6.68967 3.89289L 6.86806 2.22451L 6.77886 2.22451L 6.24369 3.52214L 4.37058 6.48816L 3.8354 6.48816L 1.9623 3.52214L 1.42713 2.22451L 1.33794 2.22451L 1.60551 3.80021L 1.60551 7.97116L 5.44406e-06 7.97116L 5.44406e-06 1.41431e-06L 1.51633 1.41431e-06L 3.8354 3.61483L 4.19219 4.54171L 4.28138 4.54171L 4.63817 3.61483L 6.77886 1.41431e-06L 8.29518 1.41431e-06L 8.29518 7.97116L 6.68967 7.97116L 6.68967 3.89289Z"/>
</defs>
</svg>
